<?xml version="1.0" encoding="UTF-8"?>
<!-- chart v9 · sheet hero · edition phone-still-day · built by scripts/build_assets.py from assets/stats.json 790a78f29d1f · do not edit: the next run redraws it -->
<svg xmlns="http://www.w3.org/2000/svg" viewBox="0 0 720 1226" width="720" height="1226" role="img" data-sheet="hero" data-edition="phone-still-day">
<rect width="720" height="1226" fill="#F4EEE1"/><defs><radialGradient id="hero-paper-wipe" cx="50%" cy="50%" r="72%"><stop offset="0" stop-color="#CDC3AE" stop-opacity="0"/><stop offset=".7" stop-color="#CDC3AE" stop-opacity=".08"/><stop offset="1" stop-color="#CDC3AE" stop-opacity=".35"/></radialGradient><radialGradient id="hero-h-halo-g"><stop offset="0" stop-color="#C81392" stop-opacity=".95"/><stop offset=".45" stop-color="#C81392" stop-opacity=".35"/><stop offset="1" stop-color="#C81392" stop-opacity="0"/></radialGradient><g id="hero-h-sym-sloop"><path d="M-17 -2L-14 4L10 4L18 -6Q0 -1 -17 -2Z" fill="#1B2A41"/><path d="M3 -39Q-9 -24 -15 -7L3.5 -7Z" fill="#D73626"/><path d="M2.5 -34L17.5 -6L5 -8Z" fill="#F4EEE1" stroke="#1B2A41" stroke-width="1.3" stroke-linecap="round" stroke-linejoin="round"/><path d="M4 -3L2.5 -40M-17 -2L-21 -4" fill="none" stroke="#1B2A41" stroke-width="1.3" stroke-linecap="round" stroke-linejoin="round"/><circle r="1.2" fill="#1B2A41"/></g><g id="hero-h-sym-sloop-glyph"><path d="M-8 -1L-6 3L5 3L9 -3Z" fill="#1B2A41"/><path d="M2 -3L1 -20L-7 -4Z" fill="#D73626"/><path d="M1 -17L8 -4L2 -4Z" fill="none" stroke="#1B2A41" stroke-width="1.3" stroke-linecap="round" stroke-linejoin="round"/></g><g id="hero-h-sym-can"><g transform="rotate(8)"><path d="M-5.5 0v-13h11v13z" fill="#227A48" fill-opacity=".85" transform="translate(0.6 0.4)"/><path d="M-5.5 0v-13h11v13z" fill="none" stroke="#1B2A41" stroke-width="1.3" stroke-linecap="round" stroke-linejoin="round"/></g><circle r="1.2" fill="#F4EEE1" stroke="#1B2A41" stroke-width="1.3" stroke-linecap="round" stroke-linejoin="round"/></g><g id="hero-h-sym-nun"><g transform="rotate(8)"><path d="M-6 0L6 0L0 -14Z" fill="#D73626" fill-opacity=".85" transform="translate(0.6 0.4)"/><path d="M-6 0L6 0L0 -14Z" fill="none" stroke="#1B2A41" stroke-width="1.3" stroke-linecap="round" stroke-linejoin="round"/></g><circle r="1.2" fill="#F4EEE1" stroke="#1B2A41" stroke-width="1.3" stroke-linecap="round" stroke-linejoin="round"/></g><g id="hero-h-sym-light"><path d="M0 0q-3 -9 0 -14q3 5 0 14" transform="rotate(45)" fill="#C81392" fill-opacity=".80"/><path d="M0 -4L1 -1.4L3.8 -1.2L1.6 0.5L2.4 3.2L0 1.7L-2.4 3.2L-1.6 0.5L-3.8 -1.2L-1 -1.4Z" fill="none" stroke="#1B2A41" stroke-width="1.3" stroke-linecap="round" stroke-linejoin="round"/><circle id="hero-h-light-lit" r="1.5" fill="#F8F5EE" stroke="#1B2A41" stroke-width="1.3" stroke-linecap="round" stroke-linejoin="round"/></g><g id="hero-h-sym-flare"><path d="M0 0q-3 -9 0 -14q3 5 0 14" transform="rotate(45)" fill="#C81392" fill-opacity=".80"/></g><g id="hero-h-sym-traffic"><path d="M0 0V-19M-3 0h6" fill="none" stroke="#1B2A41" stroke-width="1.3" stroke-linecap="round" stroke-linejoin="round"/><circle cx="0" cy="-16" r="2.2" id="hero-h-traffic-lit" fill="#F4EEE1" stroke="#1B2A41" stroke-width="1.3" stroke-linecap="round" stroke-linejoin="round"/><circle cx="0" cy="-10.5" r="2.2" fill="#F4EEE1" stroke="#1B2A41" stroke-width="1.3" stroke-linecap="round" stroke-linejoin="round"/><circle cx="0" cy="-5" r="2.2" fill="#F4EEE1" stroke="#1B2A41" stroke-width="1.3" stroke-linecap="round" stroke-linejoin="round"/></g><g id="hero-h-sym-horn"><path d="M4.9 -3.4A6 6 0 0 1 4.9 3.4M7.8 -5.4A9.5 9.5 0 0 1 7.8 5.4M10.6 -7.5A13 13 0 0 1 10.6 7.5" fill="none" stroke="#1B2A41" stroke-width="0.8" stroke-linecap="butt" stroke-linejoin="round" stroke-opacity=".60"/></g><g id="hero-h-sym-anchorage"><circle cx="0" cy="-9" r="2.4" fill="none" stroke="#1B2A41" stroke-width="1.3" stroke-linecap="round" stroke-linejoin="round"/><path d="M0 -6.5V9M-6 -1H6M-8 4Q-8 10 0 10Q8 10 8 4" fill="none" stroke="#1B2A41" stroke-width="1.3" stroke-linecap="round" stroke-linejoin="round"/></g><g id="hero-h-sym-wreck"><path d="M-9 2Q0 7 9 2M-9 2L-6 -3L6 -3L9 2M0 -3V-11M-4 -8H4" fill="none" stroke="#1B2A41" stroke-width="1.3" stroke-linecap="round" stroke-linejoin="round"/><circle r="11" fill="none" stroke="#1B2A41" stroke-width="1.3" stroke-linecap="round" stroke-linejoin="round" stroke-opacity=".70" stroke-dasharray="0.1 3.4"/></g><g id="hero-h-sym-waypoint"><circle r="4" fill="none" stroke="#1B2A41" stroke-width="1.3" stroke-linecap="round" stroke-linejoin="round"/><circle r="1.2" fill="#1B2A41"/></g><g id="hero-h-sym-station"><path d="M0 -6L5.5 3.5L-5.5 3.5Z" fill="none" stroke="#1B2A41" stroke-width="1.3" stroke-linecap="round" stroke-linejoin="round"/><circle cy="0.5" r="1" fill="#1B2A41"/></g><g id="hero-h-sym-fix"><circle r="2.5" fill="none" stroke="#1B2A41" stroke-width="1.3" stroke-linecap="round" stroke-linejoin="round"/><path d="M-5 0h10M0 -5v10" fill="none" stroke="#1B2A41" stroke-width="1.3" stroke-linecap="round" stroke-linejoin="round"/></g><g id="hero-h-sym-ldg"><path d="M0 -7L4 1L-4 1Z" fill="#1B2A41"/></g><g id="hero-h-sym-halo"><circle id="hero-h-halo-lit" r="14" fill="url(#hero-h-halo-g)"/></g><g id="hero-h-sym-correction"><path d="M-5 5L5 -5" fill="none" stroke="#C81392" stroke-width="1.3" stroke-linecap="round" stroke-linejoin="round" stroke-opacity=".85"/></g><g id="hero-h-sym-rep"><circle r="7" fill="none" stroke="#1B2A41" stroke-width="1.3" stroke-linecap="round" stroke-linejoin="round" stroke-opacity=".90" stroke-dasharray="0.1 3.2"/></g><g id="hero-h-sym-ed"><circle r="4" fill="#E9DFCA" stroke="#1B2A41" stroke-width="1.3" stroke-linecap="round" stroke-linejoin="round" stroke-opacity=".90" stroke-dasharray="0.1 2.6"/></g><clipPath id="hero-row0"><rect x="26" y="492" width="671" height="54"/></clipPath><clipPath id="hero-row1"><rect x="26" y="588" width="671" height="54"/></clipPath><path id="hero-g-cond-26-83" d="M6.8 0.3Q4.8 0.3 3.4 -0.5Q1.9 -1.3 1 -2.8L2.5 -4Q3.3 -2.8 4.3 -2.1Q5.4 -1.5 6.8 -1.5Q10.5 -1.5 10.5 -4.9Q10.5 -6.3 9.8 -7.1Q9.1 -7.8 7.5 -8.2L6.1 -8.6Q3.7 -9.2 2.6 -10.3Q1.5 -11.5 1.5 -13.6Q1.5 -16 3 -17.2Q4.5 -18.5 7 -18.5Q8.9 -18.5 10.2 -17.8Q11.4 -17.1 12.4 -15.5L10.9 -14.5Q10.2 -15.5 9.3 -16.1Q8.4 -16.7 6.9 -16.7Q5.2 -16.7 4.4 -15.9Q3.5 -15.2 3.5 -13.6Q3.5 -12.2 4.2 -11.6Q4.9 -10.9 6.5 -10.5L7.9 -10.2Q9.1 -9.9 10 -9.4Q10.9 -9 11.5 -8.4Q12 -7.7 12.3 -6.9Q12.5 -6.1 12.5 -4.9Q12.5 -2.4 11 -1Q9.5 0.3 6.8 0.3Z"/><path id="hero-g-cond-26-67" d="M7.9 0.3Q6.4 0.3 5.2 -0.2Q4 -0.8 3.1 -1.9Q2.3 -3.1 1.8 -4.9Q1.4 -6.7 1.4 -9.1Q1.4 -11.5 1.8 -13.3Q2.3 -15.1 3.1 -16.2Q4 -17.3 5.2 -17.9Q6.4 -18.5 7.9 -18.5Q10.2 -18.5 11.5 -17.5Q12.9 -16.6 13.6 -14.6L12 -13.6Q11.5 -15.1 10.6 -15.8Q9.6 -16.6 7.9 -16.6Q5.8 -16.6 4.7 -15.1Q3.6 -13.6 3.6 -11.1V-7Q3.6 -4.5 4.7 -3Q5.8 -1.5 7.9 -1.5Q9.7 -1.5 10.7 -2.4Q11.6 -3.2 12.1 -4.7L13.8 -3.7Q13 -1.7 11.6 -0.7Q10.2 0.3 7.9 0.3Z"/><path id="hero-g-cond-26-82" d="M4.2 0H2.2V-18.1H8.8Q13.3 -18.1 13.3 -13Q13.3 -8.6 10.1 -7.9L13.8 0H11.4L8 -7.8H4.2ZM8.8 -9.6Q11.1 -9.6 11.1 -12.1V-13.8Q11.1 -16.3 8.8 -16.3H4.2V-9.6Z"/><path id="hero-g-cond-26-65" d="M12.4 0 10.8 -5.4H4.2L2.6 0H0.5L6.2 -18.1H8.8L14.5 0ZM8.2 -14 7.6 -16.3H7.4L6.8 -14L4.7 -7.1H10.3Z"/><path id="hero-g-cond-26-80" d="M2.2 0V-18.1H8.8Q13.3 -18.1 13.3 -13Q13.3 -7.8 8.8 -7.8H4.2V0ZM4.2 -9.6H8.8Q11.1 -9.6 11.1 -12.1V-13.8Q11.1 -16.3 8.8 -16.3H4.2Z"/><path id="hero-g-cond-26-89" d="M5.9 0V-7.2L0.3 -18.1H2.7L6.8 -9.5H7.1L11.3 -18.1H13.6L8 -7.2V0Z"/><path id="hero-g-cond-26-50" d="M12.5 0H1.7V-2.2L7.2 -7.9Q8.6 -9.2 9.1 -10.4Q9.7 -11.5 9.7 -12.7V-13.4Q9.7 -16.6 6.9 -16.6Q5.5 -16.6 4.6 -15.9Q3.8 -15.2 3.5 -13.8L1.6 -14.6Q1.9 -15.4 2.4 -16.1Q2.8 -16.8 3.5 -17.3Q4.2 -17.9 5 -18.2Q5.9 -18.5 6.9 -18.5Q9.5 -18.5 10.7 -17.1Q11.9 -15.8 11.9 -13.3Q11.9 -12.4 11.8 -11.6Q11.6 -10.9 11.2 -10.1Q10.8 -9.3 10.2 -8.5Q9.5 -7.6 8.5 -6.6L4 -1.8H12.5Z"/><path id="hero-g-cond-26-53" d="M11.7 -16.3H4.5L4.1 -9.1H4.3Q4.7 -10.1 5.5 -10.7Q6.3 -11.3 7.7 -11.3Q8.7 -11.3 9.6 -10.9Q10.5 -10.6 11.1 -9.9Q11.8 -9.2 12.1 -8.1Q12.5 -7.1 12.5 -5.7Q12.5 -2.8 11 -1.2Q9.6 0.3 7 0.3Q5.1 0.3 3.8 -0.6Q2.4 -1.5 1.7 -2.8L3.3 -3.9Q3.9 -2.8 4.8 -2.1Q5.7 -1.5 7 -1.5Q8.7 -1.5 9.5 -2.5Q10.3 -3.4 10.3 -5.2V-5.8Q10.3 -7.6 9.5 -8.6Q8.7 -9.5 7 -9.5Q5.8 -9.5 5.1 -9Q4.5 -8.6 4 -8L2.3 -8.2L2.9 -18.1H11.7Z"/><path id="hero-g-cond-26-68" d="M2.2 -18.1H7.9Q11 -18.1 12.7 -16Q14.4 -13.8 14.4 -9.1Q14.4 -4.3 12.7 -2.2Q11 0 7.9 0H2.2ZM7.9 -1.8Q9.8 -1.8 11 -3.2Q12.2 -4.5 12.2 -7V-11.1Q12.2 -13.6 11 -15Q9.8 -16.3 7.9 -16.3H4.2V-1.8Z"/><path id="hero-g-cond-26-84" d="M7.7 -16.3V0H5.7V-16.3H0.5V-18.1H12.9V-16.3Z"/><path id="hero-g-cond-26-72" d="M12.3 -8.3H4.2V0H2.2V-18.1H4.2V-10.1H12.3V-18.1H14.4V0H12.3Z"/><path id="hero-g-cond-26-79" d="M8.3 0.3Q5 0.3 3.2 -1.9Q1.4 -4.2 1.4 -9.1Q1.4 -13.9 3.2 -16.2Q5 -18.5 8.3 -18.5Q11.6 -18.5 13.4 -16.2Q15.2 -13.9 15.2 -9.1Q15.2 -4.2 13.4 -1.9Q11.6 0.3 8.3 0.3ZM8.3 -1.5Q10.6 -1.5 11.8 -3Q13 -4.5 13 -7V-11.1Q13 -13.6 11.8 -15.1Q10.6 -16.6 8.3 -16.6Q6 -16.6 4.8 -15.1Q3.6 -13.6 3.6 -11.1V-7Q3.6 -4.5 4.8 -3Q6 -1.5 8.3 -1.5Z"/><path id="hero-g-cond-26-78" d="M5.8 -11.8 4.3 -15.5H4L4.2 -11.8V0H2.2V-18.1H4.7L10.7 -6.4L12.3 -2.6H12.6L12.4 -6.4V-18.1H14.4V0H11.9Z"/><path id="hero-g-cond-26-85" d="M4.1 -18.1V-6.4Q4.1 -5.2 4.3 -4.3Q4.5 -3.4 4.9 -2.7Q5.4 -2.1 6.1 -1.8Q6.9 -1.5 7.9 -1.5Q10.1 -1.5 10.9 -2.7Q11.8 -4 11.8 -6.4V-18.1H13.8V-6.8Q13.8 -5 13.5 -3.7Q13.2 -2.3 12.5 -1.4Q11.8 -0.5 10.7 -0.1Q9.6 0.3 7.9 0.3Q6.3 0.3 5.2 -0.1Q4 -0.5 3.3 -1.4Q2.7 -2.3 2.3 -3.7Q2 -5 2 -6.8V-18.1Z"/><path id="hero-g-cond-26-77" d="M14.8 -12.5 15 -15.6H14.7L13.4 -12.5L9.5 -4.4L5.6 -12.5L4.2 -15.5H4L4.2 -12.5V0H2.1V-18.1H4.9L8.2 -11.1L9.4 -7.7H9.6L10.8 -11.1L14.1 -18.1H16.8V0H14.8Z"/><path id="hero-g-cond-26-69" d="M2.2 0V-18.1H12.2V-16.3H4.2V-10.1H11.7V-8.3H4.2V-1.8H12.2V0Z"/><path id="hero-g-cond-26-49" d="M2.1 0V-1.8H6.6V-16.6H6.4L2.6 -13.1L1.4 -14.3L5.5 -18.1H8.7V-1.8H12.8V0Z"/><path id="hero-g-cond-26-57" d="M12.6 -11.6Q12.6 -9.5 12 -7.7Q11.5 -5.9 10.6 -4.4Q9.8 -3 8.7 -1.8Q7.7 -0.7 6.7 0H4Q5.3 -1.1 6.4 -2.1Q7.4 -3.1 8.2 -4.2Q9 -5.3 9.5 -6.5Q10.1 -7.8 10.4 -9.4H10.1Q9.7 -8.3 8.8 -7.6Q7.9 -6.9 6.3 -6.9Q4.1 -6.9 2.8 -8.3Q1.5 -9.6 1.5 -12.5Q1.5 -15.3 2.9 -16.9Q4.3 -18.5 7 -18.5Q9.8 -18.5 11.2 -16.7Q12.6 -14.9 12.6 -11.6ZM7 -8.7Q8.7 -8.7 9.5 -9.6Q10.4 -10.5 10.4 -12.4V-12.9Q10.4 -14.8 9.5 -15.7Q8.7 -16.6 7 -16.6Q5.4 -16.6 4.5 -15.7Q3.7 -14.8 3.7 -12.9V-12.4Q3.7 -10.5 4.5 -9.6Q5.4 -8.7 7 -8.7Z"/><path id="hero-g-cond-26-95" d="M0.7 4.2V2.5H12.5V4.2Z"/><path id="hero-g-cond-26-73" d="M1.4 0V-1.7H3.7V-16.4H1.4V-18.1H8V-16.4H5.7V-1.7H8V0Z"/><path id="hero-g-cond-26-86" d="M5.8 0 0.5 -18.1H2.7L6.1 -6.4L7 -1.8H7.3L8.2 -6.4L11.6 -18.1H13.8L8.4 0Z"/><path id="hero-g-cond-26-74" d="M10 -18.1V-4.2Q10 -3.1 9.6 -2.3Q9.3 -1.5 8.7 -0.9Q8.1 -0.3 7.2 0Q6.3 0.3 5.3 0.3Q3.2 0.3 2.1 -0.8Q0.9 -1.9 0.6 -3.7L2.5 -4.2Q2.7 -3 3.3 -2.3Q4 -1.5 5.3 -1.5Q6.5 -1.5 7.2 -2.3Q7.9 -3 7.9 -4.5V-16.3H2.3V-18.1Z"/><path id="hero-g-cond-26-71" d="M12.7 -2.5H12.5Q12.2 -1.3 11.1 -0.5Q10 0.3 8 0.3Q6.5 0.3 5.3 -0.2Q4 -0.8 3.2 -1.9Q2.3 -3.1 1.8 -4.9Q1.4 -6.7 1.4 -9.1Q1.4 -13.9 3.2 -16.2Q5 -18.5 8.3 -18.5Q10.7 -18.5 12.1 -17.4Q13.5 -16.4 14.4 -14.6L12.6 -13.6Q12.1 -15 11.1 -15.8Q10 -16.6 8.3 -16.6Q6 -16.6 4.8 -15.1Q3.6 -13.6 3.6 -11.1V-7Q3.6 -4.5 4.8 -3Q6 -1.5 8.3 -1.5Q9.2 -1.5 10 -1.8Q10.8 -2.1 11.3 -2.6Q11.9 -3.1 12.3 -3.8Q12.6 -4.5 12.6 -5.5V-7.5H9V-9.3H14.6V0H12.7Z"/><path id="hero-g-cond-26-56" d="M7 0.3Q4.2 0.3 2.8 -1.1Q1.3 -2.5 1.3 -4.9Q1.3 -7 2.3 -8.1Q3.3 -9.2 4.8 -9.4V-9.7Q3.5 -10 2.7 -11.1Q1.8 -12.1 1.8 -13.9Q1.8 -16.2 3.2 -17.3Q4.5 -18.5 7 -18.5Q9.5 -18.5 10.9 -17.3Q12.2 -16.2 12.2 -13.9Q12.2 -12.1 11.4 -11.1Q10.6 -10 9.3 -9.7V-9.4Q10.7 -9.2 11.7 -8.1Q12.7 -7 12.7 -4.9Q12.7 -2.5 11.3 -1.1Q9.8 0.3 7 0.3ZM7 -1.5Q8.7 -1.5 9.6 -2.3Q10.5 -3.2 10.5 -4.8V-5.4Q10.5 -7 9.6 -7.9Q8.7 -8.7 7 -8.7Q5.4 -8.7 4.4 -7.9Q3.5 -7 3.5 -5.4V-4.8Q3.5 -3.2 4.4 -2.3Q5.4 -1.5 7 -1.5ZM7 -10.4Q10.1 -10.4 10.1 -13.3V-13.8Q10.1 -16.6 7 -16.6Q4 -16.6 4 -13.8V-13.3Q4 -10.4 7 -10.4Z"/><path id="hero-g-cond-26-87" d="M4.5 0 0.5 -18.1H2.7L5.1 -6.4L5.7 -2.1H6L6.7 -6.4L9.1 -18.1H11.9L14.4 -6.4L15.1 -2.1H15.3L16 -6.4L18.4 -18.1H20.5L16.4 0H13.8L11.3 -11.7L10.6 -16.3H10.4L9.7 -11.7L7.1 0Z"/><path id="hero-g-cond-26-76" d="M2.2 0V-18.1H4.2V-1.8H11.1V0Z"/><path id="hero-g-cond-26-54" d="M7 0.3Q4.3 0.3 2.9 -1.4Q1.5 -3.2 1.5 -6.6Q1.5 -8.6 2 -10.4Q2.6 -12.2 3.4 -13.7Q4.3 -15.2 5.3 -16.3Q6.3 -17.4 7.4 -18.1H10Q8.7 -17.1 7.7 -16.1Q6.6 -15.1 5.8 -14Q5.1 -12.9 4.5 -11.6Q4 -10.3 3.6 -8.7H3.9Q4.3 -9.8 5.3 -10.5Q6.2 -11.3 7.7 -11.3Q10 -11.3 11.3 -9.9Q12.6 -8.5 12.6 -5.7Q12.6 -2.8 11.2 -1.3Q9.8 0.3 7 0.3ZM7 -1.5Q8.7 -1.5 9.5 -2.4Q10.4 -3.4 10.4 -5.2V-5.7Q10.4 -7.6 9.5 -8.5Q8.7 -9.5 7 -9.5Q5.4 -9.5 4.5 -8.5Q3.7 -7.6 3.7 -5.7V-5.2Q3.7 -3.4 4.5 -2.4Q5.4 -1.5 7 -1.5Z"/><path id="hero-g-cond-26-45" d="M1.6 -6.8V-9H7.8V-6.8Z"/><path id="hero-g-cond-26-90" d="M12.8 0H0.9V-1.9L10.2 -16.3H1.3V-18.1H12.5V-16.3L3.1 -1.8H12.8Z"/><path id="hero-g-cond-26-51" d="M6.1 -10.4Q7.7 -10.4 8.6 -11.2Q9.4 -12 9.4 -13.4V-13.8Q9.4 -15.3 8.6 -16Q7.8 -16.6 6.5 -16.6Q5.3 -16.6 4.5 -16Q3.7 -15.5 3.2 -14.4L1.7 -15.5Q2 -16.1 2.4 -16.6Q2.9 -17.2 3.5 -17.6Q4.1 -18 4.9 -18.2Q5.6 -18.5 6.6 -18.5Q7.7 -18.5 8.7 -18.2Q9.6 -17.9 10.2 -17.4Q10.9 -16.8 11.2 -15.9Q11.6 -15.1 11.6 -13.9Q11.6 -13 11.3 -12.3Q11 -11.5 10.6 -11Q10.2 -10.5 9.6 -10.2Q9 -9.8 8.3 -9.7V-9.4Q9 -9.4 9.7 -9Q10.3 -8.7 10.8 -8.2Q11.3 -7.6 11.6 -6.8Q11.9 -6 11.9 -5Q11.9 -2.5 10.4 -1.1Q9 0.3 6.3 0.3Q5.3 0.3 4.4 0.1Q3.6 -0.2 3 -0.6Q2.3 -1 1.8 -1.6Q1.4 -2.1 1 -2.7L2.5 -3.9Q3.1 -2.8 4 -2.2Q4.8 -1.5 6.3 -1.5Q8 -1.5 8.8 -2.4Q9.7 -3.2 9.7 -4.9V-5.3Q9.7 -7 8.8 -7.8Q8 -8.6 6.3 -8.6H4.3V-10.4Z"/><path id="hero-g-cond-26-52" d="M8.7 0V-3.6H0.9V-5.4L7.6 -18.1H10.7V-5.3H13V-3.6H10.7V0ZM2.8 -5.3H8.7V-16.5H8.4Z"/><path id="hero-g-cond-26-70" d="M2.2 0V-18.1H12V-16.3H4.2V-10.1H11.3V-8.3H4.2V0Z"/><path id="hero-g-cond-26-108" d="M4 0Q2.9 0 2.5 -0.5Q2 -1 2 -2V-19.2H4V-1.7H5.6V0Z"/><path id="hero-g-cond-26-48" d="M7 0.3Q5.5 0.3 4.5 -0.2Q3.4 -0.7 2.7 -1.9Q2 -3 1.7 -4.8Q1.4 -6.6 1.4 -9.1Q1.4 -11.6 1.7 -13.4Q2 -15.2 2.7 -16.3Q3.4 -17.4 4.5 -17.9Q5.5 -18.5 7 -18.5Q8.5 -18.5 9.6 -17.9Q10.6 -17.4 11.3 -16.3Q12 -15.2 12.3 -13.4Q12.7 -11.6 12.7 -9.1Q12.7 -6.6 12.3 -4.8Q12 -3 11.3 -1.9Q10.6 -0.7 9.6 -0.2Q8.5 0.3 7 0.3ZM7 -1.5Q8.9 -1.5 9.7 -2.8Q10.5 -4.2 10.5 -6.6V-11.6Q10.5 -14 9.7 -15.3Q8.9 -16.7 7 -16.7Q5.1 -16.7 4.3 -15.3Q3.5 -14 3.5 -11.6V-6.6Q3.5 -4.2 4.3 -2.8Q5.1 -1.5 7 -1.5Z"/><path id="hero-g-cond-26-115" d="M5.7 0.3Q4 0.3 2.8 -0.4Q1.7 -1 0.8 -2.2L2.2 -3.4Q2.9 -2.4 3.7 -1.9Q4.5 -1.4 5.7 -1.4Q6.9 -1.4 7.6 -1.9Q8.2 -2.5 8.2 -3.6Q8.2 -4.5 7.8 -5Q7.4 -5.6 6.2 -5.8L5.1 -6Q3.2 -6.3 2.2 -7.2Q1.3 -8.1 1.3 -9.8Q1.3 -10.8 1.6 -11.6Q1.9 -12.3 2.5 -12.8Q3.1 -13.3 3.9 -13.5Q4.7 -13.7 5.6 -13.7Q7.1 -13.7 8.1 -13.2Q9.2 -12.6 9.9 -11.6L8.6 -10.5Q8.2 -11.1 7.5 -11.6Q6.7 -12 5.6 -12Q3.2 -12 3.2 -9.9Q3.2 -8.9 3.7 -8.4Q4.2 -8 5.4 -7.8L6.4 -7.6Q8.4 -7.2 9.3 -6.3Q10.2 -5.4 10.2 -3.8Q10.2 -1.9 9 -0.8Q7.9 0.3 5.7 0.3Z"/><path id="hero-g-cond-26-46" d="M3.2 0.3Q1.7 0.3 1.7 -1V-1.4Q1.7 -2.8 3.2 -2.8Q4.8 -2.8 4.8 -1.4V-1Q4.8 0.3 3.2 0.3Z"/><path id="hero-g-cond-26-183" d="M3.8 -6.4Q2.3 -6.4 2.3 -7.7V-8.1Q2.3 -9.4 3.8 -9.4Q5.4 -9.4 5.4 -8.1V-7.7Q5.4 -6.4 3.8 -6.4Z"/><path id="hero-g-cond-26-121" d="M9.3 -13.4H11.2L5.9 3.4Q5.7 4 5.5 4.3Q5.4 4.7 5.1 4.8Q4.8 5 4.4 5.1Q4.1 5.2 3.5 5.2H2V3.5H4.1L4.9 0.7L0.4 -13.4H2.4L4.4 -6.7L5.7 -1.7H6L7.2 -6.7Z"/><path id="hero-g-cond-30-67" d="M9.2 0.4Q7.4 0.4 6 -0.3Q4.6 -0.9 3.6 -2.2Q2.6 -3.6 2.1 -5.6Q1.6 -7.7 1.6 -10.5Q1.6 -13.3 2.1 -15.3Q2.6 -17.4 3.6 -18.7Q4.6 -20 6 -20.7Q7.4 -21.3 9.2 -21.3Q11.7 -21.3 13.3 -20.2Q14.8 -19.1 15.8 -16.9L13.8 -15.7Q13.3 -17.4 12.2 -18.3Q11.1 -19.2 9.2 -19.2Q6.8 -19.2 5.4 -17.4Q4.1 -15.7 4.1 -12.8V-8.1Q4.1 -5.2 5.4 -3.5Q6.8 -1.8 9.2 -1.8Q11.2 -1.8 12.3 -2.7Q13.4 -3.7 14 -5.5L15.9 -4.3Q15 -2 13.4 -0.8Q11.7 0.4 9.2 0.4Z"/><path id="hero-g-cond-30-82" d="M4.9 0H2.5V-20.9H10.2Q15.4 -20.9 15.4 -15Q15.4 -9.9 11.7 -9.2L15.9 0H13.2L9.3 -9H4.9ZM10.1 -11Q12.8 -11 12.8 -13.9V-16Q12.8 -18.8 10.1 -18.8H4.9V-11Z"/><path id="hero-g-cond-30-65" d="M14.3 0 12.4 -6.3H4.9L3 0H0.6L7.2 -20.9H10.2L16.7 0ZM9.4 -16.2 8.8 -18.8H8.5L7.8 -16.2L5.5 -8.2H11.9Z"/><path id="hero-g-cond-30-87" d="M5.2 0 0.6 -20.9H3.1L5.9 -7.4L6.6 -2.4H6.9L7.7 -7.4L10.5 -20.9H13.8L16.6 -7.4L17.4 -2.4H17.7L18.4 -7.4L21.2 -20.9H23.7L18.9 0H15.9L13 -13.5L12.3 -18.8H12L11.2 -13.5L8.2 0Z"/><path id="hero-g-cond-30-76" d="M2.5 0V-20.9H4.9V-2.1H12.8V0Z"/><path id="hero-g-cond-30-78" d="M6.8 -13.6 4.9 -17.9H4.6L4.8 -13.6V0H2.5V-20.9H5.4L12.4 -7.3L14.2 -3H14.5L14.3 -7.3V-20.9H16.6V0H13.7Z"/><path id="hero-g-cond-30-68" d="M2.5 -20.9H9.1Q12.7 -20.9 14.7 -18.4Q16.6 -15.9 16.6 -10.5Q16.6 -5 14.7 -2.5Q12.7 0 9.1 0H2.5ZM9.1 -2.1Q11.3 -2.1 12.7 -3.7Q14.1 -5.2 14.1 -8.1V-12.8Q14.1 -15.7 12.7 -17.3Q11.3 -18.8 9.1 -18.8H4.9V-2.1Z"/><path id="hero-g-cond-30-84" d="M8.9 -18.8V0H6.5V-18.8H0.6V-20.9H14.8V-18.8Z"/><path id="hero-g-cond-30-73" d="M1.6 0V-2H4.2V-19H1.6V-20.9H9.3V-19H6.6V-2H9.3V0Z"/><path id="hero-g-cond-30-70" d="M2.5 0V-20.9H13.8V-18.8H4.9V-11.6H13V-9.5H4.9V0Z"/><path id="hero-g-cond-30-83" d="M7.8 0.4Q5.6 0.4 3.9 -0.6Q2.2 -1.5 1.1 -3.2L2.9 -4.6Q3.8 -3.2 5 -2.5Q6.2 -1.7 7.8 -1.7Q12.1 -1.7 12.1 -5.7Q12.1 -7.3 11.3 -8.2Q10.5 -9 8.6 -9.5L7 -9.9Q4.3 -10.6 3 -11.9Q1.7 -13.2 1.7 -15.7Q1.7 -18.4 3.4 -19.9Q5.2 -21.3 8 -21.3Q10.2 -21.3 11.7 -20.5Q13.2 -19.7 14.3 -17.9L12.5 -16.7Q11.7 -17.9 10.7 -18.6Q9.7 -19.2 7.9 -19.2Q6 -19.2 5 -18.4Q4 -17.6 4 -15.7Q4 -14.1 4.8 -13.3Q5.7 -12.6 7.5 -12.1L9.1 -11.7Q10.5 -11.4 11.6 -10.9Q12.6 -10.4 13.2 -9.7Q13.9 -8.9 14.1 -8Q14.4 -7 14.4 -5.7Q14.4 -2.7 12.7 -1.2Q10.9 0.4 7.8 0.4Z"/><path id="hero-g-cond-30-85" d="M4.7 -20.9V-7.4Q4.7 -6 5 -4.9Q5.2 -3.9 5.7 -3.2Q6.2 -2.5 7.1 -2.1Q7.9 -1.8 9.2 -1.8Q11.6 -1.8 12.6 -3.2Q13.6 -4.6 13.6 -7.4V-20.9H16V-7.9Q16 -5.8 15.6 -4.2Q15.2 -2.7 14.4 -1.6Q13.7 -0.6 12.3 -0.1Q11 0.4 9.2 0.4Q7.3 0.4 6 -0.1Q4.6 -0.6 3.9 -1.6Q3.1 -2.7 2.7 -4.2Q2.3 -5.8 2.3 -7.9V-20.9Z"/><path id="hero-g-cond-30-69" d="M2.5 0V-20.9H14.1V-18.8H4.9V-11.6H13.5V-9.5H4.9V-2.1H14.1V0Z"/><path id="hero-g-cond-30-80" d="M2.5 0V-20.9H10.2Q15.4 -20.9 15.4 -15Q15.4 -9 10.2 -9H4.9V0ZM4.9 -11.1H10.1Q12.8 -11.1 12.8 -14V-16Q12.8 -18.8 10.1 -18.8H4.9Z"/><path id="hero-g-cond-30-89" d="M6.8 0V-8.3L0.3 -20.9H3.1L7.9 -11H8.2L13 -20.9H15.7L9.2 -8.3V0Z"/><path id="hero-g-cond-30-72" d="M14.2 -9.5H4.9V0H2.5V-20.9H4.9V-11.6H14.2V-20.9H16.6V0H14.2Z"/><path id="hero-g-cond-30-79" d="M9.6 0.4Q5.8 0.4 3.7 -2.2Q1.6 -4.9 1.6 -10.5Q1.6 -16.1 3.7 -18.7Q5.8 -21.3 9.6 -21.3Q13.4 -21.3 15.5 -18.7Q17.6 -16.1 17.6 -10.5Q17.6 -4.9 15.5 -2.2Q13.4 0.4 9.6 0.4ZM9.6 -1.8Q12.2 -1.8 13.6 -3.5Q15 -5.2 15 -8.1V-12.8Q15 -15.7 13.6 -17.4Q12.2 -19.2 9.6 -19.2Q7 -19.2 5.5 -17.4Q4.1 -15.7 4.1 -12.8V-8.1Q4.1 -5.2 5.5 -3.5Q7 -1.8 9.6 -1.8Z"/><path id="hero-g-cond-26-58" d="M3.4 0.3Q1.8 0.3 1.8 -1V-1.4Q1.8 -2.8 3.4 -2.8Q4.9 -2.8 4.9 -1.4V-1Q4.9 0.3 3.4 0.3ZM3.4 -10.5Q1.8 -10.5 1.8 -11.8V-12.2Q1.8 -13.6 3.4 -13.6Q4.9 -13.6 4.9 -12.2V-11.8Q4.9 -10.5 3.4 -10.5Z"/></defs><rect width="720" height="1226" fill="#F4EEE1"/><rect width="720" height="1226" fill="url(#hero-paper-wipe)"/><rect x="14" y="14" width="692" height="1198" fill="none" stroke="#1B2A41" stroke-width="1.3" stroke-linecap="butt" stroke-linejoin="round" stroke-opacity=".16"/><rect x="15" y="15" width="690" height="1196" fill="none" stroke="#1B2A41" stroke-width="1.3" stroke-linecap="butt" stroke-linejoin="round" stroke-opacity=".08"/><rect x="16" y="16" width="688" height="1194" fill="none" stroke="#1B2A41" stroke-width="1.3" stroke-linecap="butt" stroke-linejoin="round" stroke-opacity=".04"/><path d="M14 14L706 14M706 14L706 1212M14 1212L706 1212M14 14L14 1212" fill="none" stroke="#1B2A41" stroke-width="2.1" stroke-linecap="butt" stroke-linejoin="round" stroke-opacity=".90"/><path d="M19 19L701 19M701 19L701 1207M19 1207L701 1207M19 19L19 1207" fill="none" stroke="#1B2A41" stroke-width="0.8" stroke-linecap="butt" stroke-linejoin="round" stroke-opacity=".60"/><path d="M19 14h20v5h-20zM59 14h20v5h-20zM99 14h20v5h-20zM139 14h20v5h-20zM179 14h20v5h-20zM219 14h20v5h-20zM259 14h20v5h-20zM299 14h20v5h-20zM339 14h20v5h-20zM379 14h20v5h-20zM419 14h20v5h-20zM459 14h20v5h-20zM499 14h20v5h-20zM539 14h20v5h-20zM579 14h20v5h-20zM619 14h20v5h-20zM659 14h20v5h-20zM19 1207h20v5h-20zM59 1207h20v5h-20zM99 1207h20v5h-20zM139 1207h20v5h-20zM179 1207h20v5h-20zM219 1207h20v5h-20zM259 1207h20v5h-20zM299 1207h20v5h-20zM339 1207h20v5h-20zM379 1207h20v5h-20zM419 1207h20v5h-20zM459 1207h20v5h-20zM499 1207h20v5h-20zM539 1207h20v5h-20zM579 1207h20v5h-20zM619 1207h20v5h-20zM659 1207h20v5h-20zM14 19h5v20h-5zM14 59h5v20h-5zM14 99h5v20h-5zM14 139h5v20h-5zM14 179h5v20h-5zM14 219h5v20h-5zM14 259h5v20h-5zM14 299h5v20h-5zM14 339h5v20h-5zM14 379h5v20h-5zM14 419h5v20h-5zM14 459h5v20h-5zM14 499h5v20h-5zM14 539h5v20h-5zM14 579h5v20h-5zM14 619h5v20h-5zM14 659h5v20h-5zM14 699h5v20h-5zM14 739h5v20h-5zM14 779h5v20h-5zM14 819h5v20h-5zM14 859h5v20h-5zM14 899h5v20h-5zM14 939h5v20h-5zM14 979h5v20h-5zM14 1019h5v20h-5zM14 1059h5v20h-5zM14 1099h5v20h-5zM14 1139h5v20h-5zM14 1179h5v20h-5zM701 19h5v20h-5zM701 59h5v20h-5zM701 99h5v20h-5zM701 139h5v20h-5zM701 179h5v20h-5zM701 219h5v20h-5zM701 259h5v20h-5zM701 299h5v20h-5zM701 339h5v20h-5zM701 379h5v20h-5zM701 419h5v20h-5zM701 459h5v20h-5zM701 499h5v20h-5zM701 539h5v20h-5zM701 579h5v20h-5zM701 619h5v20h-5zM701 659h5v20h-5zM701 699h5v20h-5zM701 739h5v20h-5zM701 779h5v20h-5zM701 819h5v20h-5zM701 859h5v20h-5zM701 899h5v20h-5zM701 939h5v20h-5zM701 979h5v20h-5zM701 1019h5v20h-5zM701 1059h5v20h-5zM701 1099h5v20h-5zM701 1139h5v20h-5zM701 1179h5v20h-5z" fill="#1B2A41" fill-opacity=".85"/><path d="M36 1142v4M47.3 1142v4M58.6 1142v4M69.8 1142v4M81.1 1142v4M92.4 1142v4M103.7 1142v4M115 1142v4M126.2 1142v4M137.5 1142v4M148.8 1142v4M160.1 1142v4M171.4 1142v4M182.6 1142v4M193.9 1142v4M205.2 1142v4M216.5 1142v4M227.8 1142v4M239 1142v4M250.3 1142v4M261.6 1142v4M272.9 1142v4M284.2 1142v4M295.4 1142v4M306.7 1142v4M318 1142v4M329.3 1142v4M340.6 1142v4M351.8 1142v4M363.1 1142v4M374.4 1142v4M385.7 1142v4M397 1142v4M408.2 1142v4M419.5 1142v4M430.8 1142v4M442.1 1142v4M453.3 1142v4M464.6 1142v4M475.9 1142v4M487.2 1142v4M498.5 1142v4M509.7 1142v4M521 1142v4M532.3 1142v4M543.6 1142v4M554.9 1142v4M566.1 1142v4M577.4 1142v4M588.7 1142v4M600 1142v4M611.3 1142v4M622.5 1142v4M633.8 1142v4M645.1 1142v4M656.4 1142v4M667.7 1142v4M678.9 1142v4" fill="none" stroke="#34465F" stroke-width="0.8" stroke-linecap="butt" stroke-linejoin="round" stroke-opacity=".70"/><path d="M36 1142H687M36 1142v8M84.3 1142v8M134.3 1142v8M182.6 1142v8M232.6 1142v8M282.5 1142v8M327.7 1142v8M377.6 1142v8M426 1142v8M475.9 1142v8M524.3 1142v8M574.2 1142v8M624.2 1142v8M672.5 1142v8M687 1142v16" fill="none" stroke="#34465F" stroke-width="1.3" stroke-linecap="butt" stroke-linejoin="round" stroke-opacity=".90"/><path d="M63 519l2 -5l2 -10l2 -2l2 -1l2 -2l2 -2l2 -2l2 -2l2 -1l2 -1h2h2h2h2l2 1l2 2l2 1l3 1h2l2 1h2h2h2h2l2 1l2 1l2 3l2 12l2 5l-2 5l-2 11l-2 4l-2 1l-2 1l-2 1h-2h-2l-2 -1h-2h-2l-3 2l-2 2h-2l-2 1l-2 1h-2h-2h-2l-2 -1l-2 -1l-2 -2l-2 -2l-2 -3l-2 -1l-2 -1l-2 -3l-2 -9ZM638 519l2 -5l2 -5l2 -1l2 -2h2h2h2h2l2 1l2 1h2l2 1h3h2l2 1l2 1l2 3l2 5l-2 5l-2 3l-2 1l-2 1h-2h-3l-2 1l-2 1h-2h-2l-2 1h-2h-2l-2 -1l-2 -1l-2 -1l-2 -5ZM672 519l2 -5l2 -3l2 -1l2 -1h2h2h2l2 1l2 1l2 3l2 5l-2 5l-2 2l-2 1l-2 1h-2h-2h-2h-2l-2 -2l-2 -2ZM108 615l2 -5l2 -10l2 -2l2 -1l2 -1l2 -1h2l2 1l2 1h2l2 1h2l2 -2l2 -1l2 -1l2 -1h2h2h2h2l2 1l2 1l2 2l2 2l2 1l2 1h2l2 2l2 1l2 1h2l2 1l2 2l2 2l2 5l-2 5l-2 3l-2 1l-2 1h-2h-2l-2 1l-2 2l-2 1l-2 1l-2 1l-2 2l-2 1l-2 1l-2 1l-2 1h-2h-2h-2l-2 -1l-2 -1l-2 -1l-2 -2h-2h-2l-2 1l-2 1h-2h-2h-2l-2 -1l-2 -2l-2 -2l-2 -9ZM198 615l2 -5l2 -2l3 -2h2l2 -1l2 -1h2l2 1l2 1l2 2l2 2l2 5l-2 5l-2 2l-2 2h-2l-2 1h-2h-2h-2l-2 -1l-3 -2l-2 -2ZM435 615l2 -5l2 -3l2 -1l2 -1h3h2h2h2l2 1l2 1l2 3l2 5l-2 5l-2 3l-2 2h-2h-2h-2h-2h-3l-2 -2l-2 -1l-2 -2ZM570 615l3 -5l2 -3l2 -2h2h2h2h2h2l2 1l2 1l3 3l2 5l-2 5l-3 3l-2 1l-2 1h-2h-2h-2l-2 -1l-2 -1l-2 -1l-2 -2ZM198 711l2 -5l2 -2l2 -2h2l2 -1h2h2h2h2h3h2h2h2l2 1l2 1l2 1l2 2l2 5l-2 5l-2 2l-2 2l-2 1h-2h-2h-2h-2h-3h-2h-2h-2h-2h-2l-2 -1l-2 -1l-2 -3ZM232 711l2 -5l2 -3l2 -1l2 -1h3h2h2h2l2 1l2 2l2 2l2 5l-2 5l-2 2l-2 2h-2l-2 1h-2h-2h-3l-2 -1l-2 -2l-2 -2ZM616 711l2 -5l2 -9l2 -3l2 -2h2h2h2l2 1h2l2 2l2 1l3 1l2 2h2h2l2 1h2l2 1l2 1h2l2 2l2 2l2 5l-2 5l-2 2l-2 1l-2 1l-2 1l-2 1h-2h-2l-2 1l-2 1l-2 1h-3l-2 1l-2 1l-2 2l-2 1h-2h-2h-2l-2 -2l-2 -2l-2 -10ZM672 711l2 -5l2 -3l2 -1l2 -1l2 -1h2l2 1l2 1l2 2l2 2l2 5l-2 5l-2 3l-2 1l-2 1h-2h-2h-2l-2 -1l-2 -1l-2 -3ZM221 807l2 -5l2 -2l2 -1l2 -2l2 -2l2 -3l2 -2l2 -3l2 -1l3 -1l2 -1h2l2 1l2 1l2 2l2 1l2 2l2 2l2 1l2 2l2 2l3 4l2 5l-2 5l-3 5l-2 2l-2 1l-2 1l-2 3l-2 1l-2 2l-2 1l-2 1h-2h-2h-2l-3 -1l-2 -2l-2 -2l-2 -3l-2 -3l-2 -2h-2l-2 -2l-2 -2ZM108 903l2 -5l2 -10l2 -2l2 -1l2 -1h2h2l2 1h2l2 2l2 1l2 1l2 1l2 1l2 1l2 1l2 5l3 5l-3 5l-2 5l-2 2h-2l-2 1l-2 1l-2 1l-2 1l-2 1l-2 1l-2 1h-2h-2l-2 -1l-2 -1l-2 -2l-2 -10ZM63 999l2 -5l2 -4l2 -2l2 -1l2 -1h2l3 1h2l2 1l2 1l2 5l2 5l-2 5l-2 5l-2 2h-2l-2 1h-3h-2h-2l-2 -2l-2 -1l-2 -5ZM108 999l2 -5l2 -2l2 -2h2l2 -1h2l2 -1l2 -1l2 -1h2h2h2h2l2 1l2 1l2 2l2 4l3 5l-3 5l-2 5l-2 1l-2 1l-2 1h-2h-2l-2 -1l-2 -1h-2h-2h-2l-2 -1h-2l-2 -1l-2 -1l-2 -3Z" fill="#D8E7F1"/><path d="M119 1095l2 -5l2 -2l2 -2l2 -1h2l2 -1l3 -2l2 -1l2 -1l2 -1l2 -1h2h2l2 1l2 -1h2h2h2l2 1l2 1l2 1l2 1l2 2l2 1h2l2 1l2 1l2 3l2 5l-2 5l-2 2l-2 2h-2h-2l-2 2l-2 2l-2 1l-2 1l-2 1h-2h-2h-2h-2l-2 1h-2l-2 -1h-2h-2l-2 -1l-2 -1l-2 -1l-3 -2l-2 -1h-2l-2 -1l-2 -1l-2 -3ZM198 1095l2 -5l2 -2l2 -2h2h2h2l2 -1h2l2 -1h2l2 1l2 -1h2l2 -1l2 -1h2h2l2 -1h2l2 1h2h2h2h2l2 -1l2 -1l3 -1h2l2 -1h2l2 1l2 2l2 2l2 7l2 5l-2 5l-2 7l-2 2h-2l-2 2h-2h-2h-2l-3 -1l-2 -1l-2 -1h-2h-2h-2l-2 1h-2h-2h-2h-2l-2 -1l-2 -1l-2 -1l-2 -1l-2 1h-2l-2 -1h-2h-2h-2h-2h-2l-2 -1l-2 -1l-2 -3ZM458 1095l2 -5l2 -2l2 -2l2 -1h2h2h2l2 1h3l2 2l2 2l2 5l-2 5l-2 2l-2 2h-3l-2 1h-2h-2h-2l-2 -1l-2 -1l-2 -3ZM559 1095l2 -5l2 -2l2 -1l2 -2h2h2l2 -1h2l2 -1h2l2 -1h3h2l2 1l2 1l2 1l2 5l2 5l-2 5l-2 5l-2 2h-2l-2 1h-2h-3l-2 -1h-2l-2 -1h-2l-2 -1h-2h-2l-2 -1l-2 -1l-2 -3ZM638 1095l2 -5l2 -7l2 -2l2 -2h2h2l2 1h2l2 1l2 1l2 2h2l3 1h2l2 2l2 1l2 2l2 5l-2 5l-2 3l-2 1l-2 1h-2l-3 1l-2 1l-2 1l-2 1l-2 1l-2 1h-2h-2h-2l-2 -2l-2 -2l-2 -7ZM672 1095l2 -5l2 -5l2 -2l2 -1l2 -1h2l2 1l2 1l2 2l2 5l2 5l-2 5l-2 5l-2 1l-2 1h-2h-2h-2l-2 -1l-2 -1l-2 -5Z" fill="#D8E7F1" fill-opacity=".50"/><path d="M66 519l2 -3l2 -10l2 -2l2 -1l2 -3l2 -1l2 -2l2 -2h2l2 -1l2 1h2l2 1l2 1l2 2l2 1l2 -1l2 1l2 1l2 -1l2 1h2h2l2 3l2 12l2 3l-2 3l-2 12l-2 3l-2 1h-2h-2h-2h-2h-2h-2h-2l-2 3l-2 1l-2 1h-2l-2 1l-2 -1h-2l-2 -2l-2 -2l-2 -3l-2 -1l-2 -1l-2 -3l-2 -9ZM642 519l2 -5l2 -3l2 -2h2h2l2 1l2 1h2l3 1h2h2l2 1l2 2l2 4l-2 4l-2 2h-2l-2 1h-2l-3 1h-2l-2 1l-2 1l-2 -1h-2l-2 -1l-2 -2ZM675 519l3 -4l2 -2l2 -1h2l2 1l2 2l2 4l-2 3l-2 2l-2 1h-2h-2l-2 -3ZM111 615l3 -10l2 -3l2 -2l2 -1h2l2 1h2l2 1l2 1h2h2l2 -2l2 -2l2 -1l2 -1h2h2l2 1l2 1l2 2l2 2l2 1l2 1l3 1l2 1l2 1l2 1l2 1h2l2 3l2 3l-2 3l-2 3h-2l-2 1h-2l-2 1l-2 2l-3 1l-2 1l-2 1l-2 2l-2 1l-2 1l-2 1l-2 1h-2l-2 -1l-2 -1l-2 -2l-2 -1l-2 -1h-2h-2l-2 1l-2 2h-2l-2 -1h-2l-2 -3l-2 -2ZM202 615l2 -3l2 -2l2 -1h2l2 -1h2l2 2l2 2l2 3l-2 3l-2 3h-2h-2h-2h-2h-2l-2 -3ZM439 615l2 -3l2 -3h2l2 -1l2 1h2h2l2 3l2 3l-2 3l-2 3l-2 1h-2h-2l-2 -1l-2 -1l-2 -2ZM574 615l2 -3l2 -3l2 -1l2 1h2h2h2l2 3l2 3l-2 3l-2 3h-2h-2h-2h-2l-2 -1l-2 -2ZM202 711l2 -3l2 -3h2l2 -1h2l2 1l2 -1h3h2h2l2 1l2 1l2 2l2 3l-2 3l-2 3l-2 1h-2h-2h-2h-3l-2 -1h-2h-2h-2h-2l-2 -3ZM236 711l2 -3l2 -3h2l2 -1h2l2 1l2 1l2 2l2 3l-2 3l-2 2l-2 1l-2 1h-2l-2 -1h-2l-2 -3ZM619 711l2 -3l2 -10l2 -2l2 -1l2 1h2l2 1l2 2l2 1l2 1l3 1l2 1h2h2l2 1h2l2 1l2 1l2 2l2 3l-2 3l-2 2l-2 1h-2l-2 1l-2 1h-2h-2l-2 2h-3l-2 1l-2 1l-2 1l-2 1l-2 1l-2 1l-2 -1l-2 -2l-2 -10ZM675 711l3 -4l2 -2l2 -1h2l2 1l2 3l2 3l-2 4l-2 2h-2h-2h-2l-2 -2ZM224 807l2 -3l2 -2l2 -1l2 -1l2 -4l3 -2l2 -3l2 -2l2 -1h2h2l2 1l2 2l2 2l2 3l2 1l2 1l2 1l2 5l2 3l-2 3l-2 5l-2 2h-2l-2 2l-2 3l-2 1l-2 2h-2l-2 1l-2 -1h-2l-2 -3l-2 -3l-3 -3l-2 -2l-2 -1h-2l-2 -3ZM111 903l3 -10l2 -3l2 -2h2h2h2l2 1l2 2l2 1l3 1l2 1l2 1l2 2l2 6l-2 6l-2 2l-2 1l-2 1l-3 1l-2 1l-2 1l-2 1l-2 1h-2h-2l-2 -2l-2 -2ZM66 999l2 -3l2 -5l2 -1h2h2l3 1h2l2 5l2 3l-2 3l-2 6h-2l-3 1h-2l-2 -1l-2 -1l-2 -5ZM111 999l3 -3l2 -2l2 -1h2l2 -1l2 -1l2 -1h2h2h3h2l2 1l2 3l2 5l-2 6l-2 2l-2 1h-2l-3 1l-2 -2h-2h-2h-2l-2 -2h-2h-2l-2 -3Z" fill="#BEDAEC"/><path d="M123 1095l2 -3l2 -2l2 -1l2 -1l2 -1l2 -1l2 -1l2 -1l2 -2h2l2 -1l2 1h2l2 -1l2 1h2h2l2 2l2 1l2 1l2 1l2 1l2 1h2l2 3l2 3l-2 3l-2 3h-2h-2l-2 1l-2 1l-2 3h-2l-2 1l-2 1h-2l-2 -1l-2 1h-2h-2h-2h-2l-2 -1l-2 -2h-2l-2 -2l-2 -2h-2h-2l-2 -3ZM202 1095l2 -3l2 -3h2h2h2h2l2 -1h2h2h2h2l2 -1l2 -1l2 -1h2h2h2h3h2h2h2h2h2l2 -1l2 -1h2l2 -1h2l2 3l2 3l2 7l-2 8l-2 3h-2l-2 2h-2l-2 -1l-2 -1l-2 -1h-2l-2 -1h-2h-2l-2 1h-3h-2h-2h-2l-2 -1l-2 -1l-2 -1l-2 -1l-2 1h-2h-2h-2l-2 -1h-2h-2h-2l-2 -3ZM461 1095l2 -3l2 -3h2h2h2h2l2 1l2 2l2 3l-2 3l-2 3h-2h-2h-2h-2h-2l-2 -3ZM563 1095l2 -3l2 -2l2 -2h2h2h2l2 -1h3l2 -2l2 1h2l2 1l2 2l2 6l-2 6l-2 2l-2 1h-2h-2h-2l-3 -1h-2l-2 -1l-2 -1h-2h-2l-2 -3ZM642 1095l2 -8l2 -2l2 -2l2 -1l2 1l2 1l2 1l2 2h3l2 1h2l2 2l2 2l2 3l-2 4l-2 2h-2l-2 1h-2l-3 2l-2 1l-2 1l-2 1l-2 1h-2l-2 -3l-2 -3ZM675 1095l3 -6l2 -2l2 -2h2l2 2l2 2l2 6l-2 6l-2 2l-2 1h-2l-2 -1l-2 -2Z" fill="#BEDAEC" fill-opacity=".50"/><path d="M70 519c0 -3 1 -8 2 -10c1 -2 1 -1 2 -2c1 -1 1 -1 2 -1c1 0 1 -1 2 -2c1 -1 1 -1 2 -2c1 -1 1 -1 2 -2c1 -1 1 -2 2 -2c1 0 1 0 2 0c1 0 1 0 2 0c1 0 1 0 2 0c1 0 1 1 2 2c1 1 1 2 2 2c1 0 2 1 3 1c1 0 1 1 2 1c1 0 1 -1 2 -1c1 0 1 1 2 1c1 0 1 0 2 0c1 0 1 0 2 0c1 0 1 0 2 0c1 0 1 0 2 0c1 0 1 0 2 3c1 3 2 8 2 12c0 4 -1 9 -2 12c-1 3 -1 2 -2 3c-1 1 -1 1 -2 1c-1 0 -1 0 -2 0c-1 0 -1 -1 -2 -1c-1 0 -1 1 -2 1c-1 0 -1 -1 -2 -1c-1 0 -1 0 -2 0c-1 0 -1 0 -2 0c-1 0 -2 0 -3 1c-1 1 -1 2 -2 3c-1 1 -1 1 -2 1c-1 0 -1 1 -2 1c-1 0 -1 0 -2 0c-1 0 -1 0 -2 0c-1 0 -1 -1 -2 -2c-1 -1 -1 -1 -2 -2c-1 -1 -1 -2 -2 -3c-1 -1 -1 -1 -2 -1c-1 0 -1 0 -2 -1c-1 -1 -1 -1 -2 -3c-1 -2 -2 -6 -2 -9ZM645 519c0 -2 1 -4 2 -5c1 -1 1 -1 2 -1c1 0 1 0 2 0c1 0 1 1 2 1c1 0 1 0 2 0c1 0 1 1 2 1c1 0 1 0 2 0c1 0 2 1 3 1c1 0 1 0 2 0c1 0 1 0 2 0c1 0 2 2 2 3c0 1 -1 3 -2 3c-1 0 -1 0 -2 0c-1 0 -1 0 -2 0c-1 0 -2 1 -3 1c-1 0 -1 1 -2 1c-1 0 -1 -1 -2 -1c-1 0 -1 1 -2 1c-1 0 -1 1 -2 1c-1 0 -1 0 -2 0c-1 0 -1 0 -2 -1c-1 -1 -2 -3 -2 -5ZM679 519c0 -1 1 -2 2 -3c1 -1 1 -1 2 -1c1 0 1 0 2 1c1 1 2 2 2 3c0 1 -1 2 -2 2c-1 0 -1 0 -2 0c-1 0 -1 0 -2 0c-1 0 -2 -1 -2 -2Z" fill="#E9DFCA"/><path d="M70 519c0 -3 1 -8 2 -10c1 -2 1 -1 2 -2c1 -1 1 -1 2 -1c1 0 1 -1 2 -2c1 -1 1 -1 2 -2c1 -1 1 -1 2 -2c1 -1 1 -2 2 -2c1 0 1 0 2 0c1 0 1 0 2 0c1 0 1 0 2 0c1 0 1 1 2 2c1 1 1 2 2 2c1 0 2 1 3 1c1 0 1 1 2 1c1 0 1 -1 2 -1c1 0 1 1 2 1c1 0 1 0 2 0c1 0 1 0 2 0c1 0 1 0 2 0c1 0 1 0 2 0c1 0 1 0 2 3c1 3 2 8 2 12c0 4 -1 9 -2 12c-1 3 -1 2 -2 3c-1 1 -1 1 -2 1c-1 0 -1 0 -2 0c-1 0 -1 -1 -2 -1c-1 0 -1 1 -2 1c-1 0 -1 -1 -2 -1c-1 0 -1 0 -2 0c-1 0 -1 0 -2 0c-1 0 -2 0 -3 1c-1 1 -1 2 -2 3c-1 1 -1 1 -2 1c-1 0 -1 1 -2 1c-1 0 -1 0 -2 0c-1 0 -1 0 -2 0c-1 0 -1 -1 -2 -2c-1 -1 -1 -1 -2 -2c-1 -1 -1 -2 -2 -3c-1 -1 -1 -1 -2 -1c-1 0 -1 0 -2 -1c-1 -1 -1 -1 -2 -3c-1 -2 -2 -6 -2 -9ZM645 519c0 -2 1 -4 2 -5c1 -1 1 -1 2 -1c1 0 1 0 2 0c1 0 1 1 2 1c1 0 1 0 2 0c1 0 1 1 2 1c1 0 1 0 2 0c1 0 2 1 3 1c1 0 1 0 2 0c1 0 1 0 2 0c1 0 2 2 2 3c0 1 -1 3 -2 3c-1 0 -1 0 -2 0c-1 0 -1 0 -2 0c-1 0 -2 1 -3 1c-1 0 -1 1 -2 1c-1 0 -1 -1 -2 -1c-1 0 -1 1 -2 1c-1 0 -1 1 -2 1c-1 0 -1 0 -2 0c-1 0 -1 0 -2 -1c-1 -1 -2 -3 -2 -5ZM679 519c0 -1 1 -2 2 -3c1 -1 1 -1 2 -1c1 0 1 0 2 1c1 1 2 2 2 3c0 1 -1 2 -2 2c-1 0 -1 0 -2 0c-1 0 -1 0 -2 0c-1 0 -2 -1 -2 -2Z" fill="none" stroke="#34465F" stroke-width="2.1" stroke-linecap="round" stroke-linejoin="round"/><path d="M70 519c0 -3 1 -8 2 -10c1 -2 1 -1 2 -2c1 -1 1 -1 2 -1c1 0 1 -1 2 -2c1 -1 1 -1 2 -2c1 -1 1 -1 2 -2c1 -1 1 -2 2 -2c1 0 1 0 2 0c1 0 1 0 2 0c1 0 1 0 2 0c1 0 1 1 2 2c1 1 1 2 2 2c1 0 2 1 3 1c1 0 1 1 2 1c1 0 1 -1 2 -1c1 0 1 1 2 1c1 0 1 0 2 0c1 0 1 0 2 0c1 0 1 0 2 0c1 0 1 0 2 0c1 0 1 0 2 3c1 3 2 8 2 12c0 4 -1 9 -2 12c-1 3 -1 2 -2 3c-1 1 -1 1 -2 1c-1 0 -1 0 -2 0c-1 0 -1 -1 -2 -1c-1 0 -1 1 -2 1c-1 0 -1 -1 -2 -1c-1 0 -1 0 -2 0c-1 0 -1 0 -2 0c-1 0 -2 0 -3 1c-1 1 -1 2 -2 3c-1 1 -1 1 -2 1c-1 0 -1 1 -2 1c-1 0 -1 0 -2 0c-1 0 -1 0 -2 0c-1 0 -1 -1 -2 -2c-1 -1 -1 -1 -2 -2c-1 -1 -1 -2 -2 -3c-1 -1 -1 -1 -2 -1c-1 0 -1 0 -2 -1c-1 -1 -1 -1 -2 -3c-1 -2 -2 -6 -2 -9ZM645 519c0 -2 1 -4 2 -5c1 -1 1 -1 2 -1c1 0 1 0 2 0c1 0 1 1 2 1c1 0 1 0 2 0c1 0 1 1 2 1c1 0 1 0 2 0c1 0 2 1 3 1c1 0 1 0 2 0c1 0 1 0 2 0c1 0 2 2 2 3c0 1 -1 3 -2 3c-1 0 -1 0 -2 0c-1 0 -1 0 -2 0c-1 0 -2 1 -3 1c-1 0 -1 1 -2 1c-1 0 -1 -1 -2 -1c-1 0 -1 1 -2 1c-1 0 -1 1 -2 1c-1 0 -1 0 -2 0c-1 0 -1 0 -2 -1c-1 -1 -2 -3 -2 -5ZM679 519c0 -1 1 -2 2 -3c1 -1 1 -1 2 -1c1 0 1 0 2 1c1 1 2 2 2 3c0 1 -1 2 -2 2c-1 0 -1 0 -2 0c-1 0 -1 0 -2 0c-1 0 -2 -1 -2 -2Z" fill="none" transform="translate(0.4 0.4)" stroke="#34465F" stroke-width="1.3" stroke-linecap="round" stroke-linejoin="round" stroke-opacity=".35"/><g clip-path="url(#hero-row0)"><path d="M69.5 513.8l-2.8 -0.6M71.3 508.6l-2.4 -2.3M75.7 505.6l-0.9 -2.6M78.5 501.8l-1.7 -2.2M82 498.2l-1.8 -2.4M87.6 496.8l0.8 -2.6M92.5 498.7l1.9 -2.2M96.6 500.9l1.3 -2.6M100 502l-1.1 -2.5M104.8 502.7l-0.7 -2.8M110.2 502.8l0.4 -3.1M114.6 507.6l3.1 -0.5M114.8 512.6l3 -0.5M116.1 517.5l2.7 -0.5M115.3 522.8l3 0.5M114.7 527.8l2.9 0.5M113.2 533l2.6 1.5M108 536.1l0 2.7M103.3 535.8l0.5 2.9M98.1 535.3l-0.2 3.1M94.6 536.8l2.5 1.8M90.4 540.1l1.1 2.7M85 540.8l-0.8 3.2M80.4 538l-2.1 2.1M76.8 534.2l-2.4 1.7M73.1 531.3l-2.2 1.8M69.9 526.8l-2.7 0.6M68.9 521.9l-2.7 0.6" fill="none" stroke="#34465F" stroke-width="0.8" stroke-linecap="butt" stroke-linejoin="round" stroke-opacity=".45"/><path d="M65.4 513l-1.8 -0.4M67.6 505.2l-1.4 -1.3M74.2 501.5l-0.5 -1.5M75.9 498.4l-1.1 -1.4M79.4 494.7l-1.1 -1.6M88.8 492.9l0.6 -1.9M95.3 495.5l1.1 -1.3M98.5 497.3l0.8 -1.5M98.4 498.3l-0.7 -1.7M103.8 498.8l-0.4 -1.7M110.7 498.5l0.2 -1.7M118.6 506.9l1.7 -0.3M119.6 511.8l1.9 -0.3M120.2 516.8l1.9 -0.3M119.8 523.6l1.9 0.3M119.2 528.6l1.9 0.3M117.1 535.3l1.4 0.8M108 540.5l0 1.7M104.1 540.4l0.3 1.7M97.8 540l-0.1 1.6M98.4 539.6l1.4 1M92.1 544.1l0.7 1.7M83.8 545.4l-0.5 1.9M77.5 540.9l-1.2 1.2M73.1 536.7l-1.6 1.1M70 533.8l-1.3 1M65.9 527.7l-1.8 0.4M64.6 522.8l-1.9 0.4" fill="none" stroke="#34465F" stroke-width="0.8" stroke-linecap="butt" stroke-linejoin="round" stroke-opacity=".28"/></g><path d="M115 615c0 -3 1 -8 2 -10c1 -2 1 -1 2 -2c1 -1 1 -1 2 -1c1 0 1 2 2 2c1 0 1 0 2 0c1 0 1 1 2 1c1 0 1 0 2 0c1 0 1 0 2 0c1 0 1 1 2 1c1 0 1 0 2 -1c1 -1 1 -1 2 -2c1 -1 1 -1 2 -2c1 -1 1 -1 2 -1c1 0 1 0 2 0c1 0 1 0 2 0c1 0 1 1 2 1c1 0 1 1 2 1c1 0 1 2 2 2c1 0 1 1 2 1c1 0 1 1 2 1c1 0 1 1 2 1c1 0 1 1 2 1c1 0 1 2 2 2c1 0 1 0 2 0c1 0 1 1 2 1c1 0 1 1 2 1c1 0 1 0 2 1c1 1 2 1 2 2c0 1 -1 3 -2 3c-1 0 -1 0 -2 0c-1 0 -1 0 -2 0c-1 0 -1 1 -2 1c-1 0 -1 1 -2 1c-1 0 -1 0 -2 1c-1 1 -1 1 -2 2c-1 1 -1 1 -2 1c-1 0 -1 0 -2 0c-1 0 -1 2 -2 3c-1 1 -1 1 -2 1c-1 0 -1 1 -2 1c-1 0 -1 1 -2 1c-1 0 -1 1 -2 1c-1 0 -1 -2 -2 -2c-1 0 -1 1 -2 0c-1 -1 -1 -3 -2 -3c-1 0 -1 0 -2 0c-1 0 -1 -2 -2 -2c-1 0 -1 1 -2 1c-1 0 -1 0 -2 0c-1 0 -1 0 -2 0c-1 0 -1 1 -2 1c-1 0 -1 1 -2 1c-1 0 -1 0 -2 0c-1 0 -1 1 -2 0c-1 -1 -1 -1 -2 -3c-1 -2 -2 -6 -2 -9ZM205 615c0 -1 1 -1 2 -2c1 -1 2 -1 3 -1c1 0 1 -1 2 -1c1 0 1 1 2 2c1 1 2 1 2 2c0 1 -1 3 -2 3c-1 0 -1 0 -2 0c-1 0 -1 0 -2 0c-1 0 -2 0 -3 0c-1 0 -2 -2 -2 -3ZM442 615c0 -1 1 -3 2 -3c1 0 2 0 3 0c1 0 1 0 2 0c1 0 1 0 2 0c1 0 2 2 2 3c0 1 -1 2 -2 3c-1 1 -1 1 -2 1c-1 0 -1 -1 -2 -1c-1 0 -2 0 -3 -1c-1 -1 -2 -1 -2 -2ZM577 615c0 -1 2 -3 3 -3c1 0 1 0 2 0c1 0 1 1 2 1c1 0 1 -1 2 -1c1 0 3 2 3 3c0 1 -2 3 -3 3c-1 0 -1 -1 -2 -1c-1 0 -1 1 -2 1c-1 0 -1 0 -2 -1c-1 -1 -3 -1 -3 -2Z" fill="#E9DFCA"/><path d="M115 615c0 -3 1 -8 2 -10c1 -2 1 -1 2 -2c1 -1 1 -1 2 -1c1 0 1 2 2 2c1 0 1 0 2 0c1 0 1 1 2 1c1 0 1 0 2 0c1 0 1 0 2 0c1 0 1 1 2 1c1 0 1 0 2 -1c1 -1 1 -1 2 -2c1 -1 1 -1 2 -2c1 -1 1 -1 2 -1c1 0 1 0 2 0c1 0 1 0 2 0c1 0 1 1 2 1c1 0 1 1 2 1c1 0 1 2 2 2c1 0 1 1 2 1c1 0 1 1 2 1c1 0 1 1 2 1c1 0 1 1 2 1c1 0 1 2 2 2c1 0 1 0 2 0c1 0 1 1 2 1c1 0 1 1 2 1c1 0 1 0 2 1c1 1 2 1 2 2c0 1 -1 3 -2 3c-1 0 -1 0 -2 0c-1 0 -1 0 -2 0c-1 0 -1 1 -2 1c-1 0 -1 1 -2 1c-1 0 -1 0 -2 1c-1 1 -1 1 -2 2c-1 1 -1 1 -2 1c-1 0 -1 0 -2 0c-1 0 -1 2 -2 3c-1 1 -1 1 -2 1c-1 0 -1 1 -2 1c-1 0 -1 1 -2 1c-1 0 -1 1 -2 1c-1 0 -1 -2 -2 -2c-1 0 -1 1 -2 0c-1 -1 -1 -3 -2 -3c-1 0 -1 0 -2 0c-1 0 -1 -2 -2 -2c-1 0 -1 1 -2 1c-1 0 -1 0 -2 0c-1 0 -1 0 -2 0c-1 0 -1 1 -2 1c-1 0 -1 1 -2 1c-1 0 -1 0 -2 0c-1 0 -1 1 -2 0c-1 -1 -1 -1 -2 -3c-1 -2 -2 -6 -2 -9ZM205 615c0 -1 1 -1 2 -2c1 -1 2 -1 3 -1c1 0 1 -1 2 -1c1 0 1 1 2 2c1 1 2 1 2 2c0 1 -1 3 -2 3c-1 0 -1 0 -2 0c-1 0 -1 0 -2 0c-1 0 -2 0 -3 0c-1 0 -2 -2 -2 -3ZM442 615c0 -1 1 -3 2 -3c1 0 2 0 3 0c1 0 1 0 2 0c1 0 1 0 2 0c1 0 2 2 2 3c0 1 -1 2 -2 3c-1 1 -1 1 -2 1c-1 0 -1 -1 -2 -1c-1 0 -2 0 -3 -1c-1 -1 -2 -1 -2 -2ZM577 615c0 -1 2 -3 3 -3c1 0 1 0 2 0c1 0 1 1 2 1c1 0 1 -1 2 -1c1 0 3 2 3 3c0 1 -2 3 -3 3c-1 0 -1 -1 -2 -1c-1 0 -1 1 -2 1c-1 0 -1 0 -2 -1c-1 -1 -3 -1 -3 -2Z" fill="none" stroke="#34465F" stroke-width="2.1" stroke-linecap="round" stroke-linejoin="round"/><path d="M115 615c0 -3 1 -8 2 -10c1 -2 1 -1 2 -2c1 -1 1 -1 2 -1c1 0 1 2 2 2c1 0 1 0 2 0c1 0 1 1 2 1c1 0 1 0 2 0c1 0 1 0 2 0c1 0 1 1 2 1c1 0 1 0 2 -1c1 -1 1 -1 2 -2c1 -1 1 -1 2 -2c1 -1 1 -1 2 -1c1 0 1 0 2 0c1 0 1 0 2 0c1 0 1 1 2 1c1 0 1 1 2 1c1 0 1 2 2 2c1 0 1 1 2 1c1 0 1 1 2 1c1 0 1 1 2 1c1 0 1 1 2 1c1 0 1 2 2 2c1 0 1 0 2 0c1 0 1 1 2 1c1 0 1 1 2 1c1 0 1 0 2 1c1 1 2 1 2 2c0 1 -1 3 -2 3c-1 0 -1 0 -2 0c-1 0 -1 0 -2 0c-1 0 -1 1 -2 1c-1 0 -1 1 -2 1c-1 0 -1 0 -2 1c-1 1 -1 1 -2 2c-1 1 -1 1 -2 1c-1 0 -1 0 -2 0c-1 0 -1 2 -2 3c-1 1 -1 1 -2 1c-1 0 -1 1 -2 1c-1 0 -1 1 -2 1c-1 0 -1 1 -2 1c-1 0 -1 -2 -2 -2c-1 0 -1 1 -2 0c-1 -1 -1 -3 -2 -3c-1 0 -1 0 -2 0c-1 0 -1 -2 -2 -2c-1 0 -1 1 -2 1c-1 0 -1 0 -2 0c-1 0 -1 0 -2 0c-1 0 -1 1 -2 1c-1 0 -1 1 -2 1c-1 0 -1 0 -2 0c-1 0 -1 1 -2 0c-1 -1 -1 -1 -2 -3c-1 -2 -2 -6 -2 -9ZM205 615c0 -1 1 -1 2 -2c1 -1 2 -1 3 -1c1 0 1 -1 2 -1c1 0 1 1 2 2c1 1 2 1 2 2c0 1 -1 3 -2 3c-1 0 -1 0 -2 0c-1 0 -1 0 -2 0c-1 0 -2 0 -3 0c-1 0 -2 -2 -2 -3ZM442 615c0 -1 1 -3 2 -3c1 0 2 0 3 0c1 0 1 0 2 0c1 0 1 0 2 0c1 0 2 2 2 3c0 1 -1 2 -2 3c-1 1 -1 1 -2 1c-1 0 -1 -1 -2 -1c-1 0 -2 0 -3 -1c-1 -1 -2 -1 -2 -2ZM577 615c0 -1 2 -3 3 -3c1 0 1 0 2 0c1 0 1 1 2 1c1 0 1 -1 2 -1c1 0 3 2 3 3c0 1 -2 3 -3 3c-1 0 -1 -1 -2 -1c-1 0 -1 1 -2 1c-1 0 -1 0 -2 -1c-1 -1 -3 -1 -3 -2Z" fill="none" transform="translate(0.4 0.4)" stroke="#34465F" stroke-width="1.3" stroke-linecap="round" stroke-linejoin="round" stroke-opacity=".35"/><g clip-path="url(#hero-row1)"><path d="M114.4 609.8l-3.1 -0.6M115.7 605l-3.1 -0.6M120.4 601l-1.3 -3M126 603.3l1.7 -2.2M130.3 603.8l0.3 -2.8M134.7 604.1l-0.6 -2.7M137.7 601l-2 -2M142.8 598.8l-0.2 -3M148 599.9l1.3 -2.6M151.9 603.1l1.7 -2.8M156.3 605.3l1.4 -2.7M160.9 607.8l2.2 -2.3M165 609.6l1.4 -3M169.6 611.6l1.3 -2.8M171.1 616.9l2.6 1.9M166.3 619.4l0.6 3.1M161.8 621l1.2 2.9M158.1 623.9l1.5 2.5M153.8 625.5l2.5 2.2M149.4 628.8l0.9 3.1M145.2 631.2l1.3 2.9M139.5 630.4l-1.1 3M135.9 627.6l-0.7 3M132.2 625.9l0.6 3M127.6 626.4l1.1 2.7M122.7 628.8l0.1 3.1M117.1 626.5l-2.4 2.1M115.1 621.4l-2.8 0.6M113.9 616.5l-2.9 0.6" fill="none" stroke="#34465F" stroke-width="0.8" stroke-linecap="butt" stroke-linejoin="round" stroke-opacity=".45"/><path d="M110.2 608.9l-1.7 -0.3M111.2 604l-1.9 -0.4M118.4 596.4l-0.7 -1.7M128.9 599.7l1.1 -1.3M130.8 599.7l0.2 -1.7M133.7 600l-0.4 -1.7M134.6 597.9l-1.2 -1.2M142.5 594l-0.1 -1.8M150 595.9l0.9 -1.8M154.4 599l0.9 -1.4M158.6 601l0.8 -1.5M163.9 604.7l1.4 -1.4M166.9 605.7l0.8 -1.7M171.3 607.8l0.8 -1.7M174.7 619.6l1.4 1M167.3 624.2l0.4 1.9M163.7 625.4l0.7 1.8M160.4 627.7l1 1.6M157.3 628.6l1.2 1.1M150.6 633l0.5 1.9M147 635.5l0.7 1.7M137.9 635.1l-0.6 1.7M135 631.9l-0.4 1.9M133.1 630.3l0.3 1.7M129.1 630.2l0.6 1.5M122.7 633.4l0 1.7M113.4 629.7l-1.3 1.2M111.3 622.2l-1.9 0.4M109.5 617.5l-1.9 0.4" fill="none" stroke="#34465F" stroke-width="0.8" stroke-linecap="butt" stroke-linejoin="round" stroke-opacity=".28"/></g><path d="M205 711c0 -1 1 -3 2 -3c1 0 1 0 2 0c1 0 1 0 2 0c1 0 1 0 2 0c1 0 1 0 2 0c1 0 2 -1 3 -1c1 0 1 1 2 1c1 0 1 0 2 0c1 0 1 1 2 1c1 0 1 0 2 0c1 0 2 1 2 2c0 1 -1 1 -2 2c-1 1 -1 1 -2 1c-1 0 -1 0 -2 0c-1 0 -1 0 -2 0c-1 0 -1 0 -2 0c-1 0 -2 0 -3 0c-1 0 -1 0 -2 0c-1 0 -1 0 -2 0c-1 0 -1 0 -2 0c-1 0 -1 0 -2 0c-1 0 -2 -2 -2 -3ZM239 711c0 -1 1 -3 2 -3c1 0 2 0 3 0c1 0 1 0 2 0c1 0 1 0 2 1c1 1 2 1 2 2c0 1 -1 1 -2 2c-1 1 -1 1 -2 1c-1 0 -1 0 -2 0c-1 0 -2 0 -3 0c-1 0 -2 -2 -2 -3ZM623 711c0 -3 1 -8 2 -10c1 -2 1 -2 2 -2c1 0 1 0 2 0c1 0 1 1 2 1c1 0 1 2 2 2c1 0 1 1 2 1c1 0 1 -1 2 0c1 1 1 3 2 3c1 0 2 0 3 0c1 0 1 0 2 0c1 0 1 0 2 0c1 0 1 1 2 1c1 0 1 0 2 0c1 0 1 1 2 1c1 0 1 0 2 1c1 1 2 1 2 2c0 1 -1 1 -2 2c-1 1 -1 1 -2 1c-1 0 -1 0 -2 0c-1 0 -1 1 -2 1c-1 0 -1 1 -2 1c-1 0 -1 0 -2 0c-1 0 -1 0 -2 0c-1 0 -2 2 -3 2c-1 0 -1 0 -2 0c-1 0 -1 1 -2 1c-1 0 -1 1 -2 1c-1 0 -1 0 -2 1c-1 1 -1 2 -2 2c-1 0 -1 0 -2 0c-1 0 -1 0 -2 -2c-1 -2 -2 -7 -2 -10ZM679 711c0 -1 1 -2 2 -3c1 -1 1 -1 2 -1c1 0 1 1 2 2c1 1 2 1 2 2c0 1 -1 3 -2 3c-1 0 -1 -1 -2 -1c-1 0 -1 1 -2 1c-1 0 -2 -2 -2 -3Z" fill="#E9DFCA"/><path d="M205 711c0 -1 1 -3 2 -3c1 0 1 0 2 0c1 0 1 0 2 0c1 0 1 0 2 0c1 0 1 0 2 0c1 0 2 -1 3 -1c1 0 1 1 2 1c1 0 1 0 2 0c1 0 1 1 2 1c1 0 1 0 2 0c1 0 2 1 2 2c0 1 -1 1 -2 2c-1 1 -1 1 -2 1c-1 0 -1 0 -2 0c-1 0 -1 0 -2 0c-1 0 -1 0 -2 0c-1 0 -2 0 -3 0c-1 0 -1 0 -2 0c-1 0 -1 0 -2 0c-1 0 -1 0 -2 0c-1 0 -1 0 -2 0c-1 0 -2 -2 -2 -3ZM239 711c0 -1 1 -3 2 -3c1 0 2 0 3 0c1 0 1 0 2 0c1 0 1 0 2 1c1 1 2 1 2 2c0 1 -1 1 -2 2c-1 1 -1 1 -2 1c-1 0 -1 0 -2 0c-1 0 -2 0 -3 0c-1 0 -2 -2 -2 -3ZM623 711c0 -3 1 -8 2 -10c1 -2 1 -2 2 -2c1 0 1 0 2 0c1 0 1 1 2 1c1 0 1 2 2 2c1 0 1 1 2 1c1 0 1 -1 2 0c1 1 1 3 2 3c1 0 2 0 3 0c1 0 1 0 2 0c1 0 1 0 2 0c1 0 1 1 2 1c1 0 1 0 2 0c1 0 1 1 2 1c1 0 1 0 2 1c1 1 2 1 2 2c0 1 -1 1 -2 2c-1 1 -1 1 -2 1c-1 0 -1 0 -2 0c-1 0 -1 1 -2 1c-1 0 -1 1 -2 1c-1 0 -1 0 -2 0c-1 0 -1 0 -2 0c-1 0 -2 2 -3 2c-1 0 -1 0 -2 0c-1 0 -1 1 -2 1c-1 0 -1 1 -2 1c-1 0 -1 0 -2 1c-1 1 -1 2 -2 2c-1 0 -1 0 -2 0c-1 0 -1 0 -2 -2c-1 -2 -2 -7 -2 -10ZM679 711c0 -1 1 -2 2 -3c1 -1 1 -1 2 -1c1 0 1 1 2 2c1 1 2 1 2 2c0 1 -1 3 -2 3c-1 0 -1 -1 -2 -1c-1 0 -1 1 -2 1c-1 0 -2 -2 -2 -3Z" fill="none" stroke="#34465F" stroke-width="2.1" stroke-linecap="round" stroke-linejoin="round"/><path d="M205 711c0 -1 1 -3 2 -3c1 0 1 0 2 0c1 0 1 0 2 0c1 0 1 0 2 0c1 0 1 0 2 0c1 0 2 -1 3 -1c1 0 1 1 2 1c1 0 1 0 2 0c1 0 1 1 2 1c1 0 1 0 2 0c1 0 2 1 2 2c0 1 -1 1 -2 2c-1 1 -1 1 -2 1c-1 0 -1 0 -2 0c-1 0 -1 0 -2 0c-1 0 -1 0 -2 0c-1 0 -2 0 -3 0c-1 0 -1 0 -2 0c-1 0 -1 0 -2 0c-1 0 -1 0 -2 0c-1 0 -1 0 -2 0c-1 0 -2 -2 -2 -3ZM239 711c0 -1 1 -3 2 -3c1 0 2 0 3 0c1 0 1 0 2 0c1 0 1 0 2 1c1 1 2 1 2 2c0 1 -1 1 -2 2c-1 1 -1 1 -2 1c-1 0 -1 0 -2 0c-1 0 -2 0 -3 0c-1 0 -2 -2 -2 -3ZM623 711c0 -3 1 -8 2 -10c1 -2 1 -2 2 -2c1 0 1 0 2 0c1 0 1 1 2 1c1 0 1 2 2 2c1 0 1 1 2 1c1 0 1 -1 2 0c1 1 1 3 2 3c1 0 2 0 3 0c1 0 1 0 2 0c1 0 1 0 2 0c1 0 1 1 2 1c1 0 1 0 2 0c1 0 1 1 2 1c1 0 1 0 2 1c1 1 2 1 2 2c0 1 -1 1 -2 2c-1 1 -1 1 -2 1c-1 0 -1 0 -2 0c-1 0 -1 1 -2 1c-1 0 -1 1 -2 1c-1 0 -1 0 -2 0c-1 0 -1 0 -2 0c-1 0 -2 2 -3 2c-1 0 -1 0 -2 0c-1 0 -1 1 -2 1c-1 0 -1 1 -2 1c-1 0 -1 0 -2 1c-1 1 -1 2 -2 2c-1 0 -1 0 -2 0c-1 0 -1 0 -2 -2c-1 -2 -2 -7 -2 -10ZM679 711c0 -1 1 -2 2 -3c1 -1 1 -1 2 -1c1 0 1 1 2 2c1 1 2 1 2 2c0 1 -1 3 -2 3c-1 0 -1 -1 -2 -1c-1 0 -1 1 -2 1c-1 0 -2 -2 -2 -3Z" fill="none" transform="translate(0.4 0.4)" stroke="#34465F" stroke-width="1.3" stroke-linecap="round" stroke-linejoin="round" stroke-opacity=".35"/><path d="M228 807c0 -1 1 -1 2 -2c1 -1 1 -1 2 -1c1 0 1 0 2 -1c1 -1 1 -3 2 -4c1 -1 1 -1 2 -2c1 -1 1 -2 2 -3c1 -1 2 -2 3 -2c1 0 1 -1 2 -1c1 0 1 1 2 1c1 0 1 1 2 2c1 1 1 1 2 2c1 1 1 2 2 3c1 1 1 1 2 1c1 0 1 0 2 1c1 1 1 1 2 2c1 1 3 3 3 4c0 1 -2 4 -3 5c-1 1 -1 2 -2 2c-1 0 -1 0 -2 0c-1 0 -1 1 -2 2c-1 1 -1 2 -2 3c-1 1 -1 1 -2 1c-1 0 -1 2 -2 2c-1 0 -1 1 -2 1c-1 0 -1 0 -2 -1c-1 -1 -2 -2 -3 -3c-1 -1 -1 -2 -2 -3c-1 -1 -1 -2 -2 -3c-1 -1 -1 -1 -2 -2c-1 -1 -1 -1 -2 -1c-1 0 -1 0 -2 -1c-1 -1 -2 -1 -2 -2Z" fill="#E9DFCA"/><path d="M228 807c0 -1 1 -1 2 -2c1 -1 1 -1 2 -1c1 0 1 0 2 -1c1 -1 1 -3 2 -4c1 -1 1 -1 2 -2c1 -1 1 -2 2 -3c1 -1 2 -2 3 -2c1 0 1 -1 2 -1c1 0 1 1 2 1c1 0 1 1 2 2c1 1 1 1 2 2c1 1 1 2 2 3c1 1 1 1 2 1c1 0 1 0 2 1c1 1 1 1 2 2c1 1 3 3 3 4c0 1 -2 4 -3 5c-1 1 -1 2 -2 2c-1 0 -1 0 -2 0c-1 0 -1 1 -2 2c-1 1 -1 2 -2 3c-1 1 -1 1 -2 1c-1 0 -1 2 -2 2c-1 0 -1 1 -2 1c-1 0 -1 0 -2 -1c-1 -1 -2 -2 -3 -3c-1 -1 -1 -2 -2 -3c-1 -1 -1 -2 -2 -3c-1 -1 -1 -1 -2 -2c-1 -1 -1 -1 -2 -1c-1 0 -1 0 -2 -1c-1 -1 -2 -1 -2 -2Z" fill="none" stroke="#34465F" stroke-width="2.1" stroke-linecap="round" stroke-linejoin="round"/><path d="M228 807c0 -1 1 -1 2 -2c1 -1 1 -1 2 -1c1 0 1 0 2 -1c1 -1 1 -3 2 -4c1 -1 1 -1 2 -2c1 -1 1 -2 2 -3c1 -1 2 -2 3 -2c1 0 1 -1 2 -1c1 0 1 1 2 1c1 0 1 1 2 2c1 1 1 1 2 2c1 1 1 2 2 3c1 1 1 1 2 1c1 0 1 0 2 1c1 1 1 1 2 2c1 1 3 3 3 4c0 1 -2 4 -3 5c-1 1 -1 2 -2 2c-1 0 -1 0 -2 0c-1 0 -1 1 -2 2c-1 1 -1 2 -2 3c-1 1 -1 1 -2 1c-1 0 -1 2 -2 2c-1 0 -1 1 -2 1c-1 0 -1 0 -2 -1c-1 -1 -2 -2 -3 -3c-1 -1 -1 -2 -2 -3c-1 -1 -1 -2 -2 -3c-1 -1 -1 -1 -2 -2c-1 -1 -1 -1 -2 -1c-1 0 -1 0 -2 -1c-1 -1 -2 -1 -2 -2Z" fill="none" transform="translate(0.4 0.4)" stroke="#34465F" stroke-width="1.3" stroke-linecap="round" stroke-linejoin="round" stroke-opacity=".35"/><path d="M115 903c0 -3 1 -8 2 -10c1 -2 1 -2 2 -2c1 0 1 0 2 0c1 0 1 1 2 1c1 0 1 1 2 1c1 0 1 1 2 1c1 0 1 1 2 1c1 0 1 1 2 1c1 0 1 1 2 1c1 0 1 0 2 1c1 1 3 3 3 5c0 2 -2 4 -3 5c-1 1 -1 0 -2 0c-1 0 -1 2 -2 2c-1 0 -1 1 -2 1c-1 0 -1 1 -2 1c-1 0 -1 1 -2 1c-1 0 -1 1 -2 1c-1 0 -1 1 -2 1c-1 0 -1 0 -2 0c-1 0 -1 0 -2 -2c-1 -2 -2 -7 -2 -10Z" fill="#E9DFCA"/><path d="M115 903c0 -3 1 -8 2 -10c1 -2 1 -2 2 -2c1 0 1 0 2 0c1 0 1 1 2 1c1 0 1 1 2 1c1 0 1 1 2 1c1 0 1 1 2 1c1 0 1 1 2 1c1 0 1 1 2 1c1 0 1 0 2 1c1 1 3 3 3 5c0 2 -2 4 -3 5c-1 1 -1 0 -2 0c-1 0 -1 2 -2 2c-1 0 -1 1 -2 1c-1 0 -1 1 -2 1c-1 0 -1 1 -2 1c-1 0 -1 1 -2 1c-1 0 -1 1 -2 1c-1 0 -1 0 -2 0c-1 0 -1 0 -2 -2c-1 -2 -2 -7 -2 -10Z" fill="none" stroke="#34465F" stroke-width="2.1" stroke-linecap="round" stroke-linejoin="round"/><path d="M115 903c0 -3 1 -8 2 -10c1 -2 1 -2 2 -2c1 0 1 0 2 0c1 0 1 1 2 1c1 0 1 1 2 1c1 0 1 1 2 1c1 0 1 1 2 1c1 0 1 1 2 1c1 0 1 1 2 1c1 0 1 0 2 1c1 1 3 3 3 5c0 2 -2 4 -3 5c-1 1 -1 0 -2 0c-1 0 -1 2 -2 2c-1 0 -1 1 -2 1c-1 0 -1 1 -2 1c-1 0 -1 1 -2 1c-1 0 -1 1 -2 1c-1 0 -1 1 -2 1c-1 0 -1 0 -2 0c-1 0 -1 0 -2 -2c-1 -2 -2 -7 -2 -10Z" fill="none" transform="translate(0.4 0.4)" stroke="#34465F" stroke-width="1.3" stroke-linecap="round" stroke-linejoin="round" stroke-opacity=".35"/><path d="M70 999c0 -2 1 -4 2 -5c1 -1 1 -1 2 -1c1 0 2 1 3 1c1 0 1 -1 2 0c1 1 2 3 2 5c0 2 -1 5 -2 6c-1 1 -1 0 -2 0c-1 0 -2 0 -3 0c-1 0 -1 0 -2 -1c-1 -1 -2 -3 -2 -5ZM115 999c0 -1 1 -1 2 -2c1 -1 1 -1 2 -1c1 0 1 0 2 0c1 0 1 -1 2 -1c1 0 1 -1 2 -1c1 0 1 -1 2 -1c1 0 1 0 2 0c1 0 1 0 2 0c1 0 1 0 2 0c1 0 1 0 2 1c1 1 3 3 3 5c0 2 -2 4 -3 5c-1 1 -1 1 -2 1c-1 0 -1 0 -2 0c-1 0 -1 -1 -2 -1c-1 0 -1 -1 -2 -1c-1 0 -1 0 -2 0c-1 0 -1 0 -2 0c-1 0 -1 -1 -2 -1c-1 0 -1 0 -2 0c-1 0 -1 0 -2 0c-1 0 -2 -2 -2 -3Z" fill="#E9DFCA"/><path d="M70 999c0 -2 1 -4 2 -5c1 -1 1 -1 2 -1c1 0 2 1 3 1c1 0 1 -1 2 0c1 1 2 3 2 5c0 2 -1 5 -2 6c-1 1 -1 0 -2 0c-1 0 -2 0 -3 0c-1 0 -1 0 -2 -1c-1 -1 -2 -3 -2 -5ZM115 999c0 -1 1 -1 2 -2c1 -1 1 -1 2 -1c1 0 1 0 2 0c1 0 1 -1 2 -1c1 0 1 -1 2 -1c1 0 1 -1 2 -1c1 0 1 0 2 0c1 0 1 0 2 0c1 0 1 0 2 0c1 0 1 0 2 1c1 1 3 3 3 5c0 2 -2 4 -3 5c-1 1 -1 1 -2 1c-1 0 -1 0 -2 0c-1 0 -1 -1 -2 -1c-1 0 -1 -1 -2 -1c-1 0 -1 0 -2 0c-1 0 -1 0 -2 0c-1 0 -1 -1 -2 -1c-1 0 -1 0 -2 0c-1 0 -1 0 -2 0c-1 0 -2 -2 -2 -3Z" fill="none" stroke="#34465F" stroke-width="2.1" stroke-linecap="round" stroke-linejoin="round"/><path d="M70 999c0 -2 1 -4 2 -5c1 -1 1 -1 2 -1c1 0 2 1 3 1c1 0 1 -1 2 0c1 1 2 3 2 5c0 2 -1 5 -2 6c-1 1 -1 0 -2 0c-1 0 -2 0 -3 0c-1 0 -1 0 -2 -1c-1 -1 -2 -3 -2 -5ZM115 999c0 -1 1 -1 2 -2c1 -1 1 -1 2 -1c1 0 1 0 2 0c1 0 1 -1 2 -1c1 0 1 -1 2 -1c1 0 1 -1 2 -1c1 0 1 0 2 0c1 0 1 0 2 0c1 0 1 0 2 0c1 0 1 0 2 1c1 1 3 3 3 5c0 2 -2 4 -3 5c-1 1 -1 1 -2 1c-1 0 -1 0 -2 0c-1 0 -1 -1 -2 -1c-1 0 -1 -1 -2 -1c-1 0 -1 0 -2 0c-1 0 -1 0 -2 0c-1 0 -1 -1 -2 -1c-1 0 -1 0 -2 0c-1 0 -1 0 -2 0c-1 0 -2 -2 -2 -3Z" fill="none" transform="translate(0.4 0.4)" stroke="#34465F" stroke-width="1.3" stroke-linecap="round" stroke-linejoin="round" stroke-opacity=".35"/><path d="M126 1095c0 -1 1 -1 2 -2c1 -1 1 -1 2 -1c1 0 1 -1 2 -1c1 0 1 -1 2 -1c1 0 1 -1 2 -1c1 0 2 -1 3 -1c1 0 1 0 2 -1c1 -1 1 -2 2 -2c1 0 1 0 2 0c1 0 1 1 2 1c1 0 1 -1 2 -1c1 0 1 0 2 0c1 0 1 1 2 1c1 0 1 -1 2 -1c1 0 1 1 2 2c1 1 1 1 2 1c1 0 1 1 2 1c1 0 1 1 2 1c1 0 1 2 2 2c1 0 1 0 2 0c1 0 1 0 2 0c1 0 2 2 2 3c0 1 -1 2 -2 2c-1 0 -1 0 -2 0c-1 0 -1 1 -2 1c-1 0 -1 1 -2 1c-1 0 -1 0 -2 1c-1 1 -1 2 -2 3c-1 1 -1 1 -2 1c-1 0 -1 0 -2 0c-1 0 -1 0 -2 0c-1 0 -1 0 -2 0c-1 0 -1 0 -2 0c-1 0 -1 1 -2 1c-1 0 -1 -1 -2 -1c-1 0 -1 1 -2 1c-1 0 -1 -1 -2 -1c-1 0 -1 -2 -2 -2c-1 0 -2 -1 -3 -1c-1 0 -1 -1 -2 -1c-1 0 -1 -2 -2 -2c-1 0 -1 0 -2 0c-1 0 -1 0 -2 0c-1 0 -2 -2 -2 -3ZM205 1095c0 -1 1 -2 2 -2c1 0 1 0 2 0c1 0 1 0 2 0c1 0 1 -1 2 -1c1 0 1 0 2 0c1 0 1 -1 2 -1c1 0 1 1 2 1c1 0 1 0 2 0c1 0 1 -1 2 -1c1 0 1 1 2 1c1 0 1 -2 2 -2c1 0 1 -1 2 -1c1 0 1 0 2 0c1 0 1 0 2 0c1 0 1 -1 2 -1c1 0 1 1 2 1c1 0 1 0 2 0c1 0 1 0 2 0c1 0 1 0 2 0c1 0 1 -1 2 -1c1 0 1 1 2 1c1 0 2 -1 3 -1c1 0 1 -1 2 -1c1 0 1 -1 2 -1c1 0 1 0 2 0c1 0 1 -1 2 -1c1 0 1 1 2 3c1 2 2 4 2 7c0 3 -1 7 -2 8c-1 1 -1 0 -2 0c-1 0 -1 2 -2 2c-1 0 -1 -2 -2 -2c-1 0 -1 0 -2 0c-1 0 -1 -1 -2 -1c-1 0 -2 -1 -3 -1c-1 0 -1 0 -2 0c-1 0 -1 0 -2 0c-1 0 -1 0 -2 0c-1 0 -1 0 -2 0c-1 0 -1 1 -2 1c-1 0 -1 0 -2 0c-1 0 -1 -1 -2 -1c-1 0 -1 1 -2 1c-1 0 -1 0 -2 -1c-1 -1 -1 -1 -2 -2c-1 -1 -1 -1 -2 -1c-1 0 -1 0 -2 0c-1 0 -1 0 -2 0c-1 0 -1 1 -2 1c-1 0 -1 -1 -2 -1c-1 0 -1 0 -2 0c-1 0 -1 0 -2 0c-1 0 -1 0 -2 0c-1 0 -1 0 -2 0c-1 0 -1 0 -2 0c-1 0 -2 -2 -2 -3ZM465 1095c0 -1 1 -3 2 -3c1 0 1 0 2 0c1 0 1 0 2 0c1 0 2 0 3 1c1 1 2 1 2 2c0 1 -1 1 -2 2c-1 1 -2 1 -3 1c-1 0 -1 0 -2 0c-1 0 -1 0 -2 0c-1 0 -2 -2 -2 -3ZM566 1095c0 -1 1 -1 2 -2c1 -1 1 -1 2 -1c1 0 1 0 2 0c1 0 1 -1 2 -1c1 0 1 0 2 0c1 0 1 -1 2 -1c1 0 2 0 3 0c1 0 1 -1 2 -1c1 0 1 0 2 0c1 0 1 0 2 1c1 1 2 3 2 5c0 2 -1 4 -2 5c-1 1 -1 1 -2 1c-1 0 -1 0 -2 0c-1 0 -1 -1 -2 -1c-1 0 -2 0 -3 0c-1 0 -1 -1 -2 -1c-1 0 -1 -1 -2 -1c-1 0 -1 0 -2 0c-1 0 -1 0 -2 0c-1 0 -1 0 -2 0c-1 0 -2 -2 -2 -3ZM645 1095c0 -2 1 -5 2 -7c1 -2 1 -2 2 -2c1 0 1 0 2 0c1 0 1 0 2 1c1 1 1 1 2 2c1 1 1 1 2 1c1 0 1 1 2 1c1 0 2 0 3 0c1 0 1 1 2 1c1 0 1 0 2 1c1 1 2 1 2 2c0 1 -1 3 -2 3c-1 0 -1 -1 -2 -1c-1 0 -1 2 -2 2c-1 0 -2 0 -3 0c-1 0 -1 1 -2 2c-1 1 -1 1 -2 1c-1 0 -1 1 -2 1c-1 0 -1 0 -2 0c-1 0 -1 2 -2 2c-1 0 -1 -1 -2 -3c-1 -2 -2 -5 -2 -7ZM679 1095c0 -2 1 -4 2 -5c1 -1 1 -2 2 -2c1 0 1 1 2 2c1 1 2 3 2 5c0 2 -1 4 -2 5c-1 1 -1 1 -2 1c-1 0 -1 0 -2 -1c-1 -1 -2 -3 -2 -5Z" fill="#E9DFCA" fill-opacity=".45"/><path d="M126 1095c0 -1 1 -1 2 -2c1 -1 1 -1 2 -1c1 0 1 -1 2 -1c1 0 1 -1 2 -1c1 0 1 -1 2 -1c1 0 2 -1 3 -1c1 0 1 0 2 -1c1 -1 1 -2 2 -2c1 0 1 0 2 0c1 0 1 1 2 1c1 0 1 -1 2 -1c1 0 1 0 2 0c1 0 1 1 2 1c1 0 1 -1 2 -1c1 0 1 1 2 2c1 1 1 1 2 1c1 0 1 1 2 1c1 0 1 1 2 1c1 0 1 2 2 2c1 0 1 0 2 0c1 0 1 0 2 0c1 0 2 2 2 3c0 1 -1 2 -2 2c-1 0 -1 0 -2 0c-1 0 -1 1 -2 1c-1 0 -1 1 -2 1c-1 0 -1 0 -2 1c-1 1 -1 2 -2 3c-1 1 -1 1 -2 1c-1 0 -1 0 -2 0c-1 0 -1 0 -2 0c-1 0 -1 0 -2 0c-1 0 -1 0 -2 0c-1 0 -1 1 -2 1c-1 0 -1 -1 -2 -1c-1 0 -1 1 -2 1c-1 0 -1 -1 -2 -1c-1 0 -1 -2 -2 -2c-1 0 -2 -1 -3 -1c-1 0 -1 -1 -2 -1c-1 0 -1 -2 -2 -2c-1 0 -1 0 -2 0c-1 0 -1 0 -2 0c-1 0 -2 -2 -2 -3ZM205 1095c0 -1 1 -2 2 -2c1 0 1 0 2 0c1 0 1 0 2 0c1 0 1 -1 2 -1c1 0 1 0 2 0c1 0 1 -1 2 -1c1 0 1 1 2 1c1 0 1 0 2 0c1 0 1 -1 2 -1c1 0 1 1 2 1c1 0 1 -2 2 -2c1 0 1 -1 2 -1c1 0 1 0 2 0c1 0 1 0 2 0c1 0 1 -1 2 -1c1 0 1 1 2 1c1 0 1 0 2 0c1 0 1 0 2 0c1 0 1 0 2 0c1 0 1 -1 2 -1c1 0 1 1 2 1c1 0 2 -1 3 -1c1 0 1 -1 2 -1c1 0 1 -1 2 -1c1 0 1 0 2 0c1 0 1 -1 2 -1c1 0 1 1 2 3c1 2 2 4 2 7c0 3 -1 7 -2 8c-1 1 -1 0 -2 0c-1 0 -1 2 -2 2c-1 0 -1 -2 -2 -2c-1 0 -1 0 -2 0c-1 0 -1 -1 -2 -1c-1 0 -2 -1 -3 -1c-1 0 -1 0 -2 0c-1 0 -1 0 -2 0c-1 0 -1 0 -2 0c-1 0 -1 0 -2 0c-1 0 -1 1 -2 1c-1 0 -1 0 -2 0c-1 0 -1 -1 -2 -1c-1 0 -1 1 -2 1c-1 0 -1 0 -2 -1c-1 -1 -1 -1 -2 -2c-1 -1 -1 -1 -2 -1c-1 0 -1 0 -2 0c-1 0 -1 0 -2 0c-1 0 -1 1 -2 1c-1 0 -1 -1 -2 -1c-1 0 -1 0 -2 0c-1 0 -1 0 -2 0c-1 0 -1 0 -2 0c-1 0 -1 0 -2 0c-1 0 -1 0 -2 0c-1 0 -2 -2 -2 -3ZM465 1095c0 -1 1 -3 2 -3c1 0 1 0 2 0c1 0 1 0 2 0c1 0 2 0 3 1c1 1 2 1 2 2c0 1 -1 1 -2 2c-1 1 -2 1 -3 1c-1 0 -1 0 -2 0c-1 0 -1 0 -2 0c-1 0 -2 -2 -2 -3ZM566 1095c0 -1 1 -1 2 -2c1 -1 1 -1 2 -1c1 0 1 0 2 0c1 0 1 -1 2 -1c1 0 1 0 2 0c1 0 1 -1 2 -1c1 0 2 0 3 0c1 0 1 -1 2 -1c1 0 1 0 2 0c1 0 1 0 2 1c1 1 2 3 2 5c0 2 -1 4 -2 5c-1 1 -1 1 -2 1c-1 0 -1 0 -2 0c-1 0 -1 -1 -2 -1c-1 0 -2 0 -3 0c-1 0 -1 -1 -2 -1c-1 0 -1 -1 -2 -1c-1 0 -1 0 -2 0c-1 0 -1 0 -2 0c-1 0 -1 0 -2 0c-1 0 -2 -2 -2 -3ZM645 1095c0 -2 1 -5 2 -7c1 -2 1 -2 2 -2c1 0 1 0 2 0c1 0 1 0 2 1c1 1 1 1 2 2c1 1 1 1 2 1c1 0 1 1 2 1c1 0 2 0 3 0c1 0 1 1 2 1c1 0 1 0 2 1c1 1 2 1 2 2c0 1 -1 3 -2 3c-1 0 -1 -1 -2 -1c-1 0 -1 2 -2 2c-1 0 -2 0 -3 0c-1 0 -1 1 -2 2c-1 1 -1 1 -2 1c-1 0 -1 1 -2 1c-1 0 -1 0 -2 0c-1 0 -1 2 -2 2c-1 0 -1 -1 -2 -3c-1 -2 -2 -5 -2 -7ZM679 1095c0 -2 1 -4 2 -5c1 -1 1 -2 2 -2c1 0 1 1 2 2c1 1 2 3 2 5c0 2 -1 4 -2 5c-1 1 -1 1 -2 1c-1 0 -1 0 -2 -1c-1 -1 -2 -3 -2 -5Z" fill="none" stroke="#34465F" stroke-width="0.8" stroke-linecap="round" stroke-linejoin="round" stroke-opacity=".60"/><path d="M672 519L639.9 519" fill="none" stroke="#1B2A41" stroke-width="0.8" stroke-linecap="butt" stroke-linejoin="round" stroke-opacity=".80"/><use href="#hero-h-sym-flare" transform="translate(683 519) scale(1.5)"/><path d="M683 510L685.2 515.9L691.6 516.2L686.6 520.2L688.3 526.3L683 522.8L677.7 526.3L679.4 520.2L674.4 516.2L680.8 515.9Z" fill="#E9DFCA" stroke="#1B2A41" stroke-width="1.3" stroke-linecap="round" stroke-linejoin="round"/><g><circle cx="683" cy="519" r="13" fill="url(#hero-h-halo-g)" id="hero-light-lit-halo"/><circle id="hero-light-lit" cx="683" cy="519" r="3.4" fill="#F8F5EE" stroke="#1B2A41" stroke-width="1.3" stroke-linecap="round" stroke-linejoin="round"/></g><path d="M152.7 615L222.4 615" fill="none" stroke="#1B2A41" stroke-width="0.8" stroke-linecap="butt" stroke-linejoin="round" stroke-opacity=".80"/><circle cx="146" cy="615" r="4.3" fill="#E9DFCA" stroke="#1B2A41" stroke-width="1.3" stroke-linecap="round" stroke-linejoin="round"/><circle cx="146" cy="615" r="1.6" fill="#1B2A41"/><g fill="#1B2A41"><path d="M40 146Q39 146 39 145Q39 143 40 143L43 142Q46 142 47 141Q48 140 48 137V60Q48 57 47 56Q46 55 43 55L40 54Q39 54 39 52Q39 51 40 51H67Q74 51 79 54Q84 57 87 61Q90 66 90 72Q90 78 87 83Q83 88 77 92Q76 92 76 93Q76 93 77 94Q86 97 91 103Q95 110 95 119Q95 127 92 133Q88 139 82 143Q76 146 68 146ZM64 92Q71 92 76 86Q80 81 80 73Q80 64 76 59Q72 54 64 54Q57 54 57 60V84Q57 88 59 90Q60 92 64 92ZM66 143Q75 143 80 136Q86 130 86 119Q86 108 80 101Q75 95 65 95Q57 95 57 102V134Q57 143 66 143Z M123 147Q117 147 112 143Q107 139 104 131Q101 123 101 113Q101 103 104 95Q107 87 113 82Q118 78 124 78Q132 78 137 84Q142 91 142 105Q142 109 138 109H113Q111 109 111 112Q111 126 115 133Q119 140 125 140Q130 140 133 137Q137 133 139 125Q139 123 140 123Q142 123 141 126Q139 138 135 143Q130 147 123 147ZM113 106H126Q133 106 133 100Q133 91 130 86Q128 81 124 81Q119 81 116 87Q112 93 111 104Q111 106 113 106Z M147 146Q145 146 145 145Q145 143 147 143L148 143Q151 142 152 141Q153 140 153 137V93Q153 90 152 90Q151 89 149 88L147 88Q145 88 145 87Q145 86 147 85Q151 84 153 83Q156 82 158 79Q159 78 160 78Q161 78 161 80V86Q161 87 162 87Q163 88 164 87Q169 82 173 80Q177 78 182 78Q188 78 191 82Q195 86 195 94V137Q195 140 196 141Q196 142 199 143L202 143Q204 143 204 145Q204 146 202 146H180Q178 146 178 145Q178 143 179 143L181 143Q184 142 185 141Q186 140 186 137V96Q186 89 183 87Q181 84 177 84Q172 84 169 86Q166 89 164 93Q162 97 162 102V137Q162 140 163 141Q163 142 166 143L170 143Q171 143 171 144Q171 146 169 146Z"/></g><g fill="#1B2A41"><path d="M287 147Q275 147 272 132L269 117Q268 110 266 107Q264 103 261 102Q258 100 253 100Q251 100 250 101Q249 102 249 104V137Q249 140 250 141Q251 142 254 142L259 143Q261 143 261 144Q261 146 259 146H232Q230 146 230 145Q230 143 232 143L235 142Q238 142 238 141Q239 140 239 137V60Q239 57 238 56Q238 55 235 55L232 54Q230 54 230 52Q230 51 232 51H259Q267 51 273 54Q279 57 282 62Q286 68 286 75Q286 83 281 90Q276 96 268 99Q267 99 267 100Q267 101 268 101Q272 103 274 107Q277 110 278 116L281 130Q283 136 285 139Q286 142 290 142Q291 142 291 142Q292 142 294 141Q295 140 296 140Q297 141 297 142Q297 144 294 146Q291 147 287 147ZM257 97Q266 97 271 91Q276 85 276 75Q276 65 270 60Q265 54 256 54Q249 54 249 60V90Q249 97 257 97Z M311 147Q308 147 305 146Q302 144 300 141Q298 138 298 133V87Q298 84 297 83Q297 83 295 82L292 82Q290 82 290 80Q290 79 293 79H305Q307 79 307 81V130Q307 136 309 139Q312 141 316 141Q320 141 323 139Q326 136 328 133Q330 129 330 124V87Q330 84 329 83Q328 83 327 82L324 82Q322 82 322 80Q322 79 325 79H337Q339 79 339 81V132Q339 134 340 135Q340 136 342 136L345 137Q347 137 347 138Q347 139 345 140Q340 140 338 142Q336 143 334 145Q333 147 332 147Q331 147 331 145V139Q331 138 330 138Q329 138 328 138Q323 143 320 145Q316 147 311 147Z M364 147Q361 147 357 146Q354 146 352 145Q351 144 351 142L350 128Q350 125 352 125Q354 125 354 128Q356 137 360 140Q363 144 367 144Q371 144 374 141Q376 138 376 133Q376 127 373 123Q370 119 364 114Q357 110 354 105Q350 100 350 95Q350 87 356 83Q361 78 370 78Q372 78 375 78Q377 79 379 80Q380 81 380 83L381 97Q381 99 379 99Q378 99 378 98Q377 98 377 97Q374 88 372 85Q369 82 365 82Q362 82 360 84Q357 86 357 90Q357 95 360 98Q363 101 370 106Q377 111 380 117Q384 122 384 129Q384 137 378 142Q373 147 364 147Z M403 147Q400 147 396 146Q393 146 391 145Q390 144 390 142L389 128Q389 125 391 125Q392 125 393 128Q395 137 398 140Q402 144 406 144Q410 144 413 141Q415 138 415 133Q415 127 412 123Q409 119 402 114Q396 110 392 105Q389 100 389 95Q389 87 395 83Q400 78 409 78Q411 78 414 78Q416 79 418 80Q419 81 419 83L420 97Q420 99 418 99Q417 99 417 98Q416 98 416 97Q413 88 411 85Q408 82 404 82Q401 82 399 84Q396 86 396 90Q396 95 399 98Q402 101 409 106Q416 111 419 117Q423 122 423 129Q423 137 417 142Q412 147 403 147Z M450 147Q443 147 438 143Q433 139 430 131Q427 123 427 113Q427 103 430 95Q433 87 439 82Q444 78 450 78Q458 78 463 84Q468 91 468 105Q468 109 464 109H439Q437 109 437 112Q437 126 441 133Q445 140 451 140Q456 140 459 137Q463 133 465 125Q465 123 466 123Q468 123 468 126Q465 138 461 143Q456 147 450 147ZM439 106H452Q459 106 459 100Q459 91 457 86Q454 81 450 81Q445 81 442 87Q438 93 437 104Q437 106 439 106Z M472 146Q470 146 470 145Q470 143 472 143L473 143Q476 142 478 141Q479 140 479 137V62Q479 59 478 58Q477 57 476 57L473 57Q471 57 471 55Q471 54 473 54Q476 53 479 52Q481 51 483 50Q485 48 486 48Q488 48 488 50V137Q488 140 489 141Q490 142 492 143L495 143Q497 143 497 145Q497 146 495 146Z M499 144Q497 144 497 143Q497 142 499 141L500 141Q503 141 505 140Q506 138 506 136V60Q506 58 505 57Q504 56 503 56L500 55Q498 55 498 54Q498 52 500 52Q503 51 506 50Q509 49 510 48Q512 47 513 47Q515 47 515 49V136Q515 138 516 140Q517 141 519 141L522 141Q524 142 524 143Q524 144 522 144Z"/></g><g fill="#34465F"><path d="M35 230Q35 230 35 230Q35 229 35 229L36 229Q37 229 37 228Q38 228 38 227L43 204Q44 203 43 203Q43 202 42 202L42 202Q41 202 41 202Q41 201 42 201H49Q49 201 49 202Q49 202 49 202L48 202Q47 202 47 203Q46 203 46 204L41 227Q40 228 41 228Q41 229 42 229L42 229Q43 229 43 230Q43 230 42 230Z M60 230Q59 230 57 230Q56 230 55 229Q55 229 55 228L56 223Q56 222 56 222Q57 222 57 223L57 225Q57 227 58 228Q59 229 60 229Q62 229 63 229Q64 228 64 226Q64 225 63 224Q63 224 62 223Q62 222 61 221Q59 219 59 218Q58 216 58 215Q58 212 60 211Q61 209 64 209Q65 209 66 210Q67 210 68 211Q68 211 68 211L67 217Q67 217 66 217Q66 217 66 217L66 215Q65 212 65 211Q65 210 63 210Q62 210 61 211Q60 212 60 213Q60 215 61 216Q62 217 63 218Q65 221 65 222Q66 223 66 225Q66 226 65 228Q64 229 63 230Q62 230 60 230Z M72 230Q71 230 70 229Q70 228 70 225L73 214Q74 213 73 212Q73 211 73 211Q72 211 71 213Q70 214 69 217Q69 217 69 217Q68 217 68 216Q69 213 71 211Q72 209 74 209Q76 209 76 211Q76 212 76 214L73 226Q72 229 73 229Q74 229 75 228Q76 226 77 225Q78 223 79 220Q81 218 81 215Q82 213 83 210Q83 210 84 210H85Q86 210 86 210L82 226Q81 228 83 228Q84 228 86 223Q86 222 87 222Q87 222 87 223Q87 223 87 223Q86 227 84 228Q83 230 81 230Q78 230 79 226L80 222Q80 221 80 221Q80 221 80 222Q78 226 76 228Q74 230 72 230Z M90 230Q90 230 90 229L94 214Q94 213 94 212Q93 212 93 212Q92 212 91 213Q90 214 89 217Q89 217 89 217Q88 217 88 217Q89 214 90 212Q91 211 92 210Q93 209 94 209Q95 209 96 210Q97 211 96 214L96 215Q96 216 96 216Q96 216 96 216Q98 212 99 211Q100 209 102 209Q103 209 103 210Q104 211 104 212Q104 213 103 213Q103 214 102 214Q101 214 101 213Q101 213 101 213Q101 212 100 212Q100 212 100 212Q99 212 98 213Q97 215 96 217Q95 220 94 223Q93 226 92 230Q92 230 92 230Z M108 230Q106 230 105 229Q104 227 105 225L108 214Q108 212 107 212Q106 212 106 213Q105 214 104 217Q104 217 103 217Q103 217 103 217Q103 217 103 217Q105 209 109 209Q110 209 111 210Q111 212 111 214L107 225Q107 227 107 228Q108 229 109 229Q110 229 111 228Q112 227 114 225Q115 223 116 221Q116 219 116 217Q116 215 116 214Q116 213 115 212Q115 212 115 211Q115 209 116 209Q118 209 118 214Q118 217 117 220Q116 223 115 225Q113 227 112 229Q110 230 108 230Z M124 230Q121 230 120 229Q119 227 119 224Q119 221 120 219Q121 216 122 214Q124 212 126 211Q127 209 129 209Q131 209 132 210Q133 211 133 213Q133 214 131 216Q130 218 128 219Q126 221 123 222Q122 222 122 223Q122 223 122 223Q122 223 122 224Q122 226 122 227Q123 228 125 228Q126 228 127 227Q129 225 130 223Q130 223 130 223Q131 223 131 223Q131 223 131 223Q129 227 128 229Q126 230 124 230ZM122 220Q122 220 122 220Q122 221 123 221Q125 220 127 218Q128 217 129 215Q130 214 130 212Q130 210 129 210Q128 210 126 212Q125 213 124 215Q123 217 122 220Z M131 239Q130 239 129 238Q128 237 128 236Q128 235 128 235Q129 234 129 234Q130 234 130 235Q131 235 131 236Q131 236 131 237Q132 237 132 237Q134 237 135 236Q137 235 138 232Q139 230 138 228L138 214Q138 212 138 212Q137 212 137 212Q136 212 135 213Q134 214 134 217Q134 217 133 217Q133 217 133 217Q133 214 134 212Q135 211 136 210Q137 209 138 209Q139 209 140 210Q140 211 141 213L141 229Q141 229 141 229Q141 229 142 229Q143 227 144 225Q145 223 146 220Q147 218 147 217Q147 215 146 214Q146 213 146 212Q145 212 145 211Q145 209 147 209Q148 209 148 214Q148 216 148 219Q147 221 145 224Q144 227 142 230Q141 232 139 234Q137 236 135 237Q133 239 131 239Z M159 230Q158 230 157 229Q156 228 156 225Q156 223 157 221Q157 219 159 217Q160 214 161 213Q163 211 164 210Q166 209 167 209Q168 209 169 210Q169 210 170 211Q170 211 170 211Q171 211 171 211Q171 210 171 210Q172 210 172 210Q173 210 172 210L169 225Q168 228 170 228Q171 228 171 227Q172 226 173 223Q173 223 173 223Q174 223 174 223Q174 223 174 223Q173 227 172 229Q170 230 169 230Q167 230 166 229Q166 228 166 225L167 223Q167 223 167 223Q166 223 166 223Q164 227 162 229Q161 230 159 230ZM160 228Q161 228 162 227Q163 226 165 224Q166 222 167 220Q168 218 168 216Q169 214 169 213Q169 210 167 210Q166 210 165 211Q164 212 163 214Q162 215 161 217Q160 219 159 222Q159 224 159 226Q159 227 159 228Q160 228 160 228Z M187 230Q185 230 184 229Q183 228 184 226L187 214Q188 212 187 212Q186 212 185 213Q184 214 183 217Q183 217 183 217Q182 217 182 217Q182 217 182 217Q185 209 188 209Q189 209 190 210Q190 212 190 214L186 226Q186 228 186 228Q187 229 187 229Q189 229 192 224Q194 219 196 210Q196 210 197 210H198Q199 210 199 210L195 226Q195 228 195 228Q196 229 197 229Q198 229 199 228Q200 227 201 225Q202 223 203 221Q203 219 203 217Q203 215 203 214Q203 213 202 212Q202 212 202 211Q202 209 204 209Q205 209 205 210Q205 211 205 214Q205 217 204 220Q204 223 202 225Q201 227 199 229Q198 230 196 230Q194 230 193 229Q192 228 193 225Q193 225 193 225Q193 225 193 225Q191 227 190 229Q189 230 187 230Z M211 230Q209 230 207 229Q206 227 206 224Q206 221 207 219Q208 216 209 214Q211 212 213 211Q215 209 216 209Q218 209 219 210Q220 211 220 213Q220 214 219 216Q217 218 215 219Q213 221 210 222Q209 222 209 223Q209 223 209 223Q209 223 209 224Q209 226 210 227Q210 228 212 228Q213 228 215 227Q216 225 217 223Q217 223 218 223Q218 223 218 223Q218 223 218 223Q217 227 215 229Q213 230 211 230ZM209 220Q209 220 209 220Q210 221 210 221Q212 220 214 218Q216 217 217 215Q217 214 217 212Q217 210 216 210Q215 210 214 212Q212 213 211 215Q210 217 209 220Z M225 230Q223 230 222 230Q221 229 221 227Q220 226 221 224L225 204Q226 204 225 203Q225 203 225 203L223 203Q223 203 223 202Q223 202 224 202Q225 202 226 201Q227 201 228 201Q228 200 228 200Q229 200 229 201L225 217Q225 217 225 217Q225 217 226 217Q228 213 230 211Q231 209 233 209Q234 209 235 211Q236 212 236 214Q236 217 235 219Q235 221 234 223Q232 225 231 227Q229 228 228 229Q226 230 225 230ZM225 229Q226 229 227 228Q228 227 229 226Q230 224 231 222Q232 220 233 218Q233 216 233 214Q233 213 233 212Q233 211 232 211Q231 211 230 213Q229 214 227 215Q226 217 225 219Q224 221 224 223Q223 225 223 227Q223 229 225 229Z M247 230Q246 230 245 229Q245 228 245 226L248 211Q248 211 248 211H246Q246 211 246 210Q246 210 246 210Q246 210 246 210H248Q249 210 249 209L250 204Q250 204 251 204H252Q253 204 253 205L252 209Q251 210 252 210H254Q255 210 255 210Q255 211 254 211H252Q251 211 251 212L248 226Q247 227 248 228Q248 228 249 228Q249 228 250 227Q251 226 252 223Q252 223 252 223Q253 223 253 223Q253 223 253 224Q252 226 251 228Q250 229 249 230Q248 230 247 230Z M267 230Q265 230 265 229Q264 228 265 225L268 214Q268 212 268 212Q268 211 267 211Q266 211 265 212Q264 213 263 215Q262 217 260 219Q259 222 258 224Q258 227 257 230Q257 230 256 230H255Q254 230 254 229L260 204Q260 204 260 203Q260 203 259 203L258 203Q258 203 258 202Q258 202 258 202Q260 202 261 201Q262 201 263 201Q263 200 263 200Q264 200 264 201L260 218Q260 218 260 218Q260 218 260 218Q262 215 263 213Q265 211 266 210Q267 209 268 209Q270 209 270 211Q271 212 270 214L267 226Q267 227 267 228Q267 228 268 228Q269 228 270 227Q270 226 271 223Q271 223 272 223Q272 223 272 223Q272 223 272 223Q271 226 270 228Q270 229 269 230Q268 230 267 230Z M276 230Q275 230 274 229Q273 228 273 225Q273 223 274 221Q275 219 276 217Q277 214 278 213Q280 211 281 210Q283 209 284 209Q285 209 286 210Q287 210 287 211Q287 211 287 211Q288 211 288 211Q288 210 289 210Q289 210 289 210Q290 210 290 210L286 225Q285 228 287 228Q288 228 288 227Q289 226 290 223Q290 223 291 223Q291 223 291 223Q291 223 291 223Q290 227 289 229Q288 230 286 230Q284 230 284 229Q283 228 283 225L284 223Q284 223 284 223Q284 223 284 223Q281 227 280 229Q278 230 276 230ZM277 228Q278 228 280 227Q281 226 282 224Q283 222 284 220Q285 218 285 216Q286 214 286 213Q286 210 284 210Q283 210 282 211Q281 212 280 214Q279 215 278 217Q277 219 277 222Q276 224 276 226Q276 227 276 228Q277 228 277 228Z M295 230Q294 230 293 229Q292 228 293 226L296 211Q296 211 296 211H294Q294 211 294 210Q294 210 294 210Q294 210 294 210H296Q297 210 297 209L298 204Q298 204 298 204H300Q301 204 300 205L299 209Q299 210 300 210H302Q303 210 303 210Q303 211 302 211H300Q299 211 299 212L295 226Q295 227 295 228Q296 228 296 228Q297 228 298 227Q299 226 300 223Q300 223 300 223Q301 223 301 223Q301 223 300 224Q300 226 299 228Q298 229 297 230Q296 230 295 230Z M317 206Q316 206 316 205Q315 205 315 204Q315 203 316 202Q317 202 317 202Q318 202 319 202Q319 203 319 203Q319 205 319 205Q318 206 317 206ZM314 230Q312 230 312 229Q311 228 312 226L315 214Q315 213 315 212Q315 212 314 212Q313 212 312 213Q312 214 311 217Q310 217 310 217Q309 217 310 217Q311 214 312 212Q312 211 313 210Q314 209 315 209Q317 209 317 210Q318 211 317 214L314 226Q314 227 314 228Q314 228 315 228Q316 228 317 227Q317 226 319 223Q319 223 319 223Q320 223 319 223Q319 226 318 228Q317 229 316 230Q315 230 314 230Z M325 230Q323 230 322 230Q321 230 320 229Q319 229 320 228L320 223Q320 222 321 222Q321 222 321 223L321 225Q321 227 322 228Q324 229 325 229Q326 229 327 229Q328 228 328 226Q328 225 328 224Q328 224 327 223Q326 222 325 221Q324 219 323 218Q323 216 323 215Q323 212 324 211Q326 209 328 209Q329 209 330 210Q331 210 332 211Q332 211 332 211L331 217Q331 217 331 217Q330 217 330 217L330 215Q330 212 330 211Q329 210 328 210Q326 210 326 211Q325 212 325 213Q325 215 325 216Q326 217 327 218Q329 221 330 222Q330 223 330 225Q330 226 329 228Q329 229 327 230Q326 230 325 230Z"/></g><g fill="#34465F"><path d="M41 276Q40 276 39 275Q38 274 39 272L42 260Q42 258 41 258Q40 258 40 259Q39 260 38 263Q38 263 37 263Q37 263 37 263Q37 263 37 263Q39 255 43 255Q44 255 44 256Q45 258 44 260L41 272Q41 274 41 274Q41 275 42 275Q44 275 46 270Q49 265 51 256Q51 256 51 256H53Q53 256 53 256L50 272Q50 274 50 274Q50 275 51 275Q52 275 54 274Q55 273 56 271Q57 269 57 267Q58 265 58 263Q58 261 58 260Q57 259 57 258Q57 258 57 257Q57 255 58 255Q59 255 59 256Q60 257 60 260Q60 263 59 266Q58 269 57 271Q56 273 54 275Q52 276 51 276Q49 276 48 275Q47 274 48 271Q48 271 48 271Q47 271 47 271Q46 273 45 275Q43 276 41 276Z M63 276Q62 276 62 275L66 260Q66 259 66 258Q66 258 65 258Q65 258 64 259Q63 260 62 263Q62 263 61 263Q61 263 61 263Q62 260 63 258Q64 257 65 256Q66 255 67 255Q68 255 69 256Q69 257 69 260L68 261Q68 262 68 262Q68 262 69 262Q70 258 71 257Q73 255 74 255Q75 255 76 256Q76 257 76 258Q76 259 76 259Q75 260 75 260Q74 260 74 259Q73 259 73 259Q73 258 73 258Q73 258 72 258Q72 258 71 259Q70 261 69 263Q68 266 67 269Q66 272 65 276Q65 276 64 276Z M80 276Q78 276 76 274Q75 272 75 269Q75 266 76 264Q76 261 78 259Q79 258 81 256Q83 255 84 255Q87 255 88 257Q90 259 90 263Q90 266 89 268Q88 270 87 272Q85 274 84 275Q82 276 80 276ZM80 275Q81 275 83 274Q84 273 85 271Q86 269 86 266Q87 264 87 261Q87 256 84 256Q83 256 82 258Q81 259 80 261Q79 263 78 265Q77 268 77 270Q77 275 80 275Z M92 275 96 260Q96 259 96 258Q96 258 96 258Q95 258 94 259Q93 260 92 263Q92 263 91 263Q91 263 91 263Q92 260 93 258Q94 257 95 256Q96 255 97 255Q98 255 99 256Q99 257 99 260L98 264Q98 264 98 264Q98 264 98 264Q100 261 101 259Q103 257 104 256Q105 255 106 255Q108 255 108 257Q109 258 108 260L105 272Q105 273 105 274Q106 274 106 274Q107 274 108 273Q109 272 109 269Q109 269 110 269Q110 269 110 269Q110 269 110 269Q109 272 109 274Q108 275 107 276Q106 276 105 276Q104 276 103 275Q102 274 103 271L106 260Q106 258 106 258Q106 257 105 257Q104 257 103 258Q102 259 101 261Q100 263 99 265Q97 268 97 270Q96 273 95 276Q95 276 95 276H93Q92 276 92 275Z M114 285Q111 285 109 283Q108 282 108 281Q108 279 109 278Q110 277 113 275Q113 275 113 274Q113 274 113 274Q112 273 112 272Q111 271 112 271L115 269Q116 269 116 268Q116 268 115 268Q114 267 114 266Q113 265 113 264Q113 261 114 260Q115 258 117 257Q119 255 121 255Q122 255 122 256Q123 256 123 255Q124 254 125 253Q126 252 127 252Q128 252 128 253Q129 253 129 254Q129 254 128 255Q128 255 127 255Q127 255 127 255Q126 255 126 255Q126 255 125 255Q125 255 124 256Q124 256 124 256Q124 257 124 257Q125 258 125 260Q125 262 124 264Q124 266 122 267Q121 268 119 268Q118 269 118 269Q117 269 116 270L115 271Q114 271 114 271Q115 272 116 272L119 274Q122 275 122 276Q123 277 123 278Q123 280 122 282Q121 283 119 284Q117 285 114 285ZM116 264Q116 266 116 267Q117 268 118 268Q119 268 120 267Q121 265 122 264Q123 262 123 260Q123 258 122 257Q122 256 121 256Q119 256 118 257Q117 259 116 260Q116 262 116 264ZM115 284Q116 284 117 283Q119 283 120 282Q121 281 121 279Q121 278 120 277Q119 276 117 276L117 275Q116 275 115 275Q114 275 114 276Q112 277 111 278Q110 279 110 280Q110 282 111 283Q112 284 115 284Z M137 276Q135 276 135 275Q134 274 134 271Q134 269 134 267Q135 265 136 263Q137 260 139 259Q140 257 142 256Q143 255 145 255Q146 255 146 256Q147 256 147 257Q148 257 148 257Q148 257 148 257Q149 256 149 256Q149 256 150 256Q150 256 150 256L146 271Q146 274 147 274Q148 274 149 273Q150 272 150 269Q151 269 151 269Q151 269 151 269Q151 269 151 269Q151 273 149 275Q148 276 146 276Q145 276 144 275Q143 274 144 271L144 269Q144 269 144 269Q144 269 144 269Q142 273 140 275Q138 276 137 276ZM138 274Q139 274 140 273Q141 272 142 270Q143 268 144 266Q145 264 146 262Q146 260 146 259Q146 256 145 256Q144 256 143 257Q141 258 140 260Q139 261 138 263Q138 265 137 268Q136 270 136 272Q136 273 137 274Q137 274 138 274Z M157 276Q156 276 155 276Q154 275 154 273Q153 272 154 270L158 250Q158 250 158 249Q158 249 157 249L156 249Q156 249 156 248Q156 248 156 248Q158 248 159 247Q160 247 161 247Q161 246 161 246Q162 246 162 247L158 263Q158 263 158 263Q158 263 158 263Q161 259 162 257Q164 255 166 255Q167 255 168 257Q169 258 169 260Q169 263 168 265Q167 267 166 269Q165 271 164 273Q162 274 161 275Q159 276 157 276ZM158 275Q159 275 160 274Q161 273 162 272Q163 270 164 268Q165 266 165 264Q166 262 166 260Q166 259 166 258Q165 257 164 257Q164 257 162 259Q161 260 160 261Q159 263 158 265Q157 267 156 269Q156 271 156 273Q156 275 158 275Z M175 276Q173 276 171 274Q170 272 170 269Q170 266 171 264Q172 261 173 259Q174 258 176 256Q178 255 179 255Q182 255 183 257Q185 259 185 263Q185 266 184 268Q183 270 182 272Q180 274 179 275Q177 276 175 276ZM175 275Q176 275 178 274Q179 273 180 271Q181 269 181 266Q182 264 182 261Q182 256 179 256Q178 256 177 258Q176 259 175 261Q174 263 173 265Q173 268 173 270Q173 275 175 275Z M190 276Q189 276 188 275Q187 274 188 271L191 260Q192 259 191 258Q191 257 191 257Q190 257 189 259Q188 260 187 263Q187 263 187 263Q186 263 186 262Q187 259 189 257Q190 255 192 255Q193 255 194 257Q194 258 194 260L191 272Q190 275 191 275Q192 275 193 274Q194 272 195 271Q196 269 197 266Q198 264 199 261Q200 259 201 256Q201 256 201 256H203Q204 256 204 256L200 272Q199 274 200 274Q202 274 204 269Q204 268 205 268Q205 268 205 269Q205 269 205 269Q204 273 202 274Q201 276 199 276Q196 276 197 272L198 268Q198 267 198 267Q198 267 198 268Q196 272 194 274Q192 276 190 276Z M210 276Q208 276 207 275Q207 274 207 272L211 257Q211 257 210 257H209Q208 257 208 256Q208 256 208 256Q208 256 209 256H210Q211 256 211 255L212 250Q212 250 213 250H214Q215 250 215 251L214 255Q214 256 214 256H217Q217 256 217 256Q217 257 216 257H214Q213 257 213 258L210 272Q210 273 210 274Q210 274 211 274Q212 274 212 273Q213 272 214 269Q214 269 215 269Q215 269 215 269Q215 269 215 270Q214 272 213 274Q212 275 211 276Q210 276 210 276Z M231 252Q231 252 230 251Q230 251 230 250Q230 249 230 248Q231 248 232 248Q233 248 233 248Q234 249 234 249Q234 251 233 251Q232 252 231 252ZM228 276Q227 276 226 275Q226 274 226 272L229 260Q229 259 229 258Q229 258 228 258Q228 258 227 259Q226 260 225 263Q225 263 224 263Q224 263 224 263Q225 260 226 258Q227 257 228 256Q229 255 230 255Q231 255 232 256Q232 257 232 260L229 272Q229 273 229 274Q229 274 229 274Q230 274 231 273Q232 272 233 269Q233 269 234 269Q234 269 234 269Q233 272 232 274Q231 275 230 276Q229 276 228 276Z M239 276Q237 276 236 275Q236 274 236 272L240 257Q240 257 239 257H238Q237 257 237 256Q237 256 237 256Q237 256 238 256H239Q240 256 240 255L241 250Q241 250 242 250H243Q244 250 244 251L243 255Q243 256 243 256H246Q246 256 246 256Q246 257 245 257H243Q242 257 242 258L239 272Q239 273 239 274Q239 274 240 274Q241 274 241 273Q242 272 243 269Q243 269 244 269Q244 269 244 269Q244 269 244 270Q243 272 242 274Q241 275 240 276Q239 276 239 276Z M250 276Q249 276 247 276Q246 276 245 275Q245 275 245 274L245 269Q246 268 246 268Q246 268 246 269L246 271Q247 273 248 274Q249 275 250 275Q251 275 252 275Q253 274 253 272Q253 271 253 270Q253 270 252 269Q251 268 250 267Q249 265 248 264Q248 262 248 261Q248 258 249 257Q251 255 253 255Q254 255 255 256Q256 256 257 257Q257 257 257 257L256 263Q256 263 256 263Q255 263 255 263L255 261Q255 258 255 257Q254 256 253 256Q251 256 251 257Q250 258 250 259Q250 261 251 262Q251 263 252 264Q254 267 255 268Q255 269 255 271Q255 272 255 274Q254 275 253 276Q251 276 250 276Z M262 276Q260 276 259 275Q258 273 258 270Q258 267 258 265Q259 262 261 260Q262 258 264 257Q266 255 268 255Q270 255 271 256Q271 257 271 259Q271 260 270 262Q269 264 267 265Q264 267 261 268Q260 268 260 269Q260 269 260 269Q260 269 260 270Q260 272 261 273Q262 274 263 274Q265 274 266 273Q268 271 269 269Q269 269 269 269Q269 269 269 269Q269 269 269 269Q268 273 266 275Q264 276 262 276ZM261 266Q261 266 261 266Q261 267 261 267Q264 266 265 264Q267 263 268 261Q269 260 269 258Q269 256 268 256Q266 256 265 258Q264 259 263 261Q261 263 261 266Z M274 276Q272 276 272 275Q271 274 272 272L277 250Q277 250 277 249Q277 249 276 249L275 249Q274 249 274 248Q275 248 275 248Q276 248 278 247Q279 247 279 247Q280 246 280 246Q280 246 280 247L274 272Q274 273 274 274Q275 274 275 274Q276 274 277 273Q278 272 279 269Q279 269 279 269Q280 269 280 269Q279 272 278 274Q277 275 276 276Q275 276 274 276Z M281 276Q281 276 281 275L285 258Q285 257 284 257H283Q283 257 283 256Q283 256 283 256Q285 256 285 255Q286 255 286 254Q287 252 288 250Q289 248 290 247Q292 246 293 246Q295 246 296 247Q296 247 296 249Q296 249 296 250Q295 251 295 251Q294 251 294 250Q293 250 293 249Q293 248 293 248Q293 247 292 247Q291 247 291 248Q290 249 289 252L288 255Q288 256 289 256H292Q293 256 293 256Q293 257 292 257H289Q288 257 288 257L284 276Q284 276 283 276Z M292 276Q291 276 291 276Q290 275 290 274Q290 273 291 273Q292 272 292 272Q293 272 294 273Q294 273 294 274Q294 275 294 276Q293 276 292 276Z"/></g><g fill="#1B2A41"><use href="#hero-g-cond-30-67" x="36" y="330"/><use href="#hero-g-cond-30-82" x="53.8" y="330"/><use href="#hero-g-cond-30-65" x="72.2" y="330"/><use href="#hero-g-cond-30-87" x="89.9" y="330"/><use href="#hero-g-cond-30-76" x="115.1" y="330"/><use href="#hero-g-cond-30-65" x="135.1" y="330"/><use href="#hero-g-cond-30-78" x="153.4" y="330"/><use href="#hero-g-cond-30-68" x="173.6" y="330"/><use href="#hero-g-cond-30-68" x="198.1" y="330"/><use href="#hero-g-cond-30-65" x="216.5" y="330"/><use href="#hero-g-cond-30-84" x="233.1" y="330"/><use href="#hero-g-cond-30-65" x="247.8" y="330"/><use href="#hero-g-cond-30-73" x="271.5" y="330"/><use href="#hero-g-cond-30-78" x="283.4" y="330"/><use href="#hero-g-cond-30-70" x="303.5" y="330"/><use href="#hero-g-cond-30-82" x="319.6" y="330"/><use href="#hero-g-cond-30-65" x="338" y="330"/><use href="#hero-g-cond-30-83" x="356.4" y="330"/><use href="#hero-g-cond-30-84" x="372.7" y="330"/><use href="#hero-g-cond-30-82" x="389.2" y="330"/><use href="#hero-g-cond-30-85" x="407.2" y="330"/><use href="#hero-g-cond-30-67" x="426.6" y="330"/><use href="#hero-g-cond-30-84" x="444.2" y="330"/><use href="#hero-g-cond-30-85" x="460.7" y="330"/><use href="#hero-g-cond-30-82" x="480.1" y="330"/><use href="#hero-g-cond-30-69" x="498.4" y="330"/></g><g fill="#1B2A41"><use href="#hero-g-cond-30-80" x="36" y="366"/><use href="#hero-g-cond-30-89" x="53.5" y="366"/><use href="#hero-g-cond-30-84" x="71" y="366"/><use href="#hero-g-cond-30-72" x="87.4" y="366"/><use href="#hero-g-cond-30-79" x="107.6" y="366"/><use href="#hero-g-cond-30-78" x="127.7" y="366"/><use href="#hero-g-cond-30-65" x="153.2" y="366"/><use href="#hero-g-cond-30-78" x="171.5" y="366"/><use href="#hero-g-cond-30-68" x="191.7" y="366"/><use href="#hero-g-cond-30-82" x="216.2" y="366"/><use href="#hero-g-cond-30-85" x="234.3" y="366"/><use href="#hero-g-cond-30-83" x="253.6" y="366"/><use href="#hero-g-cond-30-84" x="270" y="366"/></g><g fill="#34465F"><use href="#hero-g-cond-26-50" x="36" y="404"/><use href="#hero-g-cond-26-50" x="51" y="404"/><use href="#hero-g-cond-26-82" x="70.6" y="404"/><use href="#hero-g-cond-26-69" x="86.6" y="404"/><use href="#hero-g-cond-26-80" x="101.3" y="404"/><use href="#hero-g-cond-26-79" x="116.5" y="404"/><use href="#hero-g-cond-26-83" x="134.2" y="404"/><use href="#hero-g-cond-26-73" x="148.8" y="404"/><use href="#hero-g-cond-26-84" x="159.2" y="404"/><use href="#hero-g-cond-26-79" x="173.1" y="404"/><use href="#hero-g-cond-26-82" x="190.7" y="404"/><use href="#hero-g-cond-26-73" x="206.7" y="404"/><use href="#hero-g-cond-26-69" x="217.1" y="404"/><use href="#hero-g-cond-26-83" x="231.8" y="404"/><use href="#hero-g-cond-26-183" x="250.9" y="404"/><use href="#hero-g-cond-26-68" x="264.1" y="404"/><use href="#hero-g-cond-26-65" x="280.2" y="404"/><use href="#hero-g-cond-26-84" x="294.7" y="404"/><use href="#hero-g-cond-26-85" x="309.1" y="404"/><use href="#hero-g-cond-26-77" x="326" y="404"/><use href="#hero-g-cond-26-58" x="346" y="404"/><use href="#hero-g-cond-26-77" x="358.2" y="404"/><use href="#hero-g-cond-26-65" x="378.2" y="404"/><use href="#hero-g-cond-26-73" x="394.2" y="404"/><use href="#hero-g-cond-26-78" x="404.7" y="404"/></g><g fill="#34465F"><use href="#hero-g-cond-26-57" x="36" y="436"/><use href="#hero-g-cond-26-79" x="55.6" y="436"/><use href="#hero-g-cond-26-67" x="73.1" y="436"/><use href="#hero-g-cond-26-84" x="88.6" y="436"/><use href="#hero-g-cond-26-50" x="107.5" y="436"/><use href="#hero-g-cond-26-48" x="122.6" y="436"/><use href="#hero-g-cond-26-50" x="137.6" y="436"/><use href="#hero-g-cond-26-54" x="152.6" y="436"/><use href="#hero-g-cond-26-183" x="172.2" y="436"/><use href="#hero-g-cond-26-69" x="185.4" y="436"/><use href="#hero-g-cond-26-65" x="200.1" y="436"/><use href="#hero-g-cond-26-83" x="216.1" y="436"/><use href="#hero-g-cond-26-84" x="230.4" y="436"/><use href="#hero-g-cond-26-69" x="244.9" y="436"/><use href="#hero-g-cond-26-82" x="259.5" y="436"/><use href="#hero-g-cond-26-78" x="275.6" y="436"/><use href="#hero-g-cond-26-84" x="297.6" y="436"/><use href="#hero-g-cond-26-73" x="312" y="436"/><use href="#hero-g-cond-26-77" x="322.4" y="436"/><use href="#hero-g-cond-26-69" x="342.4" y="436"/></g><g fill="#1B2A41"><use href="#hero-g-cond-26-83" x="36" y="484"/><use href="#hero-g-cond-26-67" x="50.6" y="484"/><use href="#hero-g-cond-26-82" x="66.2" y="484"/><use href="#hero-g-cond-26-65" x="82.3" y="484"/><use href="#hero-g-cond-26-80" x="98.3" y="484"/><use href="#hero-g-cond-26-89" x="113.6" y="484"/></g><g fill="#1B2A41"><use href="#hero-g-cond-26-50" x="593.7" y="484"/><use href="#hero-g-cond-26-53" x="608.8" y="484"/><use href="#hero-g-cond-26-68" x="628.3" y="484"/><use href="#hero-g-cond-26-65" x="644.4" y="484"/><use href="#hero-g-cond-26-89" x="659" y="484"/><use href="#hero-g-cond-26-83" x="673.3" y="484"/></g><g fill="#56657B"><use href="#hero-g-cond-26-80" x="141.5" y="484"/><use href="#hero-g-cond-26-89" x="156.9" y="484"/><use href="#hero-g-cond-26-84" x="172.1" y="484"/><use href="#hero-g-cond-26-72" x="186.5" y="484"/><use href="#hero-g-cond-26-79" x="204.1" y="484"/><use href="#hero-g-cond-26-78" x="221.7" y="484"/></g><g fill="#1B2A41"><use href="#hero-g-cond-26-82" x="36" y="580"/><use href="#hero-g-cond-26-85" x="51.8" y="580"/><use href="#hero-g-cond-26-83" x="68.7" y="580"/><use href="#hero-g-cond-26-84" x="83" y="580"/><use href="#hero-g-cond-26-77" x="97.4" y="580"/><use href="#hero-g-cond-26-65" x="117.4" y="580"/><use href="#hero-g-cond-26-80" x="133.4" y="580"/><use href="#hero-g-cond-26-80" x="148.7" y="580"/><use href="#hero-g-cond-26-69" x="163.9" y="580"/><use href="#hero-g-cond-26-82" x="178.6" y="580"/></g><g fill="#1B2A41"><use href="#hero-g-cond-26-49" x="657.9" y="580"/><use href="#hero-g-cond-26-57" x="673" y="580"/></g><g fill="#56657B"><use href="#hero-g-cond-26-82" x="207.6" y="580"/><use href="#hero-g-cond-26-85" x="223.4" y="580"/><use href="#hero-g-cond-26-83" x="240.3" y="580"/><use href="#hero-g-cond-26-84" x="254.6" y="580"/></g><g fill="#1B2A41"><use href="#hero-g-cond-26-68" x="36" y="676"/><use href="#hero-g-cond-26-65" x="52.1" y="676"/><use href="#hero-g-cond-26-84" x="66.6" y="676"/><use href="#hero-g-cond-26-65" x="79.5" y="676"/><use href="#hero-g-cond-26-95" x="96" y="676"/><use href="#hero-g-cond-26-83" x="109.3" y="676"/><use href="#hero-g-cond-26-67" x="124" y="676"/><use href="#hero-g-cond-26-73" x="139.6" y="676"/><use href="#hero-g-cond-26-69" x="150" y="676"/><use href="#hero-g-cond-26-78" x="164.7" y="676"/><use href="#hero-g-cond-26-67" x="182.2" y="676"/><use href="#hero-g-cond-26-69" x="197.8" y="676"/><use href="#hero-g-cond-26-95" x="212.5" y="676"/><use href="#hero-g-cond-26-68" x="226.7" y="676"/><use href="#hero-g-cond-26-69" x="243.5" y="676"/><use href="#hero-g-cond-26-86" x="257.9" y="676"/></g><g fill="#1B2A41"><use href="#hero-g-cond-26-49" x="657.9" y="676"/><use href="#hero-g-cond-26-49" x="673" y="676"/></g><g fill="#56657B"><use href="#hero-g-cond-26-74" x="286.2" y="676"/><use href="#hero-g-cond-26-65" x="298.8" y="676"/><use href="#hero-g-cond-26-86" x="313.7" y="676"/><use href="#hero-g-cond-26-65" x="327.8" y="676"/><use href="#hero-g-cond-26-83" x="343.8" y="676"/><use href="#hero-g-cond-26-67" x="358.5" y="676"/><use href="#hero-g-cond-26-82" x="374.1" y="676"/><use href="#hero-g-cond-26-73" x="390.1" y="676"/><use href="#hero-g-cond-26-80" x="400.5" y="676"/><use href="#hero-g-cond-26-84" x="415.7" y="676"/></g><g fill="#1B2A41"><use href="#hero-g-cond-26-71" x="36" y="772"/><use href="#hero-g-cond-26-65" x="53.3" y="772"/><use href="#hero-g-cond-26-77" x="69.4" y="772"/><use href="#hero-g-cond-26-69" x="89.3" y="772"/><use href="#hero-g-cond-26-95" x="104" y="772"/><use href="#hero-g-cond-26-69" x="118.2" y="772"/><use href="#hero-g-cond-26-78" x="132.9" y="772"/><use href="#hero-g-cond-26-71" x="150.5" y="772"/><use href="#hero-g-cond-26-73" x="167.8" y="772"/><use href="#hero-g-cond-26-78" x="178.2" y="772"/><use href="#hero-g-cond-26-69" x="195.7" y="772"/></g><g fill="#1B2A41"><use href="#hero-g-cond-26-56" x="673" y="772"/></g><g fill="#56657B"><use href="#hero-g-cond-26-67" x="223.4" y="772"/></g><g fill="#1B2A41"><use href="#hero-g-cond-26-87" x="36" y="868"/><use href="#hero-g-cond-26-72" x="58" y="868"/><use href="#hero-g-cond-26-69" x="75.6" y="868"/><use href="#hero-g-cond-26-69" x="90.2" y="868"/><use href="#hero-g-cond-26-76" x="104.9" y="868"/></g><g fill="#1B2A41"><use href="#hero-g-cond-26-54" x="673" y="868"/></g><g fill="#56657B"><use href="#hero-g-cond-26-74" x="130.7" y="868"/><use href="#hero-g-cond-26-65" x="143.3" y="868"/><use href="#hero-g-cond-26-86" x="158.2" y="868"/><use href="#hero-g-cond-26-65" x="172.3" y="868"/><use href="#hero-g-cond-26-83" x="188.4" y="868"/><use href="#hero-g-cond-26-67" x="203" y="868"/><use href="#hero-g-cond-26-82" x="218.6" y="868"/><use href="#hero-g-cond-26-73" x="234.6" y="868"/><use href="#hero-g-cond-26-80" x="245" y="868"/><use href="#hero-g-cond-26-84" x="260.3" y="868"/></g><g fill="#1B2A41"><use href="#hero-g-cond-26-68" x="36" y="964"/><use href="#hero-g-cond-26-65" x="52.1" y="964"/><use href="#hero-g-cond-26-84" x="66.6" y="964"/><use href="#hero-g-cond-26-65" x="79.5" y="964"/><use href="#hero-g-cond-26-45" x="95" y="964"/><use href="#hero-g-cond-26-86" x="104.4" y="964"/><use href="#hero-g-cond-26-73" x="119.7" y="964"/><use href="#hero-g-cond-26-83" x="130.1" y="964"/><use href="#hero-g-cond-26-85" x="144.8" y="964"/><use href="#hero-g-cond-26-65" x="161.3" y="964"/><use href="#hero-g-cond-26-76" x="177.4" y="964"/><use href="#hero-g-cond-26-73" x="190.1" y="964"/><use href="#hero-g-cond-26-90" x="200.5" y="964"/><use href="#hero-g-cond-26-69" x="215.2" y="964"/><use href="#hero-g-cond-26-82" x="229.8" y="964"/></g><g fill="#1B2A41"><use href="#hero-g-cond-26-53" x="673" y="964"/></g><g fill="#56657B"><use href="#hero-g-cond-26-80" x="258.9" y="964"/><use href="#hero-g-cond-26-89" x="274.2" y="964"/><use href="#hero-g-cond-26-84" x="289.4" y="964"/><use href="#hero-g-cond-26-72" x="303.9" y="964"/><use href="#hero-g-cond-26-79" x="321.4" y="964"/><use href="#hero-g-cond-26-78" x="339" y="964"/></g><g fill="#56657B"><use href="#hero-g-cond-26-49" x="36" y="1060"/><use href="#hero-g-cond-26-54" x="51" y="1060"/><use href="#hero-g-cond-26-77" x="70.6" y="1060"/><use href="#hero-g-cond-26-79" x="90.6" y="1060"/><use href="#hero-g-cond-26-82" x="108.2" y="1060"/><use href="#hero-g-cond-26-69" x="124.2" y="1060"/></g><g fill="#56657B"><use href="#hero-g-cond-26-51" x="657.9" y="1060"/><use href="#hero-g-cond-26-52" x="673" y="1060"/></g><g fill="#1B2A41"><use href="#hero-g-cond-26-70" x="571.4" y="528.4"/><use href="#hero-g-cond-26-108" x="584.5" y="528.4"/><use href="#hero-g-cond-26-51" x="596.4" y="528.4"/><use href="#hero-g-cond-26-48" x="610.5" y="528.4"/><use href="#hero-g-cond-26-115" x="624.5" y="528.4"/></g><g fill="#1B2A41"><use href="#hero-g-cond-26-48" x="226.4" y="624.4"/><use href="#hero-g-cond-26-46" x="240.4" y="624.4"/><use href="#hero-g-cond-26-49" x="246.8" y="624.4"/><use href="#hero-g-cond-26-46" x="260.9" y="624.4"/><use href="#hero-g-cond-26-51" x="267.3" y="624.4"/><use href="#hero-g-cond-26-183" x="286.9" y="624.4"/><use href="#hero-g-cond-26-80" x="300.1" y="624.4"/><use href="#hero-g-cond-26-121" x="314.7" y="624.4"/><use href="#hero-g-cond-26-80" x="326.5" y="624.4"/><use href="#hero-g-cond-26-73" x="340.7" y="624.4"/></g><g fill="#34465F"><use href="#hero-g-cond-26-83" x="53.3" y="1170"/></g><g fill="#34465F"><use href="#hero-g-cond-26-79" x="101" y="1170"/></g><g fill="#34465F"><use href="#hero-g-cond-26-78" x="150.2" y="1170"/></g><g fill="#34465F"><use href="#hero-g-cond-26-68" x="199.7" y="1170"/></g><g fill="#34465F"><use href="#hero-g-cond-26-74" x="251.6" y="1170"/></g><g fill="#34465F"><use href="#hero-g-cond-26-70" x="298.5" y="1170"/></g><g fill="#34465F"><use href="#hero-g-cond-26-77" x="343.1" y="1170"/></g><g fill="#34465F"><use href="#hero-g-cond-26-65" x="394.3" y="1170"/></g><g fill="#34465F"><use href="#hero-g-cond-26-77" x="441.4" y="1170"/></g><g fill="#34465F"><use href="#hero-g-cond-26-74" x="494.1" y="1170"/></g><g fill="#34465F"><use href="#hero-g-cond-26-74" x="543.2" y="1170"/></g><g fill="#34465F"><use href="#hero-g-cond-26-65" x="591.7" y="1170"/></g><g fill="#34465F"><use href="#hero-g-cond-26-83" x="641.5" y="1170"/></g><g fill="#34465F"><use href="#hero-g-cond-26-50" x="36" y="1198"/><use href="#hero-g-cond-26-48" x="50" y="1198"/><use href="#hero-g-cond-26-50" x="64.1" y="1198"/><use href="#hero-g-cond-26-53" x="78.1" y="1198"/></g><g fill="#34465F"><use href="#hero-g-cond-26-50" x="232.6" y="1198"/><use href="#hero-g-cond-26-48" x="246.6" y="1198"/><use href="#hero-g-cond-26-50" x="260.7" y="1198"/><use href="#hero-g-cond-26-54" x="274.7" y="1198"/></g><g fill="#1B2A41"><use href="#hero-g-cond-26-57" x="623" y="1198"/><use href="#hero-g-cond-26-79" x="642.5" y="1198"/><use href="#hero-g-cond-26-67" x="659.1" y="1198"/><use href="#hero-g-cond-26-84" x="673.6" y="1198"/></g>
</svg>
