<?xml version="1.0" encoding="UTF-8"?>
<!-- benjaminsrussell/profile v7 · generated by scripts/build_assets.py · do not edit by hand -->
<svg xmlns="http://www.w3.org/2000/svg" viewBox="0 0 1280 440" width="1280" height="440" role="img" aria-label="Ship's log: pip install rustmapper; rustmapper crawl --start-url example.com --workers 512; seeding, frontier, crawl, export sitemap.xml.">
<defs><clipPath id="lc1"><rect x="167.4" y="112" width="0" height="28"><animate attributeName="width" values="0;0;191;191;0" keyTimes="0;0.0286;0.1143;0.9571;1" dur="14.0s" repeatCount="indefinite"/></rect></clipPath><clipPath id="lc2"><rect x="167.4" y="172" width="0" height="28"><animate attributeName="width" values="0;0;470;470;0" keyTimes="0;0.2071;0.3571;0.9571;1" dur="14.0s" repeatCount="indefinite"/></rect></clipPath><path id="g-plex-9p5-83" d="M2.8 0.1Q1.9 0.1 1.4 -0.2Q0.8 -0.5 0.4 -1.1L1 -1.5Q1.4 -1 1.8 -0.8Q2.3 -0.6 2.9 -0.6Q3.6 -0.6 4 -0.9Q4.3 -1.2 4.3 -1.8Q4.3 -2.3 4.1 -2.6Q3.8 -2.9 3.1 -3L2.4 -3.1Q1.9 -3.2 1.6 -3.4Q1.2 -3.5 1 -3.8Q0.8 -4 0.7 -4.3Q0.7 -4.6 0.7 -4.9Q0.7 -5.8 1.3 -6.3Q1.9 -6.7 2.9 -6.7Q3.7 -6.7 4.2 -6.5Q4.8 -6.2 5.1 -5.7L4.5 -5.2Q4.3 -5.6 3.9 -5.8Q3.5 -6.1 2.9 -6.1Q2.2 -6.1 1.8 -5.8Q1.5 -5.5 1.5 -4.9Q1.5 -4.5 1.7 -4.2Q2 -3.9 2.7 -3.8L3.4 -3.7Q3.9 -3.6 4.2 -3.4Q4.6 -3.2 4.8 -3Q5 -2.8 5.1 -2.5Q5.1 -2.2 5.1 -1.9Q5.1 -0.9 4.5 -0.4Q3.9 0.1 2.8 0.1Z"/><path id="g-plex-9p5-72" d="M4.1 -3H1.6V0H0.8V-6.6H1.6V-3.7H4.1V-6.6H4.9V0H4.1Z"/><path id="g-plex-9p5-69" d="M0.9 0V-6.6H4.9V-5.9H1.7V-3.7H4.8V-3H1.7V-0.7H4.9V0Z"/><path id="g-plex-9p5-84" d="M3.2 -5.9V0H2.5V-5.9H0.2V-6.6H5.5V-5.9Z"/><path id="g-plex-9p5-53" d="M4.8 -5.9H1.8L1.6 -3.4H1.7Q1.9 -3.7 2.2 -3.9Q2.5 -4.1 3.1 -4.1Q3.5 -4.1 3.9 -4Q4.2 -3.8 4.5 -3.6Q4.8 -3.3 4.9 -2.9Q5.1 -2.6 5.1 -2.1Q5.1 -1.6 4.9 -1.2Q4.8 -0.8 4.5 -0.5Q4.2 -0.2 3.8 0Q3.3 0.1 2.8 0.1Q2.4 0.1 2.1 0Q1.7 -0.1 1.5 -0.2Q1.2 -0.4 1 -0.6Q0.8 -0.8 0.7 -1L1.3 -1.5Q1.4 -1.3 1.6 -1.1Q1.7 -0.9 1.9 -0.8Q2.1 -0.7 2.3 -0.6Q2.5 -0.6 2.8 -0.6Q3.5 -0.6 3.9 -0.9Q4.2 -1.3 4.2 -2V-2.1Q4.2 -2.7 3.9 -3.1Q3.5 -3.4 2.8 -3.4Q2.3 -3.4 2.1 -3.3Q1.8 -3.1 1.6 -2.9L0.9 -3L1.1 -6.6H4.8Z"/><path id="g-plex-9p5-183" d="M2.9 -2.2Q2.5 -2.2 2.3 -2.4Q2.1 -2.6 2.1 -2.8V-3Q2.1 -3.2 2.3 -3.4Q2.5 -3.5 2.9 -3.5Q3.2 -3.5 3.4 -3.4Q3.6 -3.2 3.6 -3V-2.8Q3.6 -2.6 3.4 -2.4Q3.2 -2.2 2.9 -2.2Z"/><path id="g-plex-9p5-73" d="M0.8 0V-0.6H2.5V-6H0.8V-6.6H4.9V-6H3.2V-0.6H4.9V0Z"/><path id="g-plex-9p5-80" d="M0.9 0V-6.6H3.3Q4.2 -6.6 4.7 -6.1Q5.2 -5.6 5.2 -4.7Q5.2 -3.8 4.7 -3.3Q4.2 -2.8 3.3 -2.8H1.7V0ZM1.7 -3.5H3.2Q3.8 -3.5 4 -3.8Q4.3 -4 4.3 -4.5V-5Q4.3 -5.4 4 -5.7Q3.8 -5.9 3.2 -5.9H1.7Z"/><path id="g-plex-9p5-39" d="M2.5 -4.4V-7H3.2V-4.4Z"/><path id="g-plex-9p5-76" d="M1.1 0V-6.6H1.9V-0.7H5.1V0Z"/><path id="g-plex-9p5-79" d="M2.9 0.1Q2.2 0.1 1.8 -0.1Q1.4 -0.4 1.1 -0.8Q0.8 -1.2 0.7 -1.9Q0.5 -2.5 0.5 -3.3Q0.5 -4.1 0.7 -4.8Q0.8 -5.4 1.1 -5.8Q1.4 -6.3 1.8 -6.5Q2.2 -6.7 2.9 -6.7Q3.5 -6.7 3.9 -6.5Q4.3 -6.3 4.6 -5.8Q4.9 -5.4 5 -4.8Q5.2 -4.1 5.2 -3.3Q5.2 -2.5 5 -1.9Q4.9 -1.2 4.6 -0.8Q4.3 -0.4 3.9 -0.1Q3.5 0.1 2.9 0.1ZM2.9 -0.6Q3.2 -0.6 3.5 -0.7Q3.8 -0.9 4 -1.2Q4.2 -1.5 4.2 -1.9Q4.3 -2.3 4.3 -2.8V-3.9Q4.3 -4.4 4.2 -4.8Q4.2 -5.2 4 -5.5Q3.8 -5.7 3.5 -5.9Q3.2 -6.1 2.9 -6.1Q2.5 -6.1 2.2 -5.9Q1.9 -5.7 1.7 -5.5Q1.5 -5.2 1.5 -4.8Q1.4 -4.4 1.4 -3.9V-2.8Q1.4 -2.3 1.5 -1.9Q1.5 -1.5 1.7 -1.2Q1.9 -0.9 2.2 -0.7Q2.5 -0.6 2.9 -0.6Z"/><path id="g-plex-9p5-71" d="M4.2 -0.9H4.2Q4.1 -0.7 4 -0.5Q3.9 -0.3 3.7 -0.2Q3.5 -0.1 3.3 0Q3 0.1 2.7 0.1Q1.6 0.1 1.1 -0.8Q0.5 -1.6 0.5 -3.3Q0.5 -5 1.1 -5.9Q1.7 -6.7 2.9 -6.7Q3.4 -6.7 3.7 -6.6Q4 -6.5 4.3 -6.3Q4.5 -6.1 4.7 -5.8Q4.9 -5.6 5 -5.3L4.3 -5Q4.2 -5.2 4.1 -5.4Q4 -5.6 3.8 -5.7Q3.7 -5.9 3.4 -6Q3.2 -6.1 2.9 -6.1Q2.1 -6.1 1.8 -5.5Q1.4 -4.9 1.4 -3.9V-2.8Q1.4 -2.3 1.5 -1.9Q1.5 -1.5 1.7 -1.2Q1.9 -0.9 2.2 -0.7Q2.4 -0.6 2.9 -0.6Q3.5 -0.6 3.9 -0.9Q4.2 -1.3 4.2 -2V-2.6H2.8V-3.3H5V0H4.2Z"/><path id="g-plex-9p5-89" d="M2.5 0V-2.6L0.2 -6.6H1.1L2 -4.9L2.8 -3.4H2.9L3.7 -4.9L4.6 -6.6H5.5L3.2 -2.6V0Z"/><path id="g-plex-9p5-68" d="M0.9 -6.6H2.8Q4 -6.6 4.6 -5.8Q5.2 -5 5.2 -3.3Q5.2 -1.7 4.6 -0.8Q4 0 2.8 0H0.9ZM2.7 -0.7Q3.5 -0.7 3.9 -1.2Q4.3 -1.8 4.3 -2.8V-3.8Q4.3 -4.8 3.9 -5.4Q3.5 -5.9 2.7 -5.9H1.7V-0.7Z"/><path id="g-plex-9p5-86" d="M2.3 0 0.3 -6.6H1.2L2.1 -3.3L2.8 -0.8H2.9L3.6 -3.3L4.5 -6.6H5.4L3.4 0Z"/><path id="g-plex-9p5-78" d="M1.5 -5.6H1.5V0H0.8V-6.6H1.9L4.2 -1H4.2V-6.6H4.9V0H3.8Z"/><path id="g-plex-9p5-85" d="M1.6 -6.6V-2.7Q1.6 -2.2 1.6 -1.8Q1.6 -1.4 1.7 -1.1Q1.9 -0.9 2.1 -0.7Q2.4 -0.6 2.9 -0.6Q3.3 -0.6 3.6 -0.7Q3.8 -0.9 4 -1.1Q4.1 -1.4 4.1 -1.8Q4.1 -2.2 4.1 -2.7V-6.6H4.9V-2.8Q4.9 -2.1 4.9 -1.5Q4.8 -1 4.6 -0.6Q4.4 -0.3 3.9 -0.1Q3.5 0.1 2.9 0.1Q2.2 0.1 1.8 -0.1Q1.3 -0.3 1.1 -0.6Q0.9 -1 0.8 -1.5Q0.8 -2.1 0.8 -2.8V-6.6Z"/><path id="g-plex-9p5-77" d="M4.3 -3.3V-5.4H4.2L2.9 -2L1.5 -5.4H1.4V-3.3V0H0.6V-6.6H1.7L2.8 -3.7H2.9L4.1 -6.6H5.1V0H4.3Z"/><path id="g-plex-9p5-66" d="M0.8 -6.6H3.1Q3.9 -6.6 4.4 -6.2Q4.9 -5.7 4.9 -4.9Q4.9 -4.3 4.6 -4Q4.3 -3.6 3.9 -3.5V-3.5Q4.4 -3.3 4.8 -3Q5.2 -2.6 5.2 -1.9Q5.2 -1.5 5 -1.2Q4.9 -0.8 4.7 -0.6Q4.4 -0.3 4.1 -0.1Q3.8 0 3.4 0H0.8ZM3.1 -0.7Q3.7 -0.7 4 -0.9Q4.3 -1.2 4.3 -1.7V-2.1Q4.3 -2.6 4 -2.8Q3.7 -3.1 3.1 -3.1H1.6V-0.7ZM3 -3.8Q3.5 -3.8 3.8 -4Q4.1 -4.2 4.1 -4.7V-5Q4.1 -5.5 3.8 -5.7Q3.5 -5.9 3 -5.9H1.6V-3.8Z"/><path id="g-plex-9p5-82" d="M1.7 0H0.9V-6.6H3.3Q4.2 -6.6 4.7 -6.1Q5.2 -5.6 5.2 -4.7Q5.2 -3.9 4.7 -3.4Q4.3 -2.9 3.5 -2.9L5.2 0H4.3L2.7 -2.8H1.7ZM3.2 -3.5Q3.8 -3.5 4 -3.8Q4.3 -4 4.3 -4.5V-5Q4.3 -5.4 4 -5.7Q3.8 -5.9 3.2 -5.9H1.7V-3.5Z"/><path id="g-plex-9p5-65" d="M4.6 0 4 -1.9H1.7L1.1 0H0.3L2.3 -6.6H3.4L5.4 0ZM2.9 -5.8H2.8L1.9 -2.6H3.8Z"/><path id="g-plex-9p5-44" d="M2.4 -1.3H3.7L2.6 1.3H1.9Z"/><path id="g-plex-9p5-67" d="M3.1 0.1Q1.9 0.1 1.3 -0.8Q0.7 -1.7 0.7 -3.3Q0.7 -5 1.3 -5.9Q1.9 -6.7 3.1 -6.7Q3.5 -6.7 3.9 -6.6Q4.2 -6.5 4.4 -6.3Q4.7 -6.1 4.8 -5.8Q5 -5.6 5.1 -5.3L4.4 -5Q4.3 -5.2 4.2 -5.4Q4.1 -5.6 4 -5.7Q3.8 -5.9 3.6 -6Q3.4 -6.1 3.1 -6.1Q2.3 -6.1 1.9 -5.5Q1.5 -4.9 1.5 -3.9V-2.8Q1.5 -1.8 1.9 -1.2Q2.3 -0.6 3.1 -0.6Q3.4 -0.6 3.6 -0.7Q3.8 -0.8 4 -0.9Q4.1 -1 4.2 -1.2Q4.3 -1.4 4.4 -1.7L5.1 -1.3Q5 -1.1 4.8 -0.8Q4.7 -0.6 4.4 -0.3Q4.2 -0.1 3.9 0Q3.5 0.1 3.1 0.1Z"/><path id="g-plex-9p5-75" d="M2.6 -3.2 1.6 -2.1V0H0.8V-6.6H1.6V-3.2H1.6L2.5 -4.3L4.5 -6.6H5.4L3.1 -3.8L5.5 0H4.6Z"/><path id="g-plex-9-84" d="M3.1 -5.6V0H2.3V-5.6H0.2V-6.3H5.2V-5.6Z"/><path id="g-plex-9-73" d="M0.8 0V-0.6H2.3V-5.7H0.8V-6.3H4.6V-5.7H3.1V-0.6H4.6V0Z"/><path id="g-plex-9-77" d="M4.1 -3.1V-5.1H4L2.7 -1.9L1.4 -5.1H1.3V-3.1V0H0.6V-6.3H1.6L2.7 -3.5H2.7L3.9 -6.3H4.8V0H4.1Z"/><path id="g-plex-9-69" d="M0.8 0V-6.3H4.7V-5.6H1.6V-3.5H4.6V-2.9H1.6V-0.7H4.7V0Z"/><path id="g-plex-9-78" d="M1.5 -5.3H1.4V0H0.7V-6.3H1.8L3.9 -1H4V-6.3H4.7V0H3.6Z"/><path id="g-plex-9-82" d="M1.6 0H0.8V-6.3H3.1Q4 -6.3 4.4 -5.8Q4.9 -5.3 4.9 -4.5Q4.9 -3.7 4.5 -3.2Q4.1 -2.8 3.3 -2.7L4.9 0H4.1L2.6 -2.7H1.6ZM3.1 -3.3Q3.6 -3.3 3.8 -3.6Q4.1 -3.8 4.1 -4.2V-4.7Q4.1 -5.1 3.8 -5.4Q3.6 -5.6 3.1 -5.6H1.6V-3.3Z"/><path id="g-plex-9-89" d="M2.3 0V-2.5L0.2 -6.3H1L1.9 -4.6L2.7 -3.2H2.7L3.5 -4.6L4.4 -6.3H5.2L3.1 -2.5V0Z"/><path id="g-plex-12-49" d="M1 0V-0.9H3.4V-7.6H3.3L1.2 -5.7L0.6 -6.3L2.9 -8.4H4.4V-0.9H6.6V0Z"/><path id="g-plex-12-52" d="M4.5 0V-1.6H0.4V-2.5L4 -8.4H5.5V-2.5H6.7V-1.6H5.5V0ZM1.3 -2.5H4.5V-7.6H4.5Z"/><path id="g-plex-12-58" d="M3.6 0.1Q3.1 0.1 2.9 -0.1Q2.7 -0.3 2.7 -0.6V-0.8Q2.7 -1.1 2.9 -1.3Q3.1 -1.5 3.6 -1.5Q4.1 -1.5 4.3 -1.3Q4.5 -1.1 4.5 -0.8V-0.6Q4.5 -0.3 4.3 -0.1Q4.1 0.1 3.6 0.1ZM3.6 -4.6Q3.1 -4.6 2.9 -4.8Q2.7 -5.1 2.7 -5.4V-5.6Q2.7 -5.9 2.9 -6.1Q3.1 -6.3 3.6 -6.3Q4.1 -6.3 4.3 -6.1Q4.5 -5.9 4.5 -5.6V-5.4Q4.5 -5.1 4.3 -4.8Q4.1 -4.6 3.6 -4.6Z"/><path id="g-plex-12-48" d="M3.6 0.1Q2.8 0.1 2.3 -0.1Q1.7 -0.4 1.4 -1Q1 -1.5 0.8 -2.4Q0.7 -3.2 0.7 -4.2Q0.7 -5.2 0.8 -6Q1 -6.8 1.4 -7.4Q1.7 -7.9 2.3 -8.2Q2.8 -8.5 3.6 -8.5Q4.4 -8.5 4.9 -8.2Q5.5 -7.9 5.8 -7.4Q6.2 -6.8 6.4 -6Q6.5 -5.2 6.5 -4.2Q6.5 -3.2 6.4 -2.4Q6.2 -1.5 5.8 -1Q5.5 -0.4 4.9 -0.1Q4.4 0.1 3.6 0.1ZM3.6 -0.7Q4.1 -0.7 4.5 -0.9Q4.8 -1.1 5 -1.5Q5.3 -1.8 5.4 -2.4Q5.5 -2.9 5.5 -3.5V-4.9Q5.5 -5.5 5.4 -6Q5.3 -6.5 5 -6.9Q4.8 -7.2 4.5 -7.4Q4.1 -7.6 3.6 -7.6Q3.1 -7.6 2.7 -7.4Q2.4 -7.2 2.2 -6.9Q1.9 -6.5 1.8 -6Q1.7 -5.5 1.7 -4.9V-3.5Q1.7 -2.9 1.8 -2.4Q1.9 -1.8 2.2 -1.5Q2.4 -1.1 2.7 -0.9Q3.1 -0.7 3.6 -0.7ZM3.6 -3.5Q3.2 -3.5 3 -3.6Q2.9 -3.8 2.9 -4.1V-4.3Q2.9 -4.6 3 -4.7Q3.2 -4.9 3.6 -4.9Q4 -4.9 4.2 -4.7Q4.3 -4.6 4.3 -4.3V-4.1Q4.3 -3.8 4.2 -3.6Q4 -3.5 3.6 -3.5Z"/><path id="g-plex-12-50" d="M6.4 0H0.9V-1L3.6 -3.6Q4.3 -4.1 4.7 -4.7Q5.1 -5.3 5.1 -5.9V-6.1Q5.1 -6.8 4.7 -7.2Q4.3 -7.6 3.5 -7.6Q2.7 -7.6 2.3 -7.3Q1.9 -6.9 1.7 -6.2L0.8 -6.6Q0.9 -6.9 1.1 -7.3Q1.3 -7.6 1.6 -7.9Q2 -8.2 2.4 -8.4Q2.9 -8.5 3.5 -8.5Q4.1 -8.5 4.6 -8.3Q5.1 -8.2 5.4 -7.8Q5.8 -7.5 5.9 -7.1Q6.1 -6.6 6.1 -6.1Q6.1 -5.6 6 -5.2Q5.8 -4.8 5.6 -4.4Q5.3 -4 5 -3.6Q4.7 -3.3 4.2 -2.9L1.9 -0.9H6.4Z"/><path id="g-plex-medium-14p5-36" d="M3.9 0.2Q2.7 0.1 1.9 -0.4Q1.1 -0.8 0.6 -1.5L1.7 -2.5Q2.2 -1.9 2.7 -1.6Q3.3 -1.3 4 -1.2V-4.5L3.6 -4.6Q2.9 -4.7 2.4 -5Q1.9 -5.2 1.6 -5.6Q1.2 -6 1.1 -6.4Q1 -6.9 1 -7.4Q1 -8.7 1.7 -9.4Q2.5 -10.1 3.9 -10.3V-11.8H5.1V-10.3Q6.1 -10.2 6.8 -9.8Q7.5 -9.4 8 -8.8L6.9 -7.8Q6.6 -8.3 6.1 -8.5Q5.6 -8.8 5 -8.9V-5.8L5.4 -5.7Q6.1 -5.6 6.7 -5.4Q7.2 -5.1 7.5 -4.7Q7.8 -4.4 8 -3.9Q8.1 -3.4 8.1 -2.9Q8.1 -1.7 7.3 -0.9Q6.6 -0.1 5.1 0.1V1.6H3.9ZM2.5 -7.5Q2.5 -6.9 2.8 -6.5Q3.2 -6.2 4 -6V-8.9Q2.5 -8.7 2.5 -7.5ZM6.6 -2.8Q6.6 -3.5 6.2 -3.8Q5.9 -4.2 5 -4.3V-1.2Q5.8 -1.3 6.2 -1.7Q6.6 -2.1 6.6 -2.8Z"/><path id="g-plex-14p5-112" d="M1.4 -7.5H2.5V-6.3H2.6Q3.3 -7.7 4.9 -7.7Q6.3 -7.7 7.1 -6.6Q7.8 -5.6 7.8 -3.7Q7.8 -1.9 7.1 -0.9Q6.3 0.2 4.9 0.2Q3.3 0.2 2.6 -1.2H2.5V2.9H1.4ZM4.5 -0.9Q5.5 -0.9 6 -1.5Q6.6 -2.1 6.6 -3.1V-4.4Q6.6 -5.4 6 -6Q5.5 -6.6 4.5 -6.6Q4.1 -6.6 3.7 -6.5Q3.4 -6.4 3.1 -6.2Q2.8 -6 2.7 -5.7Q2.5 -5.5 2.5 -5.1V-2.4Q2.5 -2 2.7 -1.7Q2.8 -1.5 3.1 -1.3Q3.4 -1.1 3.7 -1Q4.1 -0.9 4.5 -0.9Z"/><path id="g-plex-14p5-105" d="M4.8 -9.1Q4.3 -9.1 4.1 -9.3Q3.9 -9.6 3.9 -9.9V-10.1Q3.9 -10.4 4.1 -10.6Q4.3 -10.8 4.8 -10.8Q5.3 -10.8 5.5 -10.6Q5.7 -10.4 5.7 -10.1V-9.9Q5.7 -9.6 5.5 -9.3Q5.3 -9.1 4.8 -9.1ZM1.5 -1H4.2V-6.5H1.5V-7.5H5.4V-1H7.9V0H1.5Z"/><path id="g-plex-14p5-110" d="M1.4 0V-7.5H2.6V-6.3H2.6Q2.8 -6.5 2.9 -6.8Q3.1 -7 3.4 -7.2Q3.6 -7.4 4 -7.5Q4.3 -7.7 4.8 -7.7Q5.9 -7.7 6.7 -6.9Q7.4 -6.2 7.4 -4.8V0H6.2V-4.6Q6.2 -5.6 5.8 -6.1Q5.3 -6.6 4.4 -6.6Q4.1 -6.6 3.8 -6.5Q3.4 -6.5 3.2 -6.3Q2.9 -6.1 2.7 -5.8Q2.6 -5.6 2.6 -5.2V0Z"/><path id="g-plex-14p5-115" d="M4.4 0.2Q3.3 0.2 2.4 -0.2Q1.6 -0.6 1 -1.3L1.8 -2Q2.3 -1.4 2.9 -1.1Q3.6 -0.8 4.5 -0.8Q5.3 -0.8 5.9 -1.1Q6.5 -1.4 6.5 -2.1Q6.5 -2.4 6.3 -2.6Q6.2 -2.8 6 -2.9Q5.9 -3 5.6 -3.1Q5.4 -3.1 5.1 -3.2L4 -3.3Q3.6 -3.4 3.1 -3.5Q2.7 -3.6 2.3 -3.8Q1.9 -4.1 1.6 -4.4Q1.4 -4.8 1.4 -5.4Q1.4 -6 1.6 -6.4Q1.8 -6.8 2.2 -7.1Q2.7 -7.4 3.2 -7.5Q3.8 -7.7 4.4 -7.7Q5.4 -7.7 6.2 -7.3Q6.9 -7 7.5 -6.5L6.7 -5.7Q6.6 -5.9 6.4 -6.1Q6.2 -6.2 5.9 -6.4Q5.6 -6.5 5.2 -6.6Q4.9 -6.7 4.4 -6.7Q3.5 -6.7 3 -6.4Q2.5 -6.1 2.5 -5.5Q2.5 -5.2 2.6 -5Q2.8 -4.8 2.9 -4.7Q3.1 -4.6 3.4 -4.5Q3.6 -4.5 3.9 -4.4L5 -4.2Q5.4 -4.2 5.9 -4.1Q6.3 -4 6.7 -3.7Q7.1 -3.5 7.3 -3.1Q7.6 -2.8 7.6 -2.2Q7.6 -1 6.7 -0.4Q5.9 0.2 4.4 0.2Z"/><path id="g-plex-14p5-116" d="M4.7 0Q3.9 0 3.5 -0.5Q3.1 -1 3.1 -1.7V-6.5H0.6V-7.5H2.4Q2.8 -7.5 3 -7.6Q3.1 -7.8 3.1 -8.2V-10.1H4.2V-7.5H7.6V-6.5H4.2V-1H7.6V0Z"/><path id="g-plex-14p5-97" d="M7.2 0Q6.5 0 6.2 -0.3Q5.9 -0.7 5.8 -1.2H5.8Q5.5 -0.6 5 -0.2Q4.4 0.2 3.5 0.2Q2.3 0.2 1.7 -0.4Q1 -1 1 -2.1Q1 -3.1 1.7 -3.7Q2.5 -4.3 4.2 -4.3H5.8V-5Q5.8 -5.8 5.3 -6.3Q4.8 -6.7 4 -6.7Q3.2 -6.7 2.8 -6.4Q2.3 -6.1 2 -5.6L1.2 -6.1Q1.3 -6.4 1.6 -6.7Q1.8 -7 2.2 -7.2Q2.6 -7.4 3 -7.5Q3.5 -7.7 4.1 -7.7Q5.4 -7.7 6.2 -7Q6.9 -6.3 6.9 -5.1V-1H8V0ZM3.7 -0.8Q4.2 -0.8 4.5 -0.9Q4.9 -1 5.2 -1.2Q5.5 -1.4 5.6 -1.6Q5.8 -1.9 5.8 -2.2V-3.4H4.2Q3.1 -3.4 2.7 -3.1Q2.2 -2.8 2.2 -2.3V-2Q2.2 -1.4 2.6 -1.1Q3 -0.8 3.7 -0.8Z"/><path id="g-plex-14p5-108" d="M1.2 -1H3.8V-9.7H1.2V-10.7H4.9V-1H7.5V0H1.2Z"/><path id="g-plex-14p5-114" d="M1.1 -1H3.3V-6.5H1.1V-7.5H4.5V-5.6H4.5Q4.8 -6.5 5.4 -7Q6.1 -7.5 7.1 -7.5H8.1V-6.3H6.7Q5.7 -6.3 5.1 -5.7Q4.5 -5.2 4.5 -4.2V-1H7.4V0H1.1Z"/><path id="g-plex-14p5-117" d="M6.1 -1.2H6.1Q5.9 -0.9 5.8 -0.7Q5.6 -0.4 5.3 -0.2Q5.1 -0.1 4.7 0.1Q4.4 0.2 3.9 0.2Q2.8 0.2 2 -0.6Q1.3 -1.3 1.3 -2.7V-7.5H2.5V-2.9Q2.5 -1.9 2.9 -1.4Q3.4 -0.9 4.3 -0.9Q4.6 -0.9 4.9 -0.9Q5.3 -1 5.5 -1.2Q5.8 -1.4 6 -1.6Q6.1 -1.9 6.1 -2.3V-7.5H7.3V0H6.1Z"/><path id="g-plex-14p5-109" d="M0.8 0V-7.5H1.9V-6.6H1.9Q2.1 -7 2.4 -7.4Q2.7 -7.7 3.3 -7.7Q4 -7.7 4.3 -7.3Q4.6 -7 4.7 -6.5H4.8Q5 -7 5.3 -7.3Q5.7 -7.7 6.4 -7.7Q7.3 -7.7 7.6 -7Q7.9 -6.4 7.9 -5.2V0H6.8V-5Q6.8 -6 6.6 -6.3Q6.5 -6.7 5.9 -6.7Q5.5 -6.7 5.2 -6.4Q4.9 -6.1 4.9 -5.5V0H3.8V-5Q3.8 -6 3.6 -6.3Q3.4 -6.7 2.9 -6.7Q2.5 -6.7 2.2 -6.4Q1.9 -6.1 1.9 -5.5V0Z"/><path id="g-plex-14p5-101" d="M4.5 0.2Q3.7 0.2 3 -0.1Q2.4 -0.4 1.9 -0.9Q1.5 -1.4 1.2 -2.1Q1 -2.8 1 -3.7Q1 -4.6 1.2 -5.4Q1.5 -6.1 1.9 -6.6Q2.4 -7.1 3 -7.4Q3.6 -7.7 4.4 -7.7Q5.2 -7.7 5.8 -7.4Q6.4 -7.1 6.8 -6.6Q7.3 -6.1 7.5 -5.5Q7.7 -4.8 7.7 -4V-3.5H2.2V-3.1Q2.2 -2.6 2.3 -2.2Q2.5 -1.8 2.8 -1.5Q3.1 -1.2 3.5 -1Q4 -0.8 4.5 -0.8Q5.2 -0.8 5.8 -1.2Q6.3 -1.5 6.6 -2.1L7.5 -1.6Q7.1 -0.8 6.4 -0.3Q5.6 0.2 4.5 0.2ZM4.4 -6.7Q3.9 -6.7 3.5 -6.5Q3.1 -6.4 2.8 -6Q2.5 -5.7 2.4 -5.3Q2.2 -4.9 2.2 -4.4V-4.3H6.5V-4.5Q6.5 -5 6.3 -5.4Q6.2 -5.8 5.9 -6.1Q5.6 -6.4 5.3 -6.5Q4.9 -6.7 4.4 -6.7Z"/><path id="g-plex-14p5-83" d="M4.3 0.2Q3 0.2 2.1 -0.3Q1.2 -0.8 0.7 -1.6L1.5 -2.3Q2.1 -1.6 2.8 -1.2Q3.5 -0.9 4.4 -0.9Q5.5 -0.9 6 -1.4Q6.6 -1.9 6.6 -2.8Q6.6 -3.5 6.2 -4Q5.8 -4.4 4.7 -4.5L3.6 -4.7Q2.9 -4.9 2.4 -5.1Q1.9 -5.4 1.6 -5.7Q1.3 -6.1 1.1 -6.6Q1 -7 1 -7.5Q1 -8.9 1.9 -9.6Q2.8 -10.3 4.4 -10.3Q5.6 -10.3 6.4 -9.9Q7.3 -9.5 7.8 -8.7L6.9 -8Q6.5 -8.6 5.9 -8.9Q5.3 -9.3 4.4 -9.3Q3.3 -9.3 2.8 -8.8Q2.2 -8.4 2.2 -7.5Q2.2 -6.8 2.6 -6.4Q3.1 -6 4.1 -5.8L5.2 -5.6Q6 -5.5 6.5 -5.2Q7 -4.9 7.3 -4.6Q7.6 -4.2 7.7 -3.8Q7.9 -3.3 7.9 -2.8Q7.9 -1.4 6.9 -0.6Q6 0.2 4.3 0.2Z"/><path id="g-plex-14p5-99" d="M4.6 0.2Q3.8 0.2 3.2 -0.1Q2.5 -0.4 2.1 -0.9Q1.7 -1.4 1.4 -2.1Q1.2 -2.9 1.2 -3.7Q1.2 -4.6 1.5 -5.4Q1.7 -6.1 2.1 -6.6Q2.6 -7.1 3.2 -7.4Q3.8 -7.7 4.6 -7.7Q5.7 -7.7 6.4 -7.2Q7 -6.7 7.4 -5.9L6.4 -5.4Q6.2 -6 5.8 -6.3Q5.3 -6.7 4.6 -6.7Q4.1 -6.7 3.7 -6.5Q3.3 -6.3 3 -6Q2.7 -5.7 2.6 -5.3Q2.5 -4.9 2.5 -4.4V-3.1Q2.5 -2.6 2.6 -2.2Q2.7 -1.8 3 -1.5Q3.3 -1.2 3.7 -1Q4.1 -0.8 4.6 -0.8Q5.4 -0.8 5.9 -1.2Q6.4 -1.5 6.7 -2.1L7.5 -1.6Q7.1 -0.8 6.4 -0.3Q5.7 0.2 4.6 0.2Z"/><path id="g-plex-14p5-102" d="M1.2 -1H3.7V-6.5H1.1V-7.5H3.7V-9Q3.7 -9.8 4.1 -10.3Q4.5 -10.7 5.4 -10.7H7.9V-9.7H4.9V-7.5H7.9V-6.5H4.9V-1H7.6V0H1.2Z"/><path id="g-plex-14p5-121" d="M6.8 -7.5H7.9L4.2 1.6Q4.1 2 3.9 2.2Q3.8 2.4 3.6 2.6Q3.3 2.7 3 2.8Q2.7 2.9 2.3 2.9H1.2V1.9H2.9L3.8 -0.1L0.8 -7.5H2L3.2 -4.4L4.3 -1.5H4.4L5.5 -4.4Z"/><path id="g-plex-14p5-100" d="M6.2 -1.2H6.1Q5.4 0.2 3.8 0.2Q2.4 0.2 1.6 -0.9Q0.9 -1.9 0.9 -3.7Q0.9 -5.6 1.6 -6.6Q2.4 -7.7 3.8 -7.7Q5.4 -7.7 6.1 -6.3H6.2V-10.7H7.3V0H6.2ZM4.2 -0.9Q4.6 -0.9 5 -1Q5.3 -1.1 5.6 -1.3Q5.9 -1.5 6 -1.7Q6.2 -2 6.2 -2.4V-5.1Q6.2 -5.5 6 -5.7Q5.9 -6 5.6 -6.2Q5.3 -6.4 5 -6.5Q4.6 -6.6 4.2 -6.6Q3.2 -6.6 2.7 -6Q2.1 -5.4 2.1 -4.4V-3.1Q2.1 -2.1 2.7 -1.5Q3.2 -0.9 4.2 -0.9Z"/><path id="g-plex-14p5-45" d="M2.2 -3.8V-5H6.5V-3.8Z"/><path id="g-plex-14p5-48" d="M4.4 0.2Q3.4 0.2 2.8 -0.2Q2.1 -0.5 1.7 -1.2Q1.2 -1.9 1 -2.8Q0.8 -3.8 0.8 -5.1Q0.8 -6.3 1 -7.3Q1.2 -8.3 1.7 -8.9Q2.1 -9.6 2.8 -9.9Q3.4 -10.3 4.4 -10.3Q5.3 -10.3 5.9 -9.9Q6.6 -9.6 7 -8.9Q7.5 -8.3 7.7 -7.3Q7.9 -6.3 7.9 -5.1Q7.9 -3.8 7.7 -2.8Q7.5 -1.9 7 -1.2Q6.6 -0.5 5.9 -0.2Q5.3 0.2 4.4 0.2ZM4.4 -0.9Q5 -0.9 5.4 -1.1Q5.8 -1.4 6.1 -1.8Q6.4 -2.2 6.5 -2.8Q6.6 -3.5 6.6 -4.2V-5.9Q6.6 -6.6 6.5 -7.3Q6.4 -7.9 6.1 -8.3Q5.8 -8.8 5.4 -9Q5 -9.2 4.4 -9.2Q3.7 -9.2 3.3 -9Q2.9 -8.8 2.6 -8.3Q2.3 -7.9 2.2 -7.3Q2.1 -6.6 2.1 -5.9V-4.2Q2.1 -3.5 2.2 -2.8Q2.3 -2.2 2.6 -1.8Q2.9 -1.4 3.3 -1.1Q3.7 -0.9 4.4 -0.9ZM4.4 -4.2Q3.8 -4.2 3.6 -4.4Q3.5 -4.6 3.5 -4.9V-5.2Q3.5 -5.5 3.6 -5.7Q3.8 -5.9 4.4 -5.9Q4.9 -5.9 5.1 -5.7Q5.2 -5.5 5.2 -5.2V-4.9Q5.2 -4.6 5.1 -4.4Q4.9 -4.2 4.4 -4.2Z"/><path id="g-plex-14p5-46" d="M4.4 0.1Q3.8 0.1 3.5 -0.1Q3.3 -0.4 3.3 -0.7V-1Q3.3 -1.4 3.5 -1.6Q3.8 -1.9 4.4 -1.9Q4.9 -1.9 5.2 -1.6Q5.4 -1.4 5.4 -1V-0.7Q5.4 -0.4 5.2 -0.1Q4.9 0.1 4.4 0.1Z"/><path id="g-plex-14p5-49" d="M1.2 0V-1.1H4.1V-9.2H4L1.5 -6.8L0.8 -7.6L3.5 -10.1H5.4V-1.1H8V0Z"/><path id="g-plex-14p5-51" d="M3.9 -5.8Q5 -5.8 5.5 -6.3Q6 -6.8 6 -7.5V-7.6Q6 -8.4 5.5 -8.8Q5 -9.2 4.2 -9.2Q3.4 -9.2 2.9 -8.9Q2.4 -8.5 2 -7.9L1.1 -8.6Q1.3 -8.9 1.6 -9.2Q1.9 -9.5 2.2 -9.8Q2.6 -10 3.1 -10.2Q3.6 -10.3 4.2 -10.3Q4.9 -10.3 5.4 -10.1Q6 -10 6.4 -9.6Q6.8 -9.3 7.1 -8.8Q7.3 -8.4 7.3 -7.7Q7.3 -7.2 7.2 -6.9Q7 -6.5 6.7 -6.2Q6.5 -5.9 6.1 -5.7Q5.7 -5.5 5.3 -5.4V-5.3Q5.8 -5.2 6.1 -5Q6.5 -4.8 6.8 -4.5Q7.1 -4.2 7.3 -3.8Q7.5 -3.3 7.5 -2.8Q7.5 -2.1 7.3 -1.6Q7 -1 6.5 -0.6Q6.1 -0.3 5.4 0Q4.8 0.2 4 0.2Q3.3 0.2 2.8 0Q2.3 -0.1 1.9 -0.4Q1.5 -0.6 1.2 -0.9Q0.9 -1.2 0.7 -1.6L1.6 -2.2Q1.8 -1.9 2 -1.7Q2.2 -1.5 2.5 -1.3Q2.8 -1.1 3.2 -1Q3.5 -0.9 4 -0.9Q5.1 -0.9 5.7 -1.4Q6.2 -1.9 6.2 -2.8V-2.9Q6.2 -3.8 5.7 -4.3Q5.1 -4.8 4 -4.8H2.8V-5.8Z"/><path id="g-plex-12-51" d="M3.2 -4.8Q4.1 -4.8 4.6 -5.2Q5 -5.6 5 -6.2V-6.3Q5 -7 4.6 -7.3Q4.1 -7.6 3.5 -7.6Q2.8 -7.6 2.4 -7.3Q2 -7.1 1.7 -6.6L0.9 -7.2Q1.1 -7.4 1.3 -7.7Q1.5 -7.9 1.9 -8.1Q2.2 -8.3 2.6 -8.4Q3 -8.5 3.5 -8.5Q4 -8.5 4.5 -8.4Q5 -8.2 5.3 -8Q5.7 -7.7 5.8 -7.3Q6 -6.9 6 -6.4Q6 -6 5.9 -5.7Q5.8 -5.4 5.6 -5.1Q5.4 -4.9 5.1 -4.7Q4.8 -4.5 4.4 -4.5V-4.4Q4.8 -4.3 5.1 -4.2Q5.4 -4 5.7 -3.8Q5.9 -3.5 6.1 -3.1Q6.2 -2.8 6.2 -2.3Q6.2 -1.8 6 -1.3Q5.8 -0.9 5.4 -0.5Q5 -0.2 4.5 0Q4 0.1 3.3 0.1Q2.8 0.1 2.3 0Q1.9 -0.1 1.6 -0.3Q1.3 -0.5 1 -0.8Q0.8 -1 0.6 -1.3L1.3 -1.9Q1.5 -1.6 1.7 -1.4Q1.9 -1.2 2.1 -1.1Q2.3 -0.9 2.6 -0.8Q2.9 -0.7 3.3 -0.7Q4.2 -0.7 4.7 -1.1Q5.2 -1.5 5.2 -2.3V-2.4Q5.2 -3.1 4.7 -3.6Q4.2 -4 3.3 -4H2.3V-4.8Z"/><path id="g-plex-14p5-119" d="M0.4 -7.5H1.5L2.3 -1H2.5L3.7 -7.5H5L6.3 -1H6.4L7.3 -7.5H8.3L7.1 0H5.6L4.4 -6.3H4.3L3.1 0H1.6Z"/><path id="g-plex-14p5-120" d="M0.9 0 3.7 -3.8 1 -7.5H2.3L3.5 -5.9L4.4 -4.7H4.4L5.3 -5.9L6.4 -7.5H7.8L5 -3.8L7.8 0H6.4L5.2 -1.8L4.3 -2.9H4.3L3.4 -1.8L2.2 0Z"/><path id="g-plex-14p5-111" d="M4.4 0.2Q3.6 0.2 2.9 -0.1Q2.3 -0.4 1.9 -0.9Q1.4 -1.4 1.2 -2.1Q1 -2.8 1 -3.7Q1 -4.6 1.2 -5.4Q1.4 -6.1 1.9 -6.6Q2.3 -7.1 2.9 -7.4Q3.6 -7.7 4.4 -7.7Q5.1 -7.7 5.8 -7.4Q6.4 -7.1 6.8 -6.6Q7.3 -6.1 7.5 -5.4Q7.7 -4.6 7.7 -3.7Q7.7 -2.8 7.5 -2.1Q7.3 -1.4 6.8 -0.9Q6.4 -0.4 5.8 -0.1Q5.1 0.2 4.4 0.2ZM4.4 -0.8Q5.3 -0.8 5.9 -1.4Q6.5 -2 6.5 -3.2V-4.3Q6.5 -5.5 5.9 -6.1Q5.3 -6.7 4.4 -6.7Q3.4 -6.7 2.8 -6.1Q2.2 -5.5 2.2 -4.3V-3.2Q2.2 -2 2.8 -1.4Q3.4 -0.8 4.4 -0.8Z"/><path id="g-plex-14p5-107" d="M1.5 -10.7H2.7V-4H2.7L4 -5.2L6.5 -7.5H8L4.9 -4.6L8.3 0H6.9L4 -3.9L2.7 -2.7V0H1.5Z"/><path id="g-plex-14p5-53" d="M7.3 -9.1H2.7L2.5 -5.2H2.6Q2.9 -5.7 3.4 -6Q3.9 -6.3 4.7 -6.3Q5.3 -6.3 5.9 -6.1Q6.5 -5.9 6.9 -5.5Q7.3 -5.1 7.5 -4.5Q7.7 -3.9 7.7 -3.2Q7.7 -2.4 7.5 -1.8Q7.3 -1.2 6.8 -0.8Q6.4 -0.3 5.7 -0.1Q5.1 0.2 4.3 0.2Q3.6 0.2 3.1 0Q2.6 -0.1 2.3 -0.4Q1.9 -0.6 1.6 -0.9Q1.3 -1.2 1.1 -1.6L2 -2.2Q2.2 -1.9 2.4 -1.7Q2.6 -1.5 2.9 -1.3Q3.1 -1.1 3.5 -1Q3.8 -0.9 4.3 -0.9Q5.4 -0.9 5.9 -1.5Q6.5 -2 6.5 -3V-3.1Q6.5 -4.1 5.9 -4.7Q5.3 -5.3 4.3 -5.3Q3.6 -5.3 3.2 -5Q2.8 -4.8 2.4 -4.4L1.4 -4.6L1.8 -10.1H7.3Z"/><path id="g-plex-14p5-50" d="M7.8 0H1V-1.2L4.4 -4.3Q5.1 -5 5.6 -5.7Q6.1 -6.4 6.1 -7.1V-7.3Q6.1 -8.2 5.6 -8.7Q5.1 -9.2 4.2 -9.2Q3.3 -9.2 2.8 -8.8Q2.3 -8.3 2 -7.5L0.9 -7.9Q1.1 -8.4 1.3 -8.8Q1.6 -9.2 2 -9.6Q2.4 -9.9 2.9 -10.1Q3.5 -10.3 4.2 -10.3Q5 -10.3 5.6 -10.1Q6.2 -9.9 6.6 -9.5Q7 -9.1 7.2 -8.5Q7.4 -8 7.4 -7.4Q7.4 -6.8 7.2 -6.3Q7 -5.8 6.7 -5.3Q6.5 -4.8 6 -4.4Q5.6 -4 5.1 -3.5L2.3 -1.1H7.8Z"/><path id="g-plex-14p5-103" d="M8.1 0.9Q8.1 2 7.2 2.5Q6.2 3.1 4.4 3.1Q2.6 3.1 1.8 2.6Q1 2.1 1 1.2Q1 0.6 1.3 0.3Q1.6 -0.1 2.2 -0.2V-0.4Q1.9 -0.6 1.7 -0.8Q1.5 -1 1.5 -1.4Q1.5 -2 1.9 -2.3Q2.3 -2.6 2.9 -2.7V-2.8Q2.2 -3.1 1.8 -3.7Q1.4 -4.3 1.4 -5.1Q1.4 -5.6 1.6 -6.1Q1.8 -6.6 2.2 -6.9Q2.6 -7.3 3.1 -7.5Q3.7 -7.7 4.3 -7.7Q5.1 -7.7 5.8 -7.4V-7.5Q5.8 -7.9 6 -8.2Q6.2 -8.5 6.7 -8.5H8.1V-7.5H6.4V-7Q6.8 -6.6 7 -6.1Q7.2 -5.7 7.2 -5.1Q7.2 -4.5 7 -4Q6.8 -3.6 6.4 -3.2Q6 -2.9 5.5 -2.7Q5 -2.5 4.3 -2.5Q4.1 -2.5 3.9 -2.5Q3.8 -2.5 3.6 -2.6Q3.4 -2.5 3.2 -2.5Q3 -2.4 2.9 -2.3Q2.7 -2.2 2.6 -2Q2.5 -1.9 2.5 -1.7Q2.5 -1.4 2.9 -1.3Q3.2 -1.1 3.7 -1.1H5.4Q6.8 -1.1 7.5 -0.6Q8.1 -0.1 8.1 0.9ZM7 0.9Q7 0.5 6.7 0.2Q6.3 -0.1 5.4 -0.1H2.8Q2.1 0.2 2.1 0.9Q2.1 1.4 2.5 1.8Q2.9 2.1 3.8 2.1H4.9Q5.9 2.1 6.5 1.8Q7 1.5 7 0.9ZM4.3 -3.4Q5.2 -3.4 5.6 -3.8Q6 -4.2 6 -4.9V-5.3Q6 -6 5.6 -6.4Q5.2 -6.8 4.3 -6.8Q3.4 -6.8 3 -6.4Q2.6 -6 2.6 -5.3V-4.9Q2.6 -4.2 3 -3.8Q3.4 -3.4 4.3 -3.4Z"/><path id="g-plex-14p5-10003" d="M0.7 -7 1.8 -7.3 2.8 -4.4 3.9 -1.3H4L5.2 -4.4L7.6 -10.3L8.6 -10L4.6 0H3.3Z"/><path id="g-plex-14p5-54" d="M4.4 0.2Q3.6 0.2 2.9 -0.1Q2.3 -0.4 1.8 -0.9Q1.4 -1.4 1.2 -2.1Q0.9 -2.8 0.9 -3.7Q0.9 -4.8 1.3 -5.8Q1.6 -6.8 2.1 -7.6Q2.7 -8.5 3.3 -9.1Q4 -9.7 4.6 -10.1H6.2Q5.3 -9.5 4.7 -9Q4 -8.4 3.6 -7.8Q3.1 -7.2 2.7 -6.5Q2.4 -5.8 2.2 -4.9L2.2 -4.8Q2.6 -5.5 3.2 -5.9Q3.8 -6.3 4.7 -6.3Q5.4 -6.3 6 -6.1Q6.5 -5.9 6.9 -5.5Q7.3 -5 7.5 -4.5Q7.8 -3.9 7.8 -3.2Q7.8 -2.4 7.5 -1.8Q7.3 -1.2 6.8 -0.8Q6.4 -0.3 5.8 -0.1Q5.1 0.2 4.4 0.2ZM4.4 -0.9Q5.4 -0.9 6 -1.4Q6.5 -2 6.5 -3V-3.1Q6.5 -4.2 6 -4.7Q5.4 -5.3 4.4 -5.3Q3.3 -5.3 2.7 -4.7Q2.2 -4.2 2.2 -3.1V-3Q2.2 -2 2.7 -1.4Q3.3 -0.9 4.4 -0.9Z"/><path id="g-plex-14p5-104" d="M1.4 -10.7H2.6V-6.3H2.6Q2.8 -6.5 2.9 -6.8Q3.1 -7 3.4 -7.2Q3.6 -7.4 4 -7.5Q4.3 -7.7 4.8 -7.7Q5.9 -7.7 6.7 -6.9Q7.4 -6.2 7.4 -4.8V0H6.2V-4.6Q6.2 -5.6 5.8 -6.1Q5.3 -6.6 4.4 -6.6Q4.1 -6.6 3.8 -6.5Q3.4 -6.5 3.2 -6.3Q2.9 -6.1 2.7 -5.8Q2.6 -5.6 2.6 -5.2V0H1.4Z"/><path id="g-plex-14p5-183" d="M4.4 -3.4Q3.8 -3.4 3.5 -3.7Q3.3 -3.9 3.3 -4.3V-4.5Q3.3 -4.9 3.5 -5.2Q3.8 -5.4 4.4 -5.4Q4.9 -5.4 5.2 -5.2Q5.4 -4.9 5.4 -4.5V-4.3Q5.4 -3.9 5.2 -3.7Q4.9 -3.4 4.4 -3.4Z"/><path id="g-plex-14p5-52" d="M5.5 0V-2H0.5V-3.1L4.9 -10.1H6.6V-3H8.1V-2H6.6V0ZM1.6 -3H5.5V-9.2H5.4Z"/><path id="g-plex-14p5-56" d="M4.4 0.2Q3.5 0.2 2.8 -0.1Q2.1 -0.3 1.7 -0.7Q1.2 -1.1 1 -1.6Q0.8 -2.1 0.8 -2.8Q0.8 -3.8 1.4 -4.4Q1.9 -5 2.9 -5.3V-5.4Q2 -5.7 1.6 -6.3Q1.1 -6.9 1.1 -7.8Q1.1 -8.9 2 -9.6Q2.8 -10.3 4.4 -10.3Q5.9 -10.3 6.7 -9.6Q7.6 -8.9 7.6 -7.8Q7.6 -6.9 7.1 -6.3Q6.7 -5.7 5.8 -5.4V-5.3Q6.8 -5 7.3 -4.4Q7.9 -3.8 7.9 -2.8Q7.9 -2.1 7.7 -1.6Q7.5 -1.1 7 -0.7Q6.6 -0.3 5.9 -0.1Q5.2 0.2 4.4 0.2ZM4.4 -0.9Q5.4 -0.9 6 -1.3Q6.6 -1.8 6.6 -2.7V-3Q6.6 -3.9 6 -4.3Q5.4 -4.8 4.4 -4.8Q3.3 -4.8 2.7 -4.3Q2.1 -3.9 2.1 -3V-2.7Q2.1 -1.8 2.7 -1.3Q3.3 -0.9 4.4 -0.9ZM4.4 -5.8Q5.3 -5.8 5.9 -6.2Q6.4 -6.7 6.4 -7.4V-7.6Q6.4 -8.4 5.8 -8.8Q5.3 -9.3 4.4 -9.3Q3.4 -9.3 2.9 -8.8Q2.3 -8.4 2.3 -7.6V-7.4Q2.3 -6.7 2.8 -6.2Q3.4 -5.8 4.4 -5.8Z"/><path id="g-plex-14p5-44" d="M3.7 -2H5.6L3.9 2H3Z"/><path id="g-plex-14p5-118" d="M3.6 0 0.9 -7.5H2.1L3.2 -4.4L4.3 -1H4.4L5.6 -4.4L6.6 -7.5H7.8L5.1 0Z"/><path id="g-plex-12-56" d="M3.6 0.1Q2.9 0.1 2.3 0Q1.8 -0.2 1.4 -0.6Q1 -0.9 0.8 -1.3Q0.7 -1.8 0.7 -2.3Q0.7 -3.1 1.1 -3.6Q1.6 -4.2 2.4 -4.4V-4.5Q1.7 -4.7 1.3 -5.2Q0.9 -5.7 0.9 -6.4Q0.9 -7.4 1.6 -7.9Q2.3 -8.5 3.6 -8.5Q4.9 -8.5 5.6 -7.9Q6.3 -7.4 6.3 -6.4Q6.3 -5.7 5.9 -5.2Q5.5 -4.7 4.8 -4.5V-4.4Q5.6 -4.2 6.1 -3.6Q6.5 -3.1 6.5 -2.3Q6.5 -1.8 6.4 -1.3Q6.2 -0.9 5.8 -0.6Q5.4 -0.2 4.9 0Q4.3 0.1 3.6 0.1ZM3.6 -0.7Q4.5 -0.7 5 -1.1Q5.5 -1.5 5.5 -2.2V-2.5Q5.5 -3.2 5 -3.6Q4.5 -4 3.6 -4Q2.7 -4 2.2 -3.6Q1.7 -3.2 1.7 -2.5V-2.2Q1.7 -1.5 2.2 -1.1Q2.7 -0.7 3.6 -0.7ZM3.6 -4.8Q4.4 -4.8 4.8 -5.2Q5.3 -5.5 5.3 -6.2V-6.3Q5.3 -7 4.8 -7.3Q4.4 -7.7 3.6 -7.7Q2.8 -7.7 2.4 -7.3Q1.9 -7 1.9 -6.3V-6.2Q1.9 -5.5 2.4 -5.2Q2.8 -4.8 3.6 -4.8Z"/></defs><rect x="0.5" y="0.5" width="1279" height="439" rx="10" fill="#F4EEE1" stroke="#CDC3AE"/><rect x="14" y="14" width="1252" height="412" fill="none" stroke="#1B2A41" stroke-width="0.9" stroke-opacity=".8"/><rect x="19" y="19" width="1242" height="402" fill="none" stroke="#1B2A41" stroke-width="0.5" stroke-opacity=".6"/><line x1="36" y1="140" x2="1244" y2="140" stroke="#CDC3AE" stroke-width="0.8"/><line x1="36" y1="170" x2="1244" y2="170" stroke="#CDC3AE" stroke-width="0.8"/><line x1="36" y1="200" x2="1244" y2="200" stroke="#CDC3AE" stroke-width="0.8"/><line x1="36" y1="230" x2="1244" y2="230" stroke="#CDC3AE" stroke-width="0.8"/><line x1="36" y1="260" x2="1244" y2="260" stroke="#CDC3AE" stroke-width="0.8"/><line x1="36" y1="290" x2="1244" y2="290" stroke="#CDC3AE" stroke-width="0.8"/><line x1="36" y1="320" x2="1244" y2="320" stroke="#CDC3AE" stroke-width="0.8"/><line x1="36" y1="350" x2="1244" y2="350" stroke="#CDC3AE" stroke-width="0.8"/><line x1="36" y1="380" x2="1244" y2="380" stroke="#CDC3AE" stroke-width="0.8"/><line x1="36" y1="410" x2="1244" y2="410" stroke="#CDC3AE" stroke-width="0.8"/><line x1="134" y1="100" x2="134" y2="410" stroke="#D9442B" stroke-width="1" stroke-opacity=".5"/><path d="M47.3 70Q46.9 70 46.9 69.7Q46.9 69.4 47.5 69.3L48.1 69.2Q48.8 69.1 49 68.9Q49.3 68.7 49.4 68L53.5 50.4Q53.6 49.8 53.5 49.5Q53.3 49.3 52.7 49.2L52.1 49.1Q51.8 49 51.8 48.8Q51.8 48.4 52.3 48.4H57.7Q58.2 48.4 58.1 48.8Q58 49 57.7 49.1L56.9 49.2Q56.2 49.3 56 49.5Q55.7 49.8 55.6 50.4L51.7 67.2Q51.4 68.3 52 68.8Q52.5 69.2 53.5 69.2Q54.7 69.2 55.9 68.4Q57.1 67.5 57.8 65.7L58.7 63.5Q58.9 63.2 59.2 63.2Q59.7 63.2 59.5 63.7L57.8 69.3Q57.7 70 56.9 70Z M65 70.3Q63.2 70.3 62.1 68.7Q61 67.2 61 64.5Q61 62.6 61.7 60.8Q62.3 59 63.3 57.6Q64.3 56.2 65.6 55.3Q66.9 54.5 68.2 54.5Q70 54.5 71.1 56Q72.2 57.6 72.2 60.2Q72.2 62.2 71.6 64Q71 65.8 69.9 67.2Q68.9 68.6 67.6 69.4Q66.3 70.3 65 70.3ZM65 69.5Q65.9 69.5 66.9 68.6Q67.8 67.7 68.5 66.2Q69.3 64.6 69.7 62.8Q70.2 60.9 70.2 59Q70.2 55.2 68.2 55.2Q67.3 55.2 66.4 56.2Q65.4 57.1 64.7 58.6Q64 60.1 63.5 62Q63.1 63.9 63.1 65.8Q63.1 69.5 65 69.5Z M75.4 76.5Q73 76.5 71.8 75.6Q70.6 74.7 70.6 73.5Q70.6 72.5 71.4 71.5Q72.2 70.5 74.4 69.2Q74.8 69 74.8 68.8Q74.9 68.6 74.5 68.3Q73.7 67.8 73.5 67.1Q73.4 66.4 73.9 66.1L76.2 64.8Q76.5 64.6 76.5 64.4Q76.5 64.2 76.2 64Q75.4 63.5 75 62.6Q74.6 61.7 74.6 60.7Q74.6 59 75.3 57.7Q76.1 56.3 77.5 55.4Q78.8 54.5 80.5 54.5Q81.2 54.5 81.6 54.7Q82 54.8 82.2 54.5Q82.7 53.4 83.5 52.7Q84.3 52.1 85.1 52.1Q85.8 52.1 86.1 52.4Q86.5 52.7 86.5 53.3Q86.5 53.9 86.1 54.2Q85.8 54.6 85.3 54.6Q84.9 54.6 84.7 54.4Q84.5 54.3 84.4 54.1Q84.2 54 83.9 54Q83.2 54 82.8 54.7Q82.7 55 82.8 55.2Q82.8 55.5 83 55.7Q83.8 56.7 83.8 58.3Q83.8 59.7 83.2 61Q82.6 62.2 81.5 63.1Q80.4 64 79.1 64.3Q78.5 64.4 78.1 64.6Q77.6 64.8 77 65.2L75.8 65.9Q75.3 66.2 75.5 66.6Q75.8 67 76.7 67.3L79.3 68.3Q81 68.9 81.6 69.8Q82.3 70.6 82.3 71.8Q82.3 73.2 81.3 74.3Q80.4 75.3 78.8 75.9Q77.3 76.5 75.4 76.5ZM76.6 61.2Q76.6 62.6 77 63.2Q77.4 63.8 78.1 63.8Q79.1 63.8 79.9 62.9Q80.7 62 81.2 60.7Q81.8 59.3 81.8 57.8Q81.8 56.3 81.4 55.7Q81 55.1 80.2 55.1Q79.3 55.1 78.4 56Q77.6 56.9 77.1 58.3Q76.6 59.7 76.6 61.2ZM75.7 75.7Q76.9 75.7 77.9 75.3Q78.9 75 79.6 74.2Q80.2 73.5 80.2 72.5Q80.2 71.5 79.7 70.9Q79.2 70.2 77.8 69.7L77.2 69.5Q76.7 69.3 76.1 69.3Q75.6 69.4 75.1 69.6Q73.5 70.5 72.9 71.3Q72.4 72.1 72.4 73Q72.4 74.1 73.2 74.9Q74 75.7 75.7 75.7Z M94.4 70.3Q92.5 70.3 91.4 68.7Q90.3 67.2 90.3 64.5Q90.3 62.6 91 60.8Q91.6 59 92.6 57.6Q93.7 56.2 94.9 55.3Q96.2 54.5 97.5 54.5Q99.4 54.5 100.4 56Q101.5 57.6 101.5 60.2Q101.5 62.2 100.9 64Q100.3 65.8 99.2 67.2Q98.2 68.6 96.9 69.4Q95.6 70.3 94.4 70.3ZM94.3 69.5Q95.2 69.5 96.2 68.6Q97.1 67.7 97.8 66.2Q98.6 64.6 99 62.8Q99.5 60.9 99.5 59Q99.5 55.2 97.5 55.2Q96.6 55.2 95.7 56.2Q94.7 57.1 94 58.6Q93.3 60.1 92.8 62Q92.4 63.9 92.4 65.8Q92.4 69.5 94.3 69.5Z M103.1 70Q102.7 70 102.8 69.6L105.8 56.6Q106.1 55.5 105.1 55.5H104.5Q104 55.5 104 55.1Q104 54.7 104.6 54.7Q105.5 54.7 105.9 54.5Q106.4 54.2 106.6 53.5Q107 51.8 107.7 50.5Q108.5 49.1 109.6 48.3Q110.6 47.6 111.9 47.6Q113 47.6 113.6 48.1Q114.3 48.5 114.3 49.4Q114.3 50.1 113.9 50.5Q113.6 50.9 113.1 50.9Q112.4 50.9 112.2 50.5Q112.1 50.2 112 49.7Q112 49.2 111.8 48.9Q111.7 48.5 111.1 48.5Q110.4 48.5 109.9 49.2Q109.4 49.8 109 51.7L108.4 54.3Q108.3 54.7 108.7 54.7H111.1Q111.7 54.7 111.5 55.1Q111.5 55.5 111 55.5H108.4Q108.1 55.5 108 55.8L104.8 69.7Q104.7 70 104.4 70Z M118.5 70.3Q117.5 70.3 116.9 69.5Q116.3 68.7 116.7 66.8L119.2 56Q119.3 55.5 118.9 55.5H117.7Q117.3 55.5 117.3 55.1Q117.3 54.9 117.4 54.8Q117.6 54.7 117.8 54.7H118.9Q119.6 54.7 119.7 54.1L120.4 50.9Q120.5 50.5 120.8 50.5H122.1Q122.5 50.5 122.4 50.9L121.6 54.2Q121.6 54.7 122 54.7H123.7Q124.2 54.7 124.2 55.1Q124.2 55.5 123.6 55.5H122Q121.3 55.5 121.2 56.2L118.6 67.2Q118.5 67.8 118.7 68.2Q118.9 68.6 119.4 68.6Q120.1 68.6 120.6 67.8Q121.2 67 121.9 64.8Q122 64.4 122.3 64.4Q122.5 64.4 122.5 64.6Q122.6 64.8 122.5 65.3Q121.9 67.3 121.2 68.4Q120.5 69.5 119.8 69.9Q119.2 70.3 118.5 70.3Z M133.3 70.3Q132.2 70.3 131.6 69.4Q131.1 68.5 131.6 66.6L133.9 57.9Q134.2 56.7 134 56.3Q133.8 55.8 133.3 55.8Q132.7 55.8 131.9 56.6Q131 57.5 130.2 58.9Q129.3 60.3 128.4 62.1Q127.6 63.9 126.9 65.8Q126.2 67.8 125.8 69.7Q125.7 70 125.4 70H124.1Q123.7 70 123.8 69.6L128.2 50.8Q128.3 50.3 128.2 50.1Q128.1 49.8 127.6 49.8L126.8 49.7Q126.3 49.7 126.4 49.3Q126.4 49.1 126.8 49Q127.9 48.8 128.7 48.6Q129.5 48.3 130 47.9Q130.3 47.7 130.5 47.7Q130.9 47.7 130.8 48.2L127.8 60.9Q127.8 61.1 127.9 61.2Q128 61.2 128.1 61Q129.3 58.5 130.4 57.1Q131.5 55.7 132.4 55.1Q133.4 54.5 134.2 54.5Q135.3 54.5 135.8 55.4Q136.3 56.3 135.8 58.2L133.5 66.9Q133.3 67.7 133.5 68.1Q133.7 68.6 134.1 68.6Q134.7 68.6 135.3 67.8Q135.9 67 136.5 64.8Q136.6 64.4 136.9 64.4Q137.2 64.4 137.2 64.6Q137.2 64.8 137.2 65Q136.6 67.1 136 68.2Q135.3 69.4 134.6 69.8Q133.9 70.3 133.3 70.3Z M141.8 70.3Q140.2 70.3 139.2 69Q138.2 67.8 138.2 65.5Q138.2 63.5 138.9 61.6Q139.7 59.6 140.8 58Q141.9 56.4 143.3 55.5Q144.7 54.5 145.9 54.5Q147.4 54.5 148 55.2Q148.6 55.9 148.6 57Q148.6 58.4 147.6 59.7Q146.7 61 145 62.1Q143.3 63.1 141 63.6Q140.4 63.8 140.3 64.4Q140.3 64.6 140.3 64.8Q140.3 65 140.3 65.3Q140.3 67 140.9 67.8Q141.5 68.7 142.5 68.7Q143.6 68.7 144.7 67.7Q145.8 66.6 146.5 64.7Q146.6 64.4 146.8 64.4Q147 64.4 147.1 64.6Q147.1 64.7 147.1 64.9Q146.1 67.6 144.7 68.9Q143.4 70.3 141.8 70.3ZM140.6 62.5Q140.6 62.7 140.7 62.8Q140.8 63 141.1 62.9Q142.9 62.4 144.2 61.4Q145.4 60.3 146.1 59Q146.7 57.8 146.7 56.5Q146.7 55.3 145.7 55.3Q144.9 55.3 143.8 56.3Q142.8 57.3 142 59Q141.1 60.6 140.6 62.5Z M155.3 70Q154.9 70 155 69.6L157.9 57.6Q158 57 157.9 56.6Q157.8 56.2 157.3 56.2Q156.8 56.2 156.2 57Q155.5 57.8 154.7 60Q154.6 60.4 154.3 60.4Q153.8 60.4 154 59.9Q154.7 57.8 155.4 56.7Q156.2 55.5 156.9 55Q157.7 54.5 158.3 54.5Q159.3 54.5 159.7 55.3Q160.1 56 159.8 57.7L159.4 59.1Q159.4 59.3 159.5 59.3Q159.6 59.4 159.7 59.2Q160.9 56.6 161.8 55.5Q162.7 54.5 163.9 54.5Q164.7 54.5 165.1 55Q165.5 55.4 165.5 56.1Q165.5 56.9 165.2 57.3Q164.8 57.8 164.2 57.8Q163.8 57.8 163.6 57.5Q163.3 57.3 163.2 57Q163.1 56.7 163 56.4Q162.9 56.2 162.6 56.2Q162.2 56.2 161.5 57.3Q160.7 58.5 159.9 60.4Q159.1 62.4 158.3 64.8Q157.6 67.2 157 69.7Q156.9 70 156.6 70Z M167.9 70.3Q166.8 70.3 166.4 69.3Q166 68.3 166.4 66.6L168.8 57.9Q169 57 168.9 56.6Q168.8 56.1 168.4 56.1Q167.7 56.1 167 57.1Q166.3 58.2 165.8 60Q165.7 60.4 165.4 60.4Q165 60.4 165.1 59.8Q165.8 57.2 166.9 55.9Q168.1 54.5 169.4 54.5Q170.5 54.5 170.8 55.5Q171.2 56.5 170.7 58.2L168.3 66.9Q167.8 69 168.7 69Q169.3 69 170.1 68.2Q170.9 67.4 171.7 66Q172.6 64.5 173.4 62.7Q174.3 60.9 175 59Q175.6 57 176.1 55Q176.2 54.7 176.5 54.7H177.7Q178.1 54.7 178 55.1L175.2 67.2Q174.9 68.6 175.7 68.6Q177 68.6 178.4 64.8Q178.5 64.4 178.8 64.4Q179 64.4 179.1 64.5Q179.1 64.7 179 64.9Q178.2 67.5 177.1 68.9Q176 70.3 174.8 70.3Q172.6 70.3 173.3 67.1L174.1 63.8Q174.2 63.6 174 63.5Q173.9 63.5 173.8 63.7Q172.1 67.3 170.6 68.8Q169.1 70.3 167.9 70.3Z M183.2 70.3Q182.2 70.3 181.1 70Q180 69.7 179.4 69.2Q179.2 69 179.2 68.7L179.9 64.8Q180 64.4 180.3 64.4Q180.6 64.4 180.6 64.8L180.7 66.2Q180.7 67.9 181.5 68.7Q182.2 69.5 183.4 69.5Q184.3 69.5 185 68.9Q185.7 68.3 185.7 67.1Q185.7 66.4 185.5 65.8Q185.3 65.2 184.8 64.6Q184.4 63.9 183.6 62.9Q182.6 61.6 182.1 60.7Q181.6 59.7 181.6 58.7Q181.6 56.8 182.8 55.7Q184 54.5 185.8 54.5Q186.6 54.5 187.4 54.8Q188.1 55 188.6 55.5Q188.9 55.7 188.8 56L188 60Q187.9 60.4 187.6 60.4Q187.3 60.4 187.3 60L187.2 58.6Q187.1 56.8 186.7 56Q186.4 55.2 185.3 55.2Q184.3 55.2 183.8 55.9Q183.1 56.5 183.1 57.5Q183.1 58.5 183.7 59.3Q184.2 60.1 185.2 61.4Q186.4 63 186.8 63.9Q187.3 64.9 187.3 65.9Q187.3 67.2 186.7 68.1Q186.1 69.1 185.2 69.7Q184.3 70.3 183.2 70.3Z M191.8 70.3Q190.8 70.3 190.2 69.5Q189.7 68.7 190 66.8L192.5 56Q192.6 55.5 192.2 55.5H191Q190.6 55.5 190.6 55.1Q190.6 54.9 190.8 54.8Q190.9 54.7 191.1 54.7H192.2Q192.9 54.7 193 54.1L193.7 50.9Q193.8 50.5 194.2 50.5H195.4Q195.8 50.5 195.7 50.9L195 54.2Q194.9 54.7 195.3 54.7H197Q197.5 54.7 197.5 55.1Q197.5 55.5 196.9 55.5H195.3Q194.6 55.5 194.5 56.2L192 67.2Q191.8 67.8 192 68.2Q192.2 68.6 192.7 68.6Q193.4 68.6 194 67.8Q194.5 67 195.2 64.8Q195.3 64.4 195.6 64.4Q195.8 64.4 195.9 64.6Q195.9 64.8 195.8 65.3Q195.2 67.3 194.5 68.4Q193.9 69.5 193.2 69.9Q192.5 70.3 191.8 70.3Z M214.6 70.3Q213.6 70.3 213 69.4Q212.5 68.5 213 66.6L215.3 57.9Q215.6 56.7 215.4 56.3Q215.2 55.8 214.7 55.8Q214.1 55.8 213.4 56.6Q212.6 57.5 211.7 58.9Q210.9 60.3 210.1 62.1Q209.2 63.9 208.6 65.8Q207.9 67.8 207.4 69.7Q207.3 70 207 70H205.8Q205.4 70 205.5 69.6L208.3 57.9Q208.5 56.7 208.3 56.3Q208.1 55.8 207.7 55.8Q207.1 55.8 206.4 56.6Q205.6 57.5 204.8 58.9Q203.9 60.3 203.1 62.1Q202.3 63.9 201.6 65.8Q200.9 67.8 200.5 69.7Q200.4 70 200.1 70H198.8Q198.4 70 198.5 69.6L201.4 57.6Q201.5 57 201.4 56.6Q201.3 56.2 200.8 56.2Q200.3 56.2 199.7 57Q199 57.8 198.2 60Q198.1 60.4 197.8 60.4Q197.3 60.4 197.5 59.9Q198.2 57.8 198.9 56.7Q199.7 55.5 200.4 55Q201.2 54.5 201.8 54.5Q202.8 54.5 203.2 55.3Q203.6 56 203.2 57.7L202.5 60.9Q202.5 61.1 202.6 61.2Q202.7 61.2 202.8 61Q204.5 57.4 205.9 56Q207.4 54.5 208.5 54.5Q209.6 54.5 210.1 55.4Q210.6 56.3 210.1 58.2L209.5 60.9Q209.5 61.1 209.6 61.2Q209.7 61.2 209.8 61Q211 58.6 212 57.1Q213 55.7 213.9 55.1Q214.8 54.5 215.5 54.5Q216.7 54.5 217.2 55.4Q217.7 56.3 217.2 58.2L214.9 66.9Q214.7 67.7 214.9 68.1Q215 68.6 215.5 68.6Q216.1 68.6 216.7 67.8Q217.3 67 217.9 64.8Q218 64.4 218.3 64.4Q218.5 64.4 218.6 64.6Q218.6 64.8 218.6 65Q218 67.1 217.3 68.2Q216.7 69.4 216 69.8Q215.3 70.3 214.6 70.3Z M221.9 70.3Q220.9 70.3 220.3 69.3Q219.7 68.4 219.7 66.6Q219.7 64.9 220.1 63.2Q220.6 61.5 221.5 59.9Q222.3 58.3 223.4 57.1Q224.4 55.9 225.6 55.2Q226.8 54.5 228 54.5Q228.5 54.5 229 54.7Q229.6 55 229.9 55.5Q230.1 55.7 230.2 55.7Q230.4 55.7 230.6 55.5Q230.9 55 231.1 54.8Q231.4 54.7 231.5 54.7Q231.9 54.7 231.8 55.1L229.2 66.6Q228.7 68.6 229.8 68.6Q230.5 68.6 231 67.6Q231.6 66.7 232.1 64.8Q232.2 64.4 232.5 64.4Q232.7 64.4 232.8 64.6Q232.9 64.8 232.8 65Q232.2 67.8 231.3 69.1Q230.3 70.3 229 70.3Q227.8 70.3 227.3 69.3Q226.8 68.3 227.2 66.6L227.6 64.9Q227.6 64.7 227.5 64.7Q227.4 64.7 227.3 64.8Q225.6 67.9 224.4 69.1Q223.1 70.3 221.9 70.3ZM222.7 68.7Q223.4 68.7 224.3 67.9Q225.1 67 226 65.6Q226.9 64.2 227.6 62.6Q228.3 61.1 228.7 59.6Q229.2 58.1 229.2 57.1Q229.2 55.3 227.9 55.3Q227.1 55.3 226.2 56Q225.4 56.7 224.6 57.9Q223.8 59.1 223.1 60.6Q222.5 62.1 222.1 63.7Q221.7 65.4 221.7 66.9Q221.7 68 222 68.4Q222.2 68.7 222.7 68.7Z M231.2 76.2Q230.8 76.2 230.8 75.8Q230.8 75.5 231.3 75.5L231.7 75.4Q232.3 75.3 232.6 75.1Q232.9 74.8 233 74.1L237 56.9Q237.1 56.7 237 56.5Q236.8 56.4 236.6 56.6Q236.3 56.7 236 56.9Q235.7 57 235.5 57.2Q235.2 57.4 235 57.3Q234.8 57.2 234.8 57Q234.8 56.8 235.1 56.6Q236 56 236.9 55.6Q237.4 55.4 237.5 54.9L237.9 53.1Q238 52.5 238.7 52.5H239.2Q239.6 52.5 239.8 52.7Q239.9 52.9 239.8 53.3L239.6 54.2Q239.5 54.7 240 54.6Q240.7 54.5 241.3 54.5Q243.6 54.5 245 55.8Q246.4 57 246.4 59.6Q246.4 61.7 245.6 63.6Q244.9 65.5 243.7 67Q242.4 68.5 241 69.4Q239.5 70.3 238 70.3Q237.2 70.3 236.5 69.9Q236 69.7 235.9 70.2L235 74.1Q234.9 74.8 235.1 75Q235.2 75.2 235.8 75.3L236.6 75.4Q237.1 75.5 237.1 75.8Q237.1 76.2 236.6 76.2ZM236.8 66.5Q236.2 69.5 238.1 69.5Q239.1 69.5 240.2 68.6Q241.3 67.8 242.2 66.3Q243.1 64.8 243.7 62.9Q244.3 61.1 244.3 59.1Q244.3 57.1 243.4 56.2Q242.5 55.3 240.9 55.3Q239.4 55.3 239.2 56.4Z M244.7 76.2Q244.3 76.2 244.3 75.8Q244.3 75.5 244.8 75.5L245.2 75.4Q245.8 75.3 246.1 75.1Q246.4 74.8 246.5 74.1L250.5 56.9Q250.6 56.7 250.5 56.5Q250.3 56.4 250.1 56.6Q249.8 56.7 249.5 56.9Q249.2 57 249 57.2Q248.7 57.4 248.5 57.3Q248.3 57.2 248.3 57Q248.3 56.8 248.6 56.6Q249.5 56 250.4 55.6Q250.9 55.4 251 54.9L251.4 53.1Q251.5 52.5 252.2 52.5H252.7Q253.1 52.5 253.3 52.7Q253.4 52.9 253.3 53.3L253.1 54.2Q253 54.7 253.5 54.6Q254.2 54.5 254.8 54.5Q257.1 54.5 258.5 55.8Q259.9 57 259.9 59.6Q259.9 61.7 259.1 63.6Q258.4 65.5 257.2 67Q255.9 68.5 254.5 69.4Q253 70.3 251.5 70.3Q250.7 70.3 250 69.9Q249.5 69.7 249.4 70.2L248.5 74.1Q248.4 74.8 248.6 75Q248.7 75.2 249.3 75.3L250.1 75.4Q250.6 75.5 250.6 75.8Q250.6 76.2 250.1 76.2ZM250.3 66.5Q249.7 69.5 251.6 69.5Q252.6 69.5 253.7 68.6Q254.8 67.8 255.7 66.3Q256.6 64.8 257.2 62.9Q257.8 61.1 257.8 59.1Q257.8 57.1 256.9 56.2Q256 55.3 254.4 55.3Q252.9 55.3 252.7 56.4Z M264.4 70.3Q262.8 70.3 261.8 69Q260.9 67.8 260.9 65.5Q260.9 63.5 261.6 61.6Q262.3 59.6 263.4 58Q264.5 56.4 265.9 55.5Q267.3 54.5 268.6 54.5Q270 54.5 270.6 55.2Q271.2 55.9 271.2 57Q271.2 58.4 270.3 59.7Q269.3 61 267.6 62.1Q265.9 63.1 263.6 63.6Q263 63.8 262.9 64.4Q262.9 64.6 262.9 64.8Q262.9 65 262.9 65.3Q262.9 67 263.5 67.8Q264.1 68.7 265.1 68.7Q266.2 68.7 267.3 67.7Q268.4 66.6 269.1 64.7Q269.2 64.4 269.5 64.4Q269.6 64.4 269.7 64.6Q269.7 64.7 269.7 64.9Q268.7 67.6 267.3 68.9Q266 70.3 264.4 70.3ZM263.2 62.5Q263.2 62.7 263.3 62.8Q263.5 63 263.7 62.9Q265.5 62.4 266.8 61.4Q268.1 60.3 268.7 59Q269.3 57.8 269.3 56.5Q269.3 55.3 268.4 55.3Q267.5 55.3 266.5 56.3Q265.4 57.3 264.6 59Q263.7 60.6 263.2 62.5Z M272.9 70Q272.4 70 272.5 69.6L275.4 57.6Q275.5 57 275.4 56.6Q275.3 56.2 274.9 56.2Q274.3 56.2 273.7 57Q273 57.8 272.2 60Q272.1 60.4 271.8 60.4Q271.4 60.4 271.6 59.9Q272.2 57.8 273 56.7Q273.7 55.5 274.4 55Q275.2 54.5 275.8 54.5Q276.8 54.5 277.2 55.3Q277.7 56 277.3 57.7L276.9 59.1Q276.9 59.3 277 59.3Q277.1 59.4 277.2 59.2Q278.4 56.6 279.3 55.5Q280.2 54.5 281.4 54.5Q282.2 54.5 282.6 55Q283.1 55.4 283.1 56.1Q283.1 56.9 282.7 57.3Q282.3 57.8 281.8 57.8Q281.3 57.8 281.1 57.5Q280.9 57.3 280.8 57Q280.6 56.7 280.5 56.4Q280.4 56.2 280.1 56.2Q279.7 56.2 279 57.3Q278.2 58.5 277.4 60.4Q276.6 62.4 275.8 64.8Q275.1 67.2 274.5 69.7Q274.4 70 274.1 70Z" fill="#1B2A41"/><g fill="#6B7A90"><use href="#g-plex-9p5-83" x="615.3" y="66.0"/><use href="#g-plex-9p5-72" x="622.8" y="66.0"/><use href="#g-plex-9p5-69" x="630.3" y="66.0"/><use href="#g-plex-9p5-69" x="637.8" y="66.0"/><use href="#g-plex-9p5-84" x="645.3" y="66.0"/><use href="#g-plex-9p5-53" x="660.3" y="66.0"/><use href="#g-plex-9p5-183" x="682.8" y="66.0"/><use href="#g-plex-9p5-83" x="705.3" y="66.0"/><use href="#g-plex-9p5-72" x="712.8" y="66.0"/><use href="#g-plex-9p5-73" x="720.3" y="66.0"/><use href="#g-plex-9p5-80" x="727.8" y="66.0"/><use href="#g-plex-9p5-39" x="735.3" y="66.0"/><use href="#g-plex-9p5-83" x="742.8" y="66.0"/><use href="#g-plex-9p5-76" x="757.8" y="66.0"/><use href="#g-plex-9p5-79" x="765.3" y="66.0"/><use href="#g-plex-9p5-71" x="772.8" y="66.0"/><use href="#g-plex-9p5-183" x="795.3" y="66.0"/><use href="#g-plex-9p5-84" x="817.8" y="66.0"/><use href="#g-plex-9p5-89" x="825.3" y="66.0"/><use href="#g-plex-9p5-80" x="832.8" y="66.0"/><use href="#g-plex-9p5-69" x="840.3" y="66.0"/><use href="#g-plex-9p5-68" x="847.8" y="66.0"/><use href="#g-plex-9p5-76" x="862.8" y="66.0"/><use href="#g-plex-9p5-73" x="870.3" y="66.0"/><use href="#g-plex-9p5-86" x="877.8" y="66.0"/><use href="#g-plex-9p5-69" x="885.3" y="66.0"/><use href="#g-plex-9p5-183" x="907.8" y="66.0"/><use href="#g-plex-9p5-78" x="930.3" y="66.0"/><use href="#g-plex-9p5-85" x="937.8" y="66.0"/><use href="#g-plex-9p5-77" x="945.3" y="66.0"/><use href="#g-plex-9p5-66" x="952.8" y="66.0"/><use href="#g-plex-9p5-69" x="960.3" y="66.0"/><use href="#g-plex-9p5-82" x="967.8" y="66.0"/><use href="#g-plex-9p5-83" x="975.3" y="66.0"/><use href="#g-plex-9p5-73" x="990.3" y="66.0"/><use href="#g-plex-9p5-76" x="997.8" y="66.0"/><use href="#g-plex-9p5-76" x="1005.3" y="66.0"/><use href="#g-plex-9p5-85" x="1012.8" y="66.0"/><use href="#g-plex-9p5-83" x="1020.3" y="66.0"/><use href="#g-plex-9p5-84" x="1027.8" y="66.0"/><use href="#g-plex-9p5-82" x="1035.3" y="66.0"/><use href="#g-plex-9p5-65" x="1042.8" y="66.0"/><use href="#g-plex-9p5-84" x="1050.3" y="66.0"/><use href="#g-plex-9p5-73" x="1057.8" y="66.0"/><use href="#g-plex-9p5-86" x="1065.3" y="66.0"/><use href="#g-plex-9p5-69" x="1072.8" y="66.0"/><use href="#g-plex-9p5-44" x="1080.3" y="66.0"/><use href="#g-plex-9p5-84" x="1095.3" y="66.0"/><use href="#g-plex-9p5-72" x="1102.8" y="66.0"/><use href="#g-plex-9p5-69" x="1110.3" y="66.0"/><use href="#g-plex-9p5-80" x="1125.3" y="66.0"/><use href="#g-plex-9p5-65" x="1132.8" y="66.0"/><use href="#g-plex-9p5-67" x="1140.3" y="66.0"/><use href="#g-plex-9p5-75" x="1147.8" y="66.0"/><use href="#g-plex-9p5-65" x="1155.3" y="66.0"/><use href="#g-plex-9p5-71" x="1162.8" y="66.0"/><use href="#g-plex-9p5-69" x="1170.3" y="66.0"/><use href="#g-plex-9p5-73" x="1185.3" y="66.0"/><use href="#g-plex-9p5-83" x="1192.8" y="66.0"/><use href="#g-plex-9p5-82" x="1207.8" y="66.0"/><use href="#g-plex-9p5-69" x="1215.3" y="66.0"/><use href="#g-plex-9p5-65" x="1222.8" y="66.0"/><use href="#g-plex-9p5-76" x="1230.3" y="66.0"/></g><g fill="#6B7A90"><use href="#g-plex-9-84" x="48.0" y="104.0"/><use href="#g-plex-9-73" x="55.2" y="104.0"/><use href="#g-plex-9-77" x="62.4" y="104.0"/><use href="#g-plex-9-69" x="69.6" y="104.0"/></g><g fill="#6B7A90"><use href="#g-plex-9-69" x="150.0" y="104.0"/><use href="#g-plex-9-78" x="157.2" y="104.0"/><use href="#g-plex-9-84" x="164.4" y="104.0"/><use href="#g-plex-9-82" x="171.6" y="104.0"/><use href="#g-plex-9-89" x="178.8" y="104.0"/></g><g opacity="0"><animate attributeName="opacity" values="0;0;1;1;0" keyTimes="0;0.0286;0.0300;0.9571;1" dur="14.0s" repeatCount="indefinite"/><g fill="#6B7A90"><use href="#g-plex-12-49" x="48.0" y="132.0"/><use href="#g-plex-12-52" x="55.2" y="132.0"/><use href="#g-plex-12-58" x="62.4" y="132.0"/><use href="#g-plex-12-48" x="69.6" y="132.0"/><use href="#g-plex-12-50" x="76.8" y="132.0"/></g></g><g opacity="0"><animate attributeName="opacity" values="0;0;1;1;0" keyTimes="0;0.0286;0.0300;0.9571;1" dur="14.0s" repeatCount="indefinite"/><g fill="#D9442B"><use href="#g-plex-medium-14p5-36" x="150.0" y="132.0"/></g></g><g clip-path="url(#lc1)"><g fill="#1B2A41"><use href="#g-plex-14p5-112" x="167.4" y="132.0"/><use href="#g-plex-14p5-105" x="176.1" y="132.0"/><use href="#g-plex-14p5-112" x="184.8" y="132.0"/><use href="#g-plex-14p5-105" x="202.2" y="132.0"/><use href="#g-plex-14p5-110" x="210.9" y="132.0"/><use href="#g-plex-14p5-115" x="219.6" y="132.0"/><use href="#g-plex-14p5-116" x="228.3" y="132.0"/><use href="#g-plex-14p5-97" x="237.0" y="132.0"/><use href="#g-plex-14p5-108" x="245.7" y="132.0"/><use href="#g-plex-14p5-108" x="254.4" y="132.0"/><use href="#g-plex-14p5-114" x="271.8" y="132.0"/><use href="#g-plex-14p5-117" x="280.5" y="132.0"/><use href="#g-plex-14p5-115" x="289.2" y="132.0"/><use href="#g-plex-14p5-116" x="297.9" y="132.0"/><use href="#g-plex-14p5-109" x="306.6" y="132.0"/><use href="#g-plex-14p5-97" x="315.3" y="132.0"/><use href="#g-plex-14p5-112" x="324.0" y="132.0"/><use href="#g-plex-14p5-112" x="332.7" y="132.0"/><use href="#g-plex-14p5-101" x="341.4" y="132.0"/><use href="#g-plex-14p5-114" x="350.1" y="132.0"/></g></g><rect y="118" width="8.7" height="18" fill="#D9442B" opacity="0"><animate attributeName="x" values="167.4;167.4;358.8;358.8" keyTimes="0;0.0286;0.1143;1" dur="14.0s" repeatCount="indefinite"/><animate attributeName="opacity" values="0;0;1;1;0;0" keyTimes="0;0.0286;0.0293;0.1643;0.1657;1" dur="14.0s" repeatCount="indefinite"/></rect><g opacity="0"><animate attributeName="opacity" values="0;0;1;1;0" keyTimes="0;0.1571;0.1586;0.9571;1" dur="14.0s" repeatCount="indefinite"/><g fill="#6B7A90"><use href="#g-plex-12-49" x="48.0" y="162.0"/><use href="#g-plex-12-52" x="55.2" y="162.0"/><use href="#g-plex-12-58" x="62.4" y="162.0"/><use href="#g-plex-12-48" x="69.6" y="162.0"/><use href="#g-plex-12-50" x="76.8" y="162.0"/></g></g><g opacity="0"><animate attributeName="opacity" values="0;0;1;1;0" keyTimes="0;0.1571;0.1586;0.9571;1" dur="14.0s" repeatCount="indefinite"/><g fill="#6B7A90"><use href="#g-plex-14p5-83" x="150.0" y="162.0"/><use href="#g-plex-14p5-117" x="158.7" y="162.0"/><use href="#g-plex-14p5-99" x="167.4" y="162.0"/><use href="#g-plex-14p5-99" x="176.1" y="162.0"/><use href="#g-plex-14p5-101" x="184.8" y="162.0"/><use href="#g-plex-14p5-115" x="193.5" y="162.0"/><use href="#g-plex-14p5-115" x="202.2" y="162.0"/><use href="#g-plex-14p5-102" x="210.9" y="162.0"/><use href="#g-plex-14p5-117" x="219.6" y="162.0"/><use href="#g-plex-14p5-108" x="228.3" y="162.0"/><use href="#g-plex-14p5-108" x="237.0" y="162.0"/><use href="#g-plex-14p5-121" x="245.7" y="162.0"/><use href="#g-plex-14p5-105" x="263.1" y="162.0"/><use href="#g-plex-14p5-110" x="271.8" y="162.0"/><use href="#g-plex-14p5-115" x="280.5" y="162.0"/><use href="#g-plex-14p5-116" x="289.2" y="162.0"/><use href="#g-plex-14p5-97" x="297.9" y="162.0"/><use href="#g-plex-14p5-108" x="306.6" y="162.0"/><use href="#g-plex-14p5-108" x="315.3" y="162.0"/><use href="#g-plex-14p5-101" x="324.0" y="162.0"/><use href="#g-plex-14p5-100" x="332.7" y="162.0"/></g><g fill="#1B2A41"><use href="#g-plex-14p5-114" x="350.1" y="162.0"/><use href="#g-plex-14p5-117" x="358.8" y="162.0"/><use href="#g-plex-14p5-115" x="367.5" y="162.0"/><use href="#g-plex-14p5-116" x="376.2" y="162.0"/><use href="#g-plex-14p5-109" x="384.9" y="162.0"/><use href="#g-plex-14p5-97" x="393.6" y="162.0"/><use href="#g-plex-14p5-112" x="402.3" y="162.0"/><use href="#g-plex-14p5-112" x="411.0" y="162.0"/><use href="#g-plex-14p5-101" x="419.7" y="162.0"/><use href="#g-plex-14p5-114" x="428.4" y="162.0"/><use href="#g-plex-14p5-45" x="437.1" y="162.0"/><use href="#g-plex-14p5-48" x="445.8" y="162.0"/><use href="#g-plex-14p5-46" x="454.5" y="162.0"/><use href="#g-plex-14p5-49" x="463.2" y="162.0"/><use href="#g-plex-14p5-46" x="471.9" y="162.0"/><use href="#g-plex-14p5-51" x="480.6" y="162.0"/></g></g><g opacity="0"><animate attributeName="opacity" values="0;0;1;1;0" keyTimes="0;0.2071;0.2086;0.9571;1" dur="14.0s" repeatCount="indefinite"/><g fill="#6B7A90"><use href="#g-plex-12-49" x="48.0" y="192.0"/><use href="#g-plex-12-52" x="55.2" y="192.0"/><use href="#g-plex-12-58" x="62.4" y="192.0"/><use href="#g-plex-12-48" x="69.6" y="192.0"/><use href="#g-plex-12-51" x="76.8" y="192.0"/></g></g><g opacity="0"><animate attributeName="opacity" values="0;0;1;1;0" keyTimes="0;0.2071;0.2086;0.9571;1" dur="14.0s" repeatCount="indefinite"/><g fill="#D9442B"><use href="#g-plex-medium-14p5-36" x="150.0" y="192.0"/></g></g><g clip-path="url(#lc2)"><g fill="#1B2A41"><use href="#g-plex-14p5-114" x="167.4" y="192.0"/><use href="#g-plex-14p5-117" x="176.1" y="192.0"/><use href="#g-plex-14p5-115" x="184.8" y="192.0"/><use href="#g-plex-14p5-116" x="193.5" y="192.0"/><use href="#g-plex-14p5-109" x="202.2" y="192.0"/><use href="#g-plex-14p5-97" x="210.9" y="192.0"/><use href="#g-plex-14p5-112" x="219.6" y="192.0"/><use href="#g-plex-14p5-112" x="228.3" y="192.0"/><use href="#g-plex-14p5-101" x="237.0" y="192.0"/><use href="#g-plex-14p5-114" x="245.7" y="192.0"/><use href="#g-plex-14p5-99" x="263.1" y="192.0"/><use href="#g-plex-14p5-114" x="271.8" y="192.0"/><use href="#g-plex-14p5-97" x="280.5" y="192.0"/><use href="#g-plex-14p5-119" x="289.2" y="192.0"/><use href="#g-plex-14p5-108" x="297.9" y="192.0"/><use href="#g-plex-14p5-45" x="315.3" y="192.0"/><use href="#g-plex-14p5-45" x="324.0" y="192.0"/><use href="#g-plex-14p5-115" x="332.7" y="192.0"/><use href="#g-plex-14p5-116" x="341.4" y="192.0"/><use href="#g-plex-14p5-97" x="350.1" y="192.0"/><use href="#g-plex-14p5-114" x="358.8" y="192.0"/><use href="#g-plex-14p5-116" x="367.5" y="192.0"/><use href="#g-plex-14p5-45" x="376.2" y="192.0"/><use href="#g-plex-14p5-117" x="384.9" y="192.0"/><use href="#g-plex-14p5-114" x="393.6" y="192.0"/><use href="#g-plex-14p5-108" x="402.3" y="192.0"/><use href="#g-plex-14p5-101" x="419.7" y="192.0"/><use href="#g-plex-14p5-120" x="428.4" y="192.0"/><use href="#g-plex-14p5-97" x="437.1" y="192.0"/><use href="#g-plex-14p5-109" x="445.8" y="192.0"/><use href="#g-plex-14p5-112" x="454.5" y="192.0"/><use href="#g-plex-14p5-108" x="463.2" y="192.0"/><use href="#g-plex-14p5-101" x="471.9" y="192.0"/><use href="#g-plex-14p5-46" x="480.6" y="192.0"/><use href="#g-plex-14p5-99" x="489.3" y="192.0"/><use href="#g-plex-14p5-111" x="498.0" y="192.0"/><use href="#g-plex-14p5-109" x="506.7" y="192.0"/><use href="#g-plex-14p5-45" x="524.1" y="192.0"/><use href="#g-plex-14p5-45" x="532.8" y="192.0"/><use href="#g-plex-14p5-119" x="541.5" y="192.0"/><use href="#g-plex-14p5-111" x="550.2" y="192.0"/><use href="#g-plex-14p5-114" x="558.9" y="192.0"/><use href="#g-plex-14p5-107" x="567.6" y="192.0"/><use href="#g-plex-14p5-101" x="576.3" y="192.0"/><use href="#g-plex-14p5-114" x="585.0" y="192.0"/><use href="#g-plex-14p5-115" x="593.7" y="192.0"/><use href="#g-plex-14p5-53" x="611.1" y="192.0"/><use href="#g-plex-14p5-49" x="619.8" y="192.0"/><use href="#g-plex-14p5-50" x="628.5" y="192.0"/></g></g><rect y="178" width="8.7" height="18" fill="#D9442B" opacity="0"><animate attributeName="x" values="167.4;167.4;637.2;637.2" keyTimes="0;0.2071;0.3571;1" dur="14.0s" repeatCount="indefinite"/><animate attributeName="opacity" values="0;0;1;1;0;0" keyTimes="0;0.2071;0.2079;0.4071;0.4086;1" dur="14.0s" repeatCount="indefinite"/></rect><g opacity="0"><animate attributeName="opacity" values="0;0;1;1;0" keyTimes="0;0.3929;0.3943;0.9571;1" dur="14.0s" repeatCount="indefinite"/><g fill="#6B7A90"><use href="#g-plex-12-49" x="48.0" y="222.0"/><use href="#g-plex-12-52" x="55.2" y="222.0"/><use href="#g-plex-12-58" x="62.4" y="222.0"/><use href="#g-plex-12-48" x="69.6" y="222.0"/><use href="#g-plex-12-51" x="76.8" y="222.0"/></g></g><g opacity="0"><animate attributeName="opacity" values="0;0;1;1;0" keyTimes="0;0.3929;0.3943;0.9571;1" dur="14.0s" repeatCount="indefinite"/><g fill="#6B7A90"><use href="#g-plex-14p5-115" x="150.0" y="222.0"/><use href="#g-plex-14p5-101" x="158.7" y="222.0"/><use href="#g-plex-14p5-101" x="167.4" y="222.0"/><use href="#g-plex-14p5-100" x="176.1" y="222.0"/><use href="#g-plex-14p5-105" x="184.8" y="222.0"/><use href="#g-plex-14p5-110" x="193.5" y="222.0"/><use href="#g-plex-14p5-103" x="202.2" y="222.0"/></g><g fill="#1B2A41"><use href="#g-plex-14p5-115" x="237.0" y="222.0"/><use href="#g-plex-14p5-105" x="245.7" y="222.0"/><use href="#g-plex-14p5-116" x="254.4" y="222.0"/><use href="#g-plex-14p5-101" x="263.1" y="222.0"/><use href="#g-plex-14p5-109" x="271.8" y="222.0"/><use href="#g-plex-14p5-97" x="280.5" y="222.0"/><use href="#g-plex-14p5-112" x="289.2" y="222.0"/></g><g fill="#2F8F5B"><use href="#g-plex-14p5-10003" x="306.6" y="222.0"/></g><g fill="#1B2A41"><use href="#g-plex-14p5-99" x="341.4" y="222.0"/><use href="#g-plex-14p5-116" x="350.1" y="222.0"/><use href="#g-plex-14p5-45" x="358.8" y="222.0"/><use href="#g-plex-14p5-108" x="367.5" y="222.0"/><use href="#g-plex-14p5-111" x="376.2" y="222.0"/><use href="#g-plex-14p5-103" x="384.9" y="222.0"/><use href="#g-plex-14p5-115" x="393.6" y="222.0"/></g><g fill="#2F8F5B"><use href="#g-plex-14p5-10003" x="411.0" y="222.0"/></g><g fill="#1B2A41"><use href="#g-plex-14p5-99" x="445.8" y="222.0"/><use href="#g-plex-14p5-111" x="454.5" y="222.0"/><use href="#g-plex-14p5-109" x="463.2" y="222.0"/><use href="#g-plex-14p5-109" x="471.9" y="222.0"/><use href="#g-plex-14p5-111" x="480.6" y="222.0"/><use href="#g-plex-14p5-110" x="489.3" y="222.0"/><use href="#g-plex-14p5-99" x="498.0" y="222.0"/><use href="#g-plex-14p5-114" x="506.7" y="222.0"/><use href="#g-plex-14p5-97" x="515.4" y="222.0"/><use href="#g-plex-14p5-119" x="524.1" y="222.0"/><use href="#g-plex-14p5-108" x="532.8" y="222.0"/></g><g fill="#2F8F5B"><use href="#g-plex-14p5-10003" x="550.2" y="222.0"/></g></g><g opacity="0"><animate attributeName="opacity" values="0;0;1;1;0" keyTimes="0;0.4286;0.4300;0.9571;1" dur="14.0s" repeatCount="indefinite"/><g fill="#6B7A90"><use href="#g-plex-12-49" x="48.0" y="252.0"/><use href="#g-plex-12-52" x="55.2" y="252.0"/><use href="#g-plex-12-58" x="62.4" y="252.0"/><use href="#g-plex-12-48" x="69.6" y="252.0"/><use href="#g-plex-12-51" x="76.8" y="252.0"/></g></g><g opacity="0"><animate attributeName="opacity" values="0;0;1;1;0" keyTimes="0;0.4286;0.4300;0.9571;1" dur="14.0s" repeatCount="indefinite"/><g fill="#6B7A90"><use href="#g-plex-14p5-102" x="150.0" y="252.0"/><use href="#g-plex-14p5-114" x="158.7" y="252.0"/><use href="#g-plex-14p5-111" x="167.4" y="252.0"/><use href="#g-plex-14p5-110" x="176.1" y="252.0"/><use href="#g-plex-14p5-116" x="184.8" y="252.0"/><use href="#g-plex-14p5-105" x="193.5" y="252.0"/><use href="#g-plex-14p5-101" x="202.2" y="252.0"/><use href="#g-plex-14p5-114" x="210.9" y="252.0"/></g><g fill="#1B2A41"><use href="#g-plex-14p5-49" x="237.0" y="252.0"/><use href="#g-plex-14p5-54" x="245.7" y="252.0"/><use href="#g-plex-14p5-115" x="263.1" y="252.0"/><use href="#g-plex-14p5-104" x="271.8" y="252.0"/><use href="#g-plex-14p5-97" x="280.5" y="252.0"/><use href="#g-plex-14p5-114" x="289.2" y="252.0"/><use href="#g-plex-14p5-100" x="297.9" y="252.0"/><use href="#g-plex-14p5-115" x="306.6" y="252.0"/></g><g fill="#6B7A90"><use href="#g-plex-14p5-183" x="332.7" y="252.0"/></g><g fill="#1B2A41"><use href="#g-plex-14p5-119" x="358.8" y="252.0"/><use href="#g-plex-14p5-97" x="367.5" y="252.0"/><use href="#g-plex-14p5-108" x="376.2" y="252.0"/><use href="#g-plex-14p5-111" x="393.6" y="252.0"/><use href="#g-plex-14p5-110" x="402.3" y="252.0"/></g><g fill="#6B7A90"><use href="#g-plex-14p5-183" x="428.4" y="252.0"/></g><g fill="#1B2A41"><use href="#g-plex-14p5-114" x="454.5" y="252.0"/><use href="#g-plex-14p5-101" x="463.2" y="252.0"/><use href="#g-plex-14p5-100" x="471.9" y="252.0"/><use href="#g-plex-14p5-105" x="480.6" y="252.0"/><use href="#g-plex-14p5-115" x="489.3" y="252.0"/><use href="#g-plex-14p5-111" x="506.7" y="252.0"/><use href="#g-plex-14p5-102" x="515.4" y="252.0"/><use href="#g-plex-14p5-102" x="524.1" y="252.0"/></g></g><g opacity="0"><animate attributeName="opacity" values="0;0;1;1;0" keyTimes="0;0.4643;0.4657;0.9571;1" dur="14.0s" repeatCount="indefinite"/><g fill="#6B7A90"><use href="#g-plex-12-49" x="48.0" y="282.0"/><use href="#g-plex-12-52" x="55.2" y="282.0"/><use href="#g-plex-12-58" x="62.4" y="282.0"/><use href="#g-plex-12-48" x="69.6" y="282.0"/><use href="#g-plex-12-52" x="76.8" y="282.0"/></g></g><g opacity="0"><animate attributeName="opacity" values="0;0;1;1;0" keyTimes="0;0.4643;0.4657;0.9571;1" dur="14.0s" repeatCount="indefinite"/><g fill="#6B7A90"><use href="#g-plex-14p5-99" x="150.0" y="282.0"/><use href="#g-plex-14p5-114" x="158.7" y="282.0"/><use href="#g-plex-14p5-97" x="167.4" y="282.0"/><use href="#g-plex-14p5-119" x="176.1" y="282.0"/><use href="#g-plex-14p5-108" x="184.8" y="282.0"/></g><rect x="237.0" y="270" width="243.6" height="12" rx="2" fill="#CDC3AE"/><rect x="237.0" y="270" width="0" height="12" rx="2" fill="#D9442B"><animate attributeName="width" values="0;0;243.6;243.6" keyTimes="0;0.4714;0.7571;1" dur="14.0s" repeatCount="indefinite"/></rect><g fill="#34465F"><use href="#g-plex-14p5-52" x="498.0" y="282.0"/><use href="#g-plex-14p5-56" x="506.7" y="282.0"/><use href="#g-plex-14p5-44" x="515.4" y="282.0"/><use href="#g-plex-14p5-50" x="524.1" y="282.0"/><use href="#g-plex-14p5-49" x="532.8" y="282.0"/><use href="#g-plex-14p5-51" x="541.5" y="282.0"/><use href="#g-plex-14p5-100" x="558.9" y="282.0"/><use href="#g-plex-14p5-105" x="567.6" y="282.0"/><use href="#g-plex-14p5-115" x="576.3" y="282.0"/><use href="#g-plex-14p5-99" x="585.0" y="282.0"/><use href="#g-plex-14p5-111" x="593.7" y="282.0"/><use href="#g-plex-14p5-118" x="602.4" y="282.0"/><use href="#g-plex-14p5-101" x="611.1" y="282.0"/><use href="#g-plex-14p5-114" x="619.8" y="282.0"/><use href="#g-plex-14p5-101" x="628.5" y="282.0"/><use href="#g-plex-14p5-100" x="637.2" y="282.0"/><use href="#g-plex-14p5-183" x="663.3" y="282.0"/><use href="#g-plex-14p5-53" x="689.4" y="282.0"/><use href="#g-plex-14p5-49" x="698.1" y="282.0"/><use href="#g-plex-14p5-50" x="706.8" y="282.0"/><use href="#g-plex-14p5-105" x="724.2" y="282.0"/><use href="#g-plex-14p5-110" x="732.9" y="282.0"/><use href="#g-plex-14p5-102" x="750.3" y="282.0"/><use href="#g-plex-14p5-108" x="759.0" y="282.0"/><use href="#g-plex-14p5-105" x="767.7" y="282.0"/><use href="#g-plex-14p5-103" x="776.4" y="282.0"/><use href="#g-plex-14p5-104" x="785.1" y="282.0"/><use href="#g-plex-14p5-116" x="793.8" y="282.0"/></g></g><g opacity="0"><animate attributeName="opacity" values="0;0;1;1;0" keyTimes="0;0.7786;0.7800;0.9571;1" dur="14.0s" repeatCount="indefinite"/><g fill="#6B7A90"><use href="#g-plex-12-49" x="48.0" y="312.0"/><use href="#g-plex-12-52" x="55.2" y="312.0"/><use href="#g-plex-12-58" x="62.4" y="312.0"/><use href="#g-plex-12-48" x="69.6" y="312.0"/><use href="#g-plex-12-56" x="76.8" y="312.0"/></g></g><g opacity="0"><animate attributeName="opacity" values="0;0;1;1;0" keyTimes="0;0.7786;0.7800;0.9571;1" dur="14.0s" repeatCount="indefinite"/><g fill="#6B7A90"><use href="#g-plex-14p5-101" x="150.0" y="312.0"/><use href="#g-plex-14p5-120" x="158.7" y="312.0"/><use href="#g-plex-14p5-112" x="167.4" y="312.0"/><use href="#g-plex-14p5-111" x="176.1" y="312.0"/><use href="#g-plex-14p5-114" x="184.8" y="312.0"/><use href="#g-plex-14p5-116" x="193.5" y="312.0"/></g><g fill="#1B2A41"><use href="#g-plex-14p5-115" x="237.0" y="312.0"/><use href="#g-plex-14p5-105" x="245.7" y="312.0"/><use href="#g-plex-14p5-116" x="254.4" y="312.0"/><use href="#g-plex-14p5-101" x="263.1" y="312.0"/><use href="#g-plex-14p5-109" x="271.8" y="312.0"/><use href="#g-plex-14p5-97" x="280.5" y="312.0"/><use href="#g-plex-14p5-112" x="289.2" y="312.0"/><use href="#g-plex-14p5-46" x="297.9" y="312.0"/><use href="#g-plex-14p5-120" x="306.6" y="312.0"/><use href="#g-plex-14p5-109" x="315.3" y="312.0"/><use href="#g-plex-14p5-108" x="324.0" y="312.0"/></g><g fill="#34465F"><use href="#g-plex-14p5-52" x="350.1" y="312.0"/><use href="#g-plex-14p5-56" x="358.8" y="312.0"/><use href="#g-plex-14p5-44" x="367.5" y="312.0"/><use href="#g-plex-14p5-50" x="376.2" y="312.0"/><use href="#g-plex-14p5-49" x="384.9" y="312.0"/><use href="#g-plex-14p5-51" x="393.6" y="312.0"/><use href="#g-plex-14p5-117" x="411.0" y="312.0"/><use href="#g-plex-14p5-114" x="419.7" y="312.0"/><use href="#g-plex-14p5-108" x="428.4" y="312.0"/><use href="#g-plex-14p5-115" x="437.1" y="312.0"/></g><g fill="#2F8F5B"><use href="#g-plex-14p5-100" x="463.2" y="312.0"/><use href="#g-plex-14p5-111" x="471.9" y="312.0"/><use href="#g-plex-14p5-110" x="480.6" y="312.0"/><use href="#g-plex-14p5-101" x="489.3" y="312.0"/></g><g fill="#6B7A90"><use href="#g-plex-14p5-52" x="515.4" y="312.0"/><use href="#g-plex-14p5-109" x="524.1" y="312.0"/><use href="#g-plex-14p5-49" x="541.5" y="312.0"/><use href="#g-plex-14p5-50" x="550.2" y="312.0"/><use href="#g-plex-14p5-115" x="558.9" y="312.0"/></g></g><g opacity="0"><animate attributeName="opacity" values="0;0;1;1;0" keyTimes="0;0.8286;0.8300;0.9571;1" dur="14.0s" repeatCount="indefinite"/><g fill="#6B7A90"><use href="#g-plex-12-49" x="48.0" y="342.0"/><use href="#g-plex-12-52" x="55.2" y="342.0"/><use href="#g-plex-12-58" x="62.4" y="342.0"/><use href="#g-plex-12-48" x="69.6" y="342.0"/><use href="#g-plex-12-56" x="76.8" y="342.0"/></g></g><g opacity="0"><animate attributeName="opacity" values="0;0;1;1;0" keyTimes="0;0.8286;0.8300;0.9571;1" dur="14.0s" repeatCount="indefinite"/><g fill="#D9442B"><use href="#g-plex-medium-14p5-36" x="150.0" y="342.0"/></g><rect x="167.4" y="328" width="8.7" height="18" fill="#1B2A41"><animate attributeName="opacity" values="1;1;0;0" keyTimes="0;.5;.5;1" dur="1.1s" repeatCount="indefinite"/></rect></g><path d="M997.8 398.2Q997.8 398.2 997.7 398.1Q997.6 398.1 997.6 397.9L997.6 393.1Q997.6 393 997.5 392.9Q997.4 392.9 997.3 393.1L994.8 397.9Q994.8 398.1 994.7 398.1Q994.6 398.2 994.6 398.2Q994.5 398.2 994.4 398.1Q994.4 398.1 994.4 397.9L994.2 387.8Q994.2 387.3 994.1 387.1Q994 387 993.7 386.9L993.5 386.8Q993.3 386.8 993.3 386.7Q993.3 386.6 993.4 386.5Q993.4 386.5 993.6 386.5H996.1Q996.3 386.5 996.3 386.6Q996.3 386.8 996 386.8L995.8 386.9Q995.6 386.9 995.4 387.1Q995.3 387.2 995.3 387.6L995.4 395.2Q995.4 395.4 995.5 395.4Q995.6 395.4 995.6 395.2L996.9 392.7Q997.2 392.1 997.4 391.6Q997.5 391 997.5 390.3L997.5 387.8Q997.5 387.3 997.4 387.1Q997.3 386.9 997.2 386.9L997 386.8Q996.8 386.8 996.8 386.7Q996.8 386.5 997 386.5H999.2Q999.4 386.5 999.4 386.6Q999.4 386.8 999.1 386.8L998.9 386.9Q998.7 386.9 998.6 387.1Q998.6 387.2 998.6 387.6L998.6 389.7Q998.6 389.9 998.7 389.9Q998.8 389.9 998.8 389.8L999.8 387.9Q1000.2 387.3 1000.2 387.1Q1000.2 386.9 1000 386.9L999.9 386.8Q999.6 386.8 999.6 386.7Q999.6 386.5 999.9 386.5H1001.4Q1001.7 386.5 1001.7 386.6Q1001.7 386.8 1001.4 386.8L1001.2 386.9Q1001 386.9 1000.8 387.1Q1000.6 387.4 1000.3 387.9L999.2 390Q998.9 390.7 998.7 391.2Q998.6 391.8 998.6 392.5L998.6 395.2Q998.6 395.3 998.7 395.3Q998.8 395.3 998.9 395.2L1002.4 387.9Q1002.6 387.4 1002.6 387.2Q1002.6 386.9 1002.3 386.9L1002.2 386.8Q1002 386.8 1002 386.7Q1002 386.5 1002.2 386.5H1004Q1004.3 386.5 1004.3 386.7Q1004.3 386.8 1004 386.8L1003.8 386.9Q1003.6 386.9 1003.4 387.1Q1003.2 387.2 1002.9 387.9L998.1 397.9Q998 398.1 998 398.1Q997.9 398.2 997.8 398.2Z M1005.6 388.3Q1005.3 388.3 1005.1 388.1Q1004.9 387.9 1004.9 387.6Q1004.9 387.2 1005.1 386.9Q1005.4 386.6 1005.7 386.6Q1006.1 386.6 1006.3 386.8Q1006.5 387 1006.5 387.4Q1006.5 387.8 1006.2 388.1Q1006 388.3 1005.6 388.3ZM1004.3 398.2Q1003.7 398.2 1003.5 397.8Q1003.3 397.4 1003.5 396.5L1004.7 391.4Q1004.8 391.1 1004.7 390.9Q1004.7 390.7 1004.4 390.7Q1004.1 390.7 1003.8 391.1Q1003.4 391.5 1003 392.7Q1002.9 392.9 1002.8 392.9Q1002.5 392.9 1002.7 392.6Q1003 391.5 1003.4 390.9Q1003.8 390.3 1004.2 390Q1004.6 389.7 1004.9 389.7Q1005.5 389.7 1005.7 390.1Q1005.9 390.5 1005.7 391.4L1004.5 396.5Q1004.5 396.8 1004.5 397Q1004.6 397.2 1004.8 397.2Q1005.1 397.2 1005.4 396.8Q1005.8 396.4 1006.2 395.2Q1006.3 395 1006.4 395Q1006.7 395 1006.6 395.3Q1006.2 396.4 1005.8 397Q1005.4 397.6 1005 397.9Q1004.6 398.2 1004.3 398.2Z M1007.8 397.8 1009.3 391.4Q1009.4 391.1 1009.3 390.9Q1009.3 390.7 1009 390.7Q1008.7 390.7 1008.4 391.1Q1008 391.5 1007.6 392.7Q1007.6 392.9 1007.4 392.9Q1007.2 392.9 1007.3 392.6Q1007.6 391.5 1008 390.9Q1008.4 390.3 1008.8 390Q1009.2 389.7 1009.5 389.7Q1010.1 389.7 1010.3 390.1Q1010.5 390.5 1010.3 391.4L1009.9 393.2Q1009.9 393.3 1010 393.3Q1010 393.3 1010.1 393.2Q1010.7 391.9 1011.3 391.1Q1011.8 390.4 1012.4 390.1Q1012.9 389.7 1013.3 389.7Q1013.9 389.7 1014.1 390.2Q1014.4 390.7 1014.1 391.7L1012.9 396.3Q1012.8 396.8 1012.9 397Q1013 397.2 1013.3 397.2Q1013.6 397.2 1013.9 396.8Q1014.2 396.4 1014.5 395.2Q1014.6 395 1014.8 395Q1014.9 395 1014.9 395.1Q1014.9 395.2 1014.9 395.3Q1014.6 396.4 1014.2 397Q1013.9 397.7 1013.5 397.9Q1013.2 398.1 1012.8 398.1Q1012.2 398.1 1011.9 397.7Q1011.6 397.2 1011.9 396.2L1013.1 391.5Q1013.3 390.9 1013.2 390.7Q1013.1 390.4 1012.8 390.4Q1012.5 390.4 1012 390.9Q1011.6 391.3 1011.1 392.1Q1010.7 392.8 1010.2 393.8Q1009.8 394.8 1009.4 395.8Q1009.1 396.8 1008.8 397.8Q1008.8 398 1008.6 398H1008Q1007.7 398 1007.8 397.8Z M1016.7 398.1Q1016.1 398.1 1015.8 397.6Q1015.5 397.2 1015.5 396.2Q1015.5 395.3 1015.7 394.4Q1016 393.4 1016.4 392.6Q1016.9 391.8 1017.4 391.1Q1018 390.5 1018.6 390.1Q1019.3 389.7 1019.9 389.7Q1020.3 389.7 1020.7 390Q1020.9 390.1 1020.9 389.9L1021.4 387.8Q1021.5 387.5 1021.4 387.4Q1021.4 387.2 1021.2 387.2L1020.7 387.2Q1020.4 387.2 1020.5 387Q1020.5 386.8 1020.7 386.8Q1021.3 386.7 1021.7 386.6Q1022.2 386.4 1022.4 386.2Q1022.6 386.1 1022.7 386.1Q1022.9 386.1 1022.8 386.4L1020.5 396.2Q1020.3 397.2 1020.9 397.2Q1021.2 397.2 1021.5 396.7Q1021.8 396.2 1022.1 395.2Q1022.2 395 1022.3 395Q1022.4 395 1022.5 395.1Q1022.5 395.2 1022.5 395.3Q1022.2 396.8 1021.6 397.5Q1021.1 398.1 1020.4 398.1Q1019.8 398.1 1019.5 397.6Q1019.2 397.1 1019.4 396.2L1019.6 395.4Q1019.6 395.3 1019.6 395.3Q1019.5 395.3 1019.5 395.4Q1018.7 396.9 1018 397.5Q1017.3 398.1 1016.7 398.1ZM1017.1 397.3Q1017.5 397.3 1017.9 396.9Q1018.4 396.4 1018.9 395.7Q1019.3 394.9 1019.7 394.1Q1020.1 393.2 1020.3 392.4Q1020.5 391.7 1020.5 391.1Q1020.5 390.1 1019.9 390.1Q1019.4 390.1 1019 390.5Q1018.5 390.9 1018.1 391.5Q1017.7 392.2 1017.3 393Q1017 393.8 1016.8 394.7Q1016.6 395.5 1016.6 396.4Q1016.6 396.9 1016.7 397.1Q1016.9 397.3 1017.1 397.3Z M1026.8 398.2Q1026.2 398.2 1026 397.8Q1025.8 397.4 1026 396.5L1028 387.8Q1028.1 387.5 1028 387.4Q1028 387.2 1027.7 387.2L1027.2 387.2Q1027 387.2 1027 387Q1027.1 386.8 1027.3 386.8Q1027.8 386.7 1028.3 386.6Q1028.7 386.4 1029 386.2Q1029.1 386.1 1029.2 386.1Q1029.4 386.1 1029.4 386.4L1027 396.5Q1026.9 396.8 1027 397Q1027.1 397.2 1027.3 397.2Q1027.6 397.2 1027.9 396.8Q1028.3 396.4 1028.7 395.2Q1028.8 395 1028.9 395Q1029.2 395 1029.1 395.3Q1028.7 396.4 1028.3 397Q1027.9 397.6 1027.5 397.9Q1027.1 398.2 1026.8 398.2Z M1032.7 388.3Q1032.4 388.3 1032.2 388.1Q1032 387.9 1032 387.6Q1032 387.2 1032.2 386.9Q1032.5 386.6 1032.8 386.6Q1033.2 386.6 1033.4 386.8Q1033.6 387 1033.6 387.4Q1033.6 387.8 1033.3 388.1Q1033 388.3 1032.7 388.3ZM1031.4 398.2Q1030.8 398.2 1030.6 397.8Q1030.4 397.4 1030.6 396.5L1031.8 391.4Q1031.9 391.1 1031.8 390.9Q1031.7 390.7 1031.5 390.7Q1031.2 390.7 1030.9 391.1Q1030.5 391.5 1030.1 392.7Q1030 392.9 1029.9 392.9Q1029.6 392.9 1029.7 392.6Q1030.1 391.5 1030.5 390.9Q1030.9 390.3 1031.3 390Q1031.7 389.7 1032 389.7Q1032.6 389.7 1032.8 390.1Q1033 390.5 1032.8 391.4L1031.6 396.5Q1031.6 396.8 1031.6 397Q1031.7 397.2 1031.9 397.2Q1032.2 397.2 1032.5 396.8Q1032.9 396.4 1033.3 395.2Q1033.4 395 1033.5 395Q1033.8 395 1033.7 395.3Q1033.3 396.4 1032.9 397Q1032.5 397.6 1032.1 397.9Q1031.7 398.2 1031.4 398.2Z M1035.3 401.5Q1034 401.5 1033.4 401Q1032.7 400.5 1032.7 399.9Q1032.7 399.3 1033.1 398.8Q1033.6 398.3 1034.8 397.6Q1034.9 397.5 1035 397.4Q1035 397.2 1034.8 397.1Q1034.4 396.8 1034.3 396.4Q1034.2 396.1 1034.5 395.9L1035.7 395.2Q1035.9 395.1 1035.9 395Q1035.9 394.9 1035.7 394.8Q1035.3 394.5 1035 394.1Q1034.8 393.6 1034.8 393Q1034.8 392.2 1035.3 391.4Q1035.7 390.7 1036.4 390.2Q1037.1 389.7 1038 389.7Q1038.4 389.7 1038.6 389.8Q1038.8 389.9 1038.9 389.7Q1039.2 389.1 1039.6 388.8Q1040 388.4 1040.5 388.4Q1040.8 388.4 1041 388.6Q1041.2 388.8 1041.2 389.1Q1041.2 389.4 1041 389.6Q1040.8 389.8 1040.6 389.8Q1040.4 389.8 1040.2 389.7Q1040.1 389.6 1040.1 389.5Q1040 389.5 1039.8 389.5Q1039.5 389.5 1039.2 389.9Q1039.2 390 1039.2 390.1Q1039.2 390.2 1039.3 390.4Q1039.8 390.9 1039.8 391.7Q1039.8 392.5 1039.4 393.2Q1039.1 393.9 1038.5 394.3Q1038 394.8 1037.2 395Q1036.9 395 1036.7 395.1Q1036.5 395.2 1036.1 395.4L1035.5 395.8Q1035.2 396 1035.4 396.2Q1035.5 396.4 1036 396.6L1037.4 397.1Q1038.3 397.4 1038.6 397.9Q1038.9 398.3 1038.9 399Q1038.9 399.7 1038.4 400.3Q1037.9 400.8 1037.1 401.2Q1036.3 401.5 1035.3 401.5ZM1035.9 393.3Q1035.9 394 1036.1 394.4Q1036.3 394.7 1036.7 394.7Q1037.2 394.7 1037.7 394.2Q1038.1 393.8 1038.4 393Q1038.7 392.3 1038.7 391.5Q1038.7 390.7 1038.5 390.4Q1038.3 390.1 1037.8 390.1Q1037.3 390.1 1036.9 390.6Q1036.4 391 1036.2 391.8Q1035.9 392.5 1035.9 393.3ZM1035.5 401.1Q1036.1 401.1 1036.6 400.8Q1037.2 400.6 1037.5 400.3Q1037.9 399.9 1037.9 399.3Q1037.9 398.8 1037.6 398.5Q1037.3 398.1 1036.6 397.8L1036.3 397.7Q1036 397.6 1035.7 397.6Q1035.4 397.7 1035.1 397.8Q1034.3 398.3 1034 398.7Q1033.7 399.1 1033.7 399.6Q1033.7 400.2 1034.1 400.6Q1034.5 401.1 1035.5 401.1Z M1045.4 398.1Q1044.8 398.1 1044.5 397.7Q1044.2 397.2 1044.5 396.2L1045.7 391.5Q1045.9 390.9 1045.8 390.7Q1045.6 390.4 1045.4 390.4Q1045.1 390.4 1044.6 390.9Q1044.2 391.3 1043.7 392.1Q1043.2 392.8 1042.8 393.8Q1042.4 394.7 1042 395.8Q1041.6 396.8 1041.4 397.8Q1041.3 398 1041.2 398H1040.5Q1040.3 398 1040.3 397.8L1042.7 387.8Q1042.7 387.5 1042.7 387.4Q1042.6 387.2 1042.4 387.2L1041.9 387.2Q1041.6 387.2 1041.7 387Q1041.7 386.8 1041.9 386.8Q1042.5 386.7 1042.9 386.6Q1043.4 386.4 1043.6 386.2Q1043.8 386.1 1043.9 386.1Q1044.1 386.1 1044 386.4L1042.5 393.2Q1042.4 393.3 1042.5 393.3Q1042.6 393.3 1042.6 393.2Q1043.3 391.9 1043.8 391.1Q1044.4 390.4 1044.9 390.1Q1045.4 389.7 1045.8 389.7Q1046.4 389.7 1046.7 390.2Q1047 390.7 1046.7 391.7L1045.5 396.3Q1045.4 396.8 1045.5 397Q1045.6 397.2 1045.8 397.2Q1046.1 397.2 1046.4 396.8Q1046.8 396.4 1047.1 395.2Q1047.2 395 1047.3 395Q1047.4 395 1047.5 395.1Q1047.5 395.2 1047.5 395.3Q1047.2 396.4 1046.8 397Q1046.4 397.7 1046.1 397.9Q1045.7 398.1 1045.4 398.1Z M1049.5 398.1Q1048.9 398.1 1048.6 397.7Q1048.3 397.3 1048.5 396.3L1049.8 390.5Q1049.9 390.3 1049.6 390.3H1049Q1048.8 390.3 1048.8 390.1Q1048.8 390 1048.9 389.9Q1049 389.8 1049.1 389.8H1049.7Q1050 389.8 1050.1 389.5L1050.5 387.8Q1050.5 387.6 1050.7 387.6H1051.4Q1051.6 387.6 1051.5 387.8L1051.1 389.6Q1051.1 389.8 1051.3 389.8H1052.2Q1052.5 389.8 1052.5 390Q1052.5 390.3 1052.2 390.3H1051.3Q1051 390.3 1050.9 390.6L1049.5 396.5Q1049.5 396.8 1049.6 397Q1049.7 397.2 1049.9 397.2Q1050.3 397.2 1050.6 396.8Q1050.9 396.4 1051.3 395.2Q1051.3 395 1051.5 395Q1051.6 395 1051.6 395.1Q1051.6 395.2 1051.6 395.5Q1051.3 396.6 1050.9 397.1Q1050.5 397.7 1050.2 397.9Q1049.8 398.1 1049.5 398.1Z M1052 400.4Q1051.8 400.5 1051.7 400.5Q1051.6 400.5 1051.6 400.4Q1051.6 400.2 1051.8 400.1Q1052.2 399.8 1052.6 399.3Q1053 398.8 1053 398.4Q1053 398.1 1052.8 398Q1052.7 397.8 1052.6 397.7Q1052.4 397.5 1052.4 397.3Q1052.4 396.9 1052.7 396.7Q1052.9 396.5 1053.2 396.5Q1053.6 396.5 1053.8 396.7Q1054 396.9 1054 397.3Q1054 397.8 1053.7 398.4Q1053.4 399 1053 399.5Q1052.5 400.1 1052 400.4Z M1060.8 398.1Q1060 398.1 1059.6 397.6Q1059.3 397 1059.5 396L1060.7 391.4Q1060.9 390.7 1060.5 390.7Q1060.1 390.7 1059.8 391.1Q1059.5 391.6 1059.1 392.7Q1059 392.9 1058.9 392.9Q1058.8 392.9 1058.8 392.8Q1058.7 392.8 1058.7 392.6Q1059.7 389.7 1061.1 389.7Q1061.6 389.7 1061.8 390.2Q1062 390.6 1061.8 391.4L1060.5 396.2Q1060.3 396.9 1060.5 397.2Q1060.6 397.6 1061 397.6Q1061.5 397.6 1062 397.1Q1062.5 396.7 1063 396Q1063.5 395.2 1063.8 394.4Q1064 393.5 1064 392.7Q1064 392 1063.9 391.6Q1063.8 391.2 1063.6 391Q1063.5 390.7 1063.5 390.4Q1063.5 389.7 1064 389.7Q1064.8 389.7 1064.8 391.4Q1064.8 392.7 1064.4 393.8Q1064.1 395 1063.5 396Q1062.9 397 1062.2 397.6Q1061.5 398.1 1060.8 398.1Z M1068.3 388.3Q1068 388.3 1067.8 388.1Q1067.6 387.9 1067.6 387.6Q1067.6 387.2 1067.8 386.9Q1068.1 386.6 1068.4 386.6Q1068.7 386.6 1069 386.8Q1069.2 387 1069.2 387.4Q1069.2 387.8 1068.9 388.1Q1068.6 388.3 1068.3 388.3ZM1066.9 398.2Q1066.4 398.2 1066.2 397.8Q1066 397.4 1066.2 396.5L1067.4 391.4Q1067.4 391.1 1067.4 390.9Q1067.3 390.7 1067.1 390.7Q1066.8 390.7 1066.5 391.1Q1066.1 391.5 1065.7 392.7Q1065.6 392.9 1065.5 392.9Q1065.2 392.9 1065.3 392.6Q1065.7 391.5 1066.1 390.9Q1066.5 390.3 1066.9 390Q1067.3 389.7 1067.6 389.7Q1068.2 389.7 1068.4 390.1Q1068.6 390.5 1068.4 391.4L1067.2 396.5Q1067.1 396.8 1067.2 397Q1067.2 397.2 1067.5 397.2Q1067.8 397.2 1068.1 396.8Q1068.5 396.4 1068.9 395.2Q1069 395 1069.1 395Q1069.4 395 1069.2 395.3Q1068.9 396.4 1068.5 397Q1068.1 397.6 1067.7 397.9Q1067.3 398.2 1066.9 398.2Z M1071.5 398.1Q1070.9 398.1 1070.3 398Q1069.8 397.8 1069.5 397.6Q1069.3 397.5 1069.4 397.3L1069.7 395.2Q1069.7 395 1069.9 395Q1070.1 395 1070.1 395.2L1070.1 396Q1070.1 396.9 1070.6 397.3Q1071 397.7 1071.6 397.7Q1072.1 397.7 1072.4 397.4Q1072.8 397.1 1072.8 396.4Q1072.8 396.1 1072.7 395.8Q1072.6 395.5 1072.3 395.1Q1072.1 394.7 1071.7 394.2Q1071.1 393.5 1070.9 393Q1070.6 392.5 1070.6 392Q1070.6 391 1071.2 390.4Q1071.9 389.7 1072.8 389.7Q1073.3 389.7 1073.7 389.9Q1074.1 390 1074.4 390.3Q1074.5 390.4 1074.5 390.5L1074 392.7Q1074 392.9 1073.8 392.9Q1073.7 392.9 1073.6 392.7L1073.6 391.9Q1073.5 390.9 1073.4 390.5Q1073.2 390.1 1072.6 390.1Q1072.1 390.1 1071.8 390.5Q1071.4 390.8 1071.4 391.3Q1071.4 391.8 1071.7 392.3Q1072 392.7 1072.5 393.4Q1073.2 394.3 1073.4 394.8Q1073.6 395.3 1073.6 395.8Q1073.6 396.5 1073.3 397Q1073 397.5 1072.5 397.8Q1072 398.1 1071.5 398.1Z M1077.7 388.3Q1077.4 388.3 1077.2 388.1Q1077 387.9 1077 387.6Q1077 387.2 1077.3 386.9Q1077.5 386.6 1077.9 386.6Q1078.2 386.6 1078.4 386.8Q1078.6 387 1078.6 387.4Q1078.6 387.8 1078.3 388.1Q1078.1 388.3 1077.7 388.3ZM1076.4 398.2Q1075.9 398.2 1075.6 397.8Q1075.4 397.4 1075.6 396.5L1076.8 391.4Q1076.9 391.1 1076.8 390.9Q1076.8 390.7 1076.5 390.7Q1076.2 390.7 1075.9 391.1Q1075.6 391.5 1075.1 392.7Q1075.1 392.9 1074.9 392.9Q1074.7 392.9 1074.8 392.6Q1075.1 391.5 1075.5 390.9Q1075.9 390.3 1076.3 390Q1076.7 389.7 1077 389.7Q1077.6 389.7 1077.8 390.1Q1078 390.5 1077.8 391.4L1076.7 396.5Q1076.6 396.8 1076.6 397Q1076.7 397.2 1076.9 397.2Q1077.2 397.2 1077.6 396.8Q1077.9 396.4 1078.3 395.2Q1078.4 395 1078.6 395Q1078.8 395 1078.7 395.3Q1078.4 396.4 1077.9 397Q1077.5 397.6 1077.1 397.9Q1076.7 398.2 1076.4 398.2Z M1081.2 398.1Q1080.7 398.1 1080.2 397.8Q1079.8 397.6 1079.7 397Q1079.5 396.4 1079.7 395.5L1081.5 387.8Q1081.6 387.5 1081.5 387.4Q1081.4 387.2 1081.2 387.2L1080.7 387.2Q1080.5 387.2 1080.5 387Q1080.5 386.8 1080.7 386.8Q1081.3 386.7 1081.8 386.6Q1082.2 386.4 1082.5 386.2Q1082.6 386.1 1082.7 386.1Q1082.9 386.1 1082.9 386.4L1081.4 392.6Q1081.4 392.8 1081.5 392.8Q1081.5 392.8 1081.6 392.7Q1082.4 391 1083.1 390.4Q1083.8 389.7 1084.4 389.7Q1085 389.7 1085.4 390.2Q1085.7 390.7 1085.7 391.7Q1085.7 392.6 1085.5 393.5Q1085.2 394.4 1084.7 395.3Q1084.3 396.1 1083.7 396.8Q1083.1 397.4 1082.5 397.8Q1081.8 398.1 1081.2 398.1ZM1081.3 397.7Q1081.7 397.7 1082.1 397.4Q1082.6 397 1083 396.4Q1083.5 395.7 1083.8 394.9Q1084.2 394.1 1084.4 393.3Q1084.6 392.5 1084.6 391.7Q1084.6 391.1 1084.5 390.8Q1084.4 390.6 1084 390.6Q1083.7 390.6 1083.2 391Q1082.8 391.4 1082.3 392.2Q1081.9 392.9 1081.5 393.7Q1081.1 394.5 1080.8 395.3Q1080.6 396.1 1080.6 396.8Q1080.6 397.7 1081.3 397.7Z M1089.2 388.3Q1088.9 388.3 1088.7 388.1Q1088.5 387.9 1088.5 387.6Q1088.5 387.2 1088.8 386.9Q1089 386.6 1089.4 386.6Q1089.7 386.6 1089.9 386.8Q1090.1 387 1090.1 387.4Q1090.1 387.8 1089.8 388.1Q1089.6 388.3 1089.2 388.3ZM1087.9 398.2Q1087.4 398.2 1087.1 397.8Q1086.9 397.4 1087.1 396.5L1088.3 391.4Q1088.4 391.1 1088.3 390.9Q1088.3 390.7 1088 390.7Q1087.7 390.7 1087.4 391.1Q1087.1 391.5 1086.6 392.7Q1086.6 392.9 1086.4 392.9Q1086.2 392.9 1086.3 392.6Q1086.6 391.5 1087 390.9Q1087.4 390.3 1087.8 390Q1088.2 389.7 1088.5 389.7Q1089.1 389.7 1089.3 390.1Q1089.6 390.5 1089.3 391.4L1088.2 396.5Q1088.1 396.8 1088.1 397Q1088.2 397.2 1088.4 397.2Q1088.7 397.2 1089.1 396.8Q1089.4 396.4 1089.8 395.2Q1089.9 395 1090.1 395Q1090.3 395 1090.2 395.3Q1089.9 396.4 1089.4 397Q1089 397.6 1088.6 397.9Q1088.2 398.2 1087.9 398.2Z M1091.7 398.2Q1091.2 398.2 1091 397.8Q1090.8 397.4 1091 396.5L1093 387.8Q1093.1 387.5 1093 387.4Q1092.9 387.2 1092.7 387.2L1092.2 387.2Q1092 387.2 1092 387Q1092 386.8 1092.2 386.8Q1092.8 386.7 1093.3 386.6Q1093.7 386.4 1094 386.2Q1094.1 386.1 1094.2 386.1Q1094.4 386.1 1094.4 386.4L1092 396.5Q1091.9 396.8 1092 397Q1092 397.2 1092.3 397.2Q1092.6 397.2 1092.9 396.8Q1093.2 396.4 1093.7 395.2Q1093.7 395 1093.9 395Q1094.1 395 1094 395.3Q1093.7 396.4 1093.3 397Q1092.9 397.6 1092.5 397.9Q1092.1 398.2 1091.7 398.2Z M1097.6 388.3Q1097.3 388.3 1097.1 388.1Q1096.9 387.9 1096.9 387.6Q1096.9 387.2 1097.2 386.9Q1097.5 386.6 1097.8 386.6Q1098.1 386.6 1098.3 386.8Q1098.6 387 1098.6 387.4Q1098.6 387.8 1098.3 388.1Q1098 388.3 1097.6 388.3ZM1096.3 398.2Q1095.8 398.2 1095.6 397.8Q1095.4 397.4 1095.6 396.5L1096.8 391.4Q1096.8 391.1 1096.8 390.9Q1096.7 390.7 1096.5 390.7Q1096.2 390.7 1095.8 391.1Q1095.5 391.5 1095.1 392.7Q1095 392.9 1094.8 392.9Q1094.6 392.9 1094.7 392.6Q1095.1 391.5 1095.5 390.9Q1095.9 390.3 1096.3 390Q1096.7 389.7 1097 389.7Q1097.6 389.7 1097.8 390.1Q1098 390.5 1097.8 391.4L1096.6 396.5Q1096.5 396.8 1096.6 397Q1096.6 397.2 1096.9 397.2Q1097.2 397.2 1097.5 396.8Q1097.9 396.4 1098.3 395.2Q1098.4 395 1098.5 395Q1098.8 395 1098.6 395.3Q1098.3 396.4 1097.9 397Q1097.5 397.6 1097.1 397.9Q1096.7 398.2 1096.3 398.2Z M1100.6 398.1Q1100.1 398.1 1099.8 397.7Q1099.5 397.3 1099.7 396.3L1101 390.5Q1101.1 390.3 1100.8 390.3H1100.2Q1100 390.3 1100 390.1Q1100 390 1100.1 389.9Q1100.1 389.8 1100.3 389.8H1100.8Q1101.2 389.8 1101.3 389.5L1101.6 387.8Q1101.7 387.6 1101.9 387.6H1102.5Q1102.8 387.6 1102.7 387.8L1102.3 389.6Q1102.3 389.8 1102.5 389.8H1103.4Q1103.7 389.8 1103.7 390Q1103.7 390.3 1103.3 390.3H1102.5Q1102.1 390.3 1102 390.6L1100.7 396.5Q1100.6 396.8 1100.7 397Q1100.8 397.2 1101.1 397.2Q1101.5 397.2 1101.8 396.8Q1102.1 396.4 1102.4 395.2Q1102.5 395 1102.6 395Q1102.8 395 1102.8 395.1Q1102.8 395.2 1102.7 395.5Q1102.4 396.6 1102.1 397.1Q1101.7 397.7 1101.3 397.9Q1101 398.1 1100.6 398.1Z M1102.9 401.4Q1102.3 401.4 1102 401.1Q1101.6 400.8 1101.6 400.4Q1101.6 400 1101.8 399.9Q1102 399.7 1102.2 399.7Q1102.5 399.7 1102.6 399.9Q1102.8 400 1102.8 400.2Q1102.9 400.4 1103 400.6Q1103.2 400.8 1103.5 400.8Q1104 400.8 1104.6 400.3Q1105.2 399.8 1105.6 399Q1105.9 398.2 1105.9 397.2L1105.6 391.4Q1105.6 391 1105.5 390.8Q1105.4 390.7 1105.2 390.7Q1104.8 390.7 1104.5 391.1Q1104.2 391.5 1104 392.7Q1103.9 392.9 1103.8 392.9Q1103.6 392.9 1103.6 392.6Q1103.8 391.5 1104.1 390.9Q1104.5 390.3 1104.9 390Q1105.3 389.7 1105.6 389.7Q1106.1 389.7 1106.4 390.1Q1106.7 390.4 1106.7 391.3L1106.9 397.4Q1106.9 397.5 1107 397.5Q1107.1 397.6 1107.1 397.5Q1107.7 396.7 1108.2 395.8Q1108.6 395 1108.9 394.2Q1109.2 393.4 1109.2 392.7Q1109.2 392 1109 391.6Q1108.9 391.2 1108.7 391Q1108.6 390.7 1108.6 390.4Q1108.6 389.7 1109.1 389.7Q1109.9 389.7 1109.9 391.4Q1109.9 392.4 1109.6 393.5Q1109.2 394.6 1108.7 395.7Q1108.1 396.8 1107.4 397.8Q1106.7 398.9 1105.9 399.7Q1105.2 400.5 1104.4 401Q1103.6 401.4 1102.9 401.4Z M1114.2 401.5Q1113 401.5 1112.3 401Q1111.7 400.5 1111.7 399.9Q1111.7 399.3 1112.1 398.8Q1112.5 398.3 1113.7 397.6Q1113.9 397.5 1113.9 397.4Q1114 397.2 1113.8 397.1Q1113.3 396.8 1113.2 396.4Q1113.2 396.1 1113.4 395.9L1114.7 395.2Q1114.8 395.1 1114.8 395Q1114.8 394.9 1114.7 394.8Q1114.2 394.5 1114 394.1Q1113.8 393.6 1113.8 393Q1113.8 392.2 1114.2 391.4Q1114.6 390.7 1115.4 390.2Q1116.1 389.7 1116.9 389.7Q1117.3 389.7 1117.6 389.8Q1117.8 389.9 1117.9 389.7Q1118.1 389.1 1118.6 388.8Q1119 388.4 1119.4 388.4Q1119.8 388.4 1120 388.6Q1120.1 388.8 1120.1 389.1Q1120.1 389.4 1120 389.6Q1119.8 389.8 1119.5 389.8Q1119.3 389.8 1119.2 389.7Q1119.1 389.6 1119 389.5Q1118.9 389.5 1118.8 389.5Q1118.4 389.5 1118.2 389.9Q1118.1 390 1118.2 390.1Q1118.2 390.2 1118.3 390.4Q1118.7 390.9 1118.7 391.7Q1118.7 392.5 1118.4 393.2Q1118.1 393.9 1117.5 394.3Q1116.9 394.8 1116.2 395Q1115.9 395 1115.7 395.1Q1115.4 395.2 1115.1 395.4L1114.4 395.8Q1114.2 396 1114.3 396.2Q1114.4 396.4 1114.9 396.6L1116.3 397.1Q1117.2 397.4 1117.6 397.9Q1117.9 398.3 1117.9 399Q1117.9 399.7 1117.4 400.3Q1116.9 400.8 1116.1 401.2Q1115.2 401.5 1114.2 401.5ZM1114.9 393.3Q1114.9 394 1115.1 394.4Q1115.3 394.7 1115.7 394.7Q1116.2 394.7 1116.6 394.2Q1117.1 393.8 1117.4 393Q1117.6 392.3 1117.6 391.5Q1117.6 390.7 1117.4 390.4Q1117.2 390.1 1116.8 390.1Q1116.3 390.1 1115.9 390.6Q1115.4 391 1115.1 391.8Q1114.9 392.5 1114.9 393.3ZM1114.4 401.1Q1115 401.1 1115.6 400.8Q1116.1 400.6 1116.5 400.3Q1116.8 399.9 1116.8 399.3Q1116.8 398.8 1116.6 398.5Q1116.3 398.1 1115.5 397.8L1115.2 397.7Q1114.9 397.6 1114.6 397.6Q1114.4 397.7 1114.1 397.8Q1113.2 398.3 1112.9 398.7Q1112.6 399.1 1112.6 399.6Q1112.6 400.2 1113.1 400.6Q1113.5 401.1 1114.4 401.1Z M1121.4 398.1Q1120.4 398.1 1119.9 397.3Q1119.3 396.5 1119.3 395.1Q1119.3 394 1119.6 393.1Q1120 392.1 1120.5 391.4Q1121.1 390.6 1121.8 390.2Q1122.4 389.7 1123.1 389.7Q1124.1 389.7 1124.7 390.6Q1125.3 391.4 1125.3 392.8Q1125.3 393.8 1124.9 394.8Q1124.6 395.8 1124 396.5Q1123.5 397.3 1122.8 397.7Q1122.1 398.1 1121.4 398.1ZM1121.4 397.8Q1121.9 397.8 1122.4 397.3Q1122.9 396.8 1123.3 396Q1123.7 395.1 1123.9 394.1Q1124.2 393.1 1124.2 392.1Q1124.2 390.1 1123.1 390.1Q1122.6 390.1 1122.1 390.6Q1121.6 391.1 1121.3 391.9Q1120.9 392.7 1120.6 393.7Q1120.4 394.7 1120.4 395.7Q1120.4 397.8 1121.4 397.8Z M1128.1 398.1Q1127.1 398.1 1126.5 397.3Q1125.9 396.5 1125.9 395.1Q1125.9 394 1126.3 393.1Q1126.6 392.1 1127.1 391.4Q1127.7 390.6 1128.4 390.2Q1129.1 389.7 1129.7 389.7Q1130.7 389.7 1131.3 390.6Q1131.9 391.4 1131.9 392.8Q1131.9 393.8 1131.6 394.8Q1131.2 395.8 1130.7 396.5Q1130.1 397.3 1129.4 397.7Q1128.8 398.1 1128.1 398.1ZM1128 397.8Q1128.5 397.8 1129 397.3Q1129.5 396.8 1129.9 396Q1130.3 395.1 1130.6 394.1Q1130.8 393.1 1130.8 392.1Q1130.8 390.1 1129.8 390.1Q1129.3 390.1 1128.8 390.6Q1128.3 391.1 1127.9 391.9Q1127.5 392.7 1127.2 393.7Q1127 394.7 1127 395.7Q1127 397.8 1128 397.8Z M1133.7 398.1Q1133.1 398.1 1132.8 397.6Q1132.4 397.2 1132.4 396.2Q1132.4 395.3 1132.7 394.4Q1132.9 393.4 1133.4 392.6Q1133.8 391.8 1134.4 391.1Q1135 390.5 1135.6 390.1Q1136.2 389.7 1136.9 389.7Q1137.3 389.7 1137.6 390Q1137.8 390.1 1137.9 389.9L1138.4 387.8Q1138.5 387.5 1138.4 387.4Q1138.3 387.2 1138.1 387.2L1137.6 387.2Q1137.4 387.2 1137.4 387Q1137.5 386.8 1137.6 386.8Q1138.2 386.7 1138.7 386.6Q1139.1 386.4 1139.4 386.2Q1139.5 386.1 1139.6 386.1Q1139.8 386.1 1139.8 386.4L1137.5 396.2Q1137.3 397.2 1137.8 397.2Q1138.2 397.2 1138.5 396.7Q1138.8 396.2 1139.1 395.2Q1139.1 395 1139.3 395Q1139.4 395 1139.4 395.1Q1139.5 395.2 1139.4 395.3Q1139.1 396.8 1138.6 397.5Q1138.1 398.1 1137.3 398.1Q1136.7 398.1 1136.5 397.6Q1136.2 397.1 1136.4 396.2L1136.6 395.4Q1136.6 395.3 1136.5 395.3Q1136.5 395.3 1136.4 395.4Q1135.6 396.9 1135 397.5Q1134.3 398.1 1133.7 398.1ZM1134 397.3Q1134.4 397.3 1134.9 396.9Q1135.4 396.4 1135.8 395.7Q1136.3 394.9 1136.7 394.1Q1137 393.2 1137.3 392.4Q1137.5 391.7 1137.5 391.1Q1137.5 390.1 1136.8 390.1Q1136.4 390.1 1135.9 390.5Q1135.5 390.9 1135 391.5Q1134.6 392.2 1134.3 393Q1133.9 393.8 1133.7 394.7Q1133.5 395.5 1133.5 396.4Q1133.5 396.9 1133.7 397.1Q1133.8 397.3 1134 397.3Z M1140.8 398.1Q1140.5 398.1 1140.3 397.9Q1140 397.7 1140 397.4Q1140 397 1140.3 396.7Q1140.6 396.5 1140.9 396.5Q1141.3 396.5 1141.5 396.7Q1141.7 396.9 1141.7 397.2Q1141.7 397.6 1141.4 397.9Q1141.1 398.1 1140.8 398.1Z M1152 398.1Q1151.8 398.1 1151.7 397.9L1149.4 388.4Q1149.4 388.3 1149.3 388.3Q1149.3 388.3 1149.2 388.4L1147.3 396.6Q1147.2 397.1 1147.3 397.3Q1147.4 397.5 1147.8 397.6L1148 397.6Q1148.2 397.6 1148.2 397.8Q1148.1 398 1147.9 398H1145.6Q1145.4 398 1145.4 397.8Q1145.4 397.6 1145.6 397.6L1145.9 397.6Q1146.3 397.5 1146.5 397.3Q1146.7 397.1 1146.8 396.6L1148.9 387.5Q1149 387.2 1148.9 387.1Q1148.8 387 1148.5 386.9L1148.1 386.8Q1147.9 386.8 1148 386.7Q1148 386.5 1148.3 386.5H1149.8Q1150.2 386.5 1150.3 386.8L1152.3 395.1Q1152.3 395.2 1152.4 395.2Q1152.5 395.2 1152.5 395.1L1154.2 387.9Q1154.3 387.3 1154.2 387.1Q1154 386.9 1153.8 386.9L1153.5 386.8Q1153.3 386.8 1153.3 386.7Q1153.4 386.5 1153.6 386.5H1155.9Q1156.1 386.5 1156.1 386.7Q1156 386.8 1155.9 386.8L1155.6 386.9Q1155.2 386.9 1155 387.1Q1154.8 387.3 1154.7 387.9L1152.4 397.8Q1152.3 398.1 1152 398.1Z M1157 398.1Q1156 398.1 1155.4 397.3Q1154.8 396.5 1154.8 395.1Q1154.8 394 1155.2 393.1Q1155.5 392.1 1156.1 391.4Q1156.6 390.6 1157.3 390.2Q1158 389.7 1158.7 389.7Q1159.6 389.7 1160.2 390.6Q1160.8 391.4 1160.8 392.8Q1160.8 393.8 1160.5 394.8Q1160.1 395.8 1159.6 396.5Q1159 397.3 1158.3 397.7Q1157.7 398.1 1157 398.1ZM1156.9 397.8Q1157.5 397.8 1157.9 397.3Q1158.4 396.8 1158.8 396Q1159.2 395.1 1159.5 394.1Q1159.7 393.1 1159.7 392.1Q1159.7 390.1 1158.7 390.1Q1158.2 390.1 1157.7 390.6Q1157.2 391.1 1156.8 391.9Q1156.4 392.7 1156.2 393.7Q1155.9 394.7 1155.9 395.7Q1155.9 397.8 1156.9 397.8Z M1162.8 398.1Q1162.2 398.1 1161.9 397.7Q1161.6 397.3 1161.8 396.3L1163.2 390.5Q1163.2 390.3 1163 390.3H1162.4Q1162.1 390.3 1162.1 390.1Q1162.1 390 1162.2 389.9Q1162.3 389.8 1162.4 389.8H1163Q1163.3 389.8 1163.4 389.5L1163.8 387.8Q1163.8 387.6 1164 387.6H1164.7Q1164.9 387.6 1164.8 387.8L1164.4 389.6Q1164.4 389.8 1164.6 389.8H1165.6Q1165.8 389.8 1165.8 390Q1165.8 390.3 1165.5 390.3H1164.6Q1164.3 390.3 1164.2 390.6L1162.8 396.5Q1162.8 396.8 1162.9 397Q1163 397.2 1163.2 397.2Q1163.6 397.2 1163.9 396.8Q1164.2 396.4 1164.6 395.2Q1164.6 395 1164.8 395Q1164.9 395 1164.9 395.1Q1165 395.2 1164.9 395.5Q1164.6 396.6 1164.2 397.1Q1163.9 397.7 1163.5 397.9Q1163.1 398.1 1162.8 398.1Z M1170.6 398.1Q1170.1 398.1 1169.8 397.7Q1169.5 397.2 1169.7 396.2L1171 391.5Q1171.2 390.9 1171 390.7Q1170.9 390.4 1170.7 390.4Q1170.3 390.4 1169.9 390.9Q1169.5 391.3 1169 392.1Q1168.5 392.8 1168.1 393.8Q1167.6 394.7 1167.3 395.8Q1166.9 396.8 1166.7 397.8Q1166.6 398 1166.4 398H1165.8Q1165.6 398 1165.6 397.8L1167.9 387.8Q1168 387.5 1167.9 387.4Q1167.9 387.2 1167.6 387.2L1167.2 387.2Q1166.9 387.2 1167 387Q1167 386.8 1167.2 386.8Q1167.8 386.7 1168.2 386.6Q1168.7 386.4 1168.9 386.2Q1169.1 386.1 1169.2 386.1Q1169.4 386.1 1169.3 386.4L1167.7 393.2Q1167.7 393.3 1167.8 393.3Q1167.9 393.3 1167.9 393.2Q1168.5 391.9 1169.1 391.1Q1169.7 390.4 1170.2 390.1Q1170.7 389.7 1171.1 389.7Q1171.7 389.7 1172 390.2Q1172.3 390.7 1172 391.7L1170.8 396.3Q1170.7 396.8 1170.8 397Q1170.8 397.2 1171.1 397.2Q1171.4 397.2 1171.7 396.8Q1172 396.4 1172.4 395.2Q1172.4 395 1172.6 395Q1172.7 395 1172.7 395.1Q1172.8 395.2 1172.7 395.3Q1172.4 396.4 1172.1 397Q1171.7 397.7 1171.4 397.9Q1171 398.1 1170.6 398.1Z M1176.4 388.3Q1176.1 388.3 1175.9 388.1Q1175.7 387.9 1175.7 387.6Q1175.7 387.2 1175.9 386.9Q1176.2 386.6 1176.5 386.6Q1176.8 386.6 1177.1 386.8Q1177.3 387 1177.3 387.4Q1177.3 387.8 1177 388.1Q1176.7 388.3 1176.4 388.3ZM1175.1 398.2Q1174.5 398.2 1174.3 397.8Q1174.1 397.4 1174.3 396.5L1175.5 391.4Q1175.6 391.1 1175.5 390.9Q1175.4 390.7 1175.2 390.7Q1174.9 390.7 1174.6 391.1Q1174.2 391.5 1173.8 392.7Q1173.7 392.9 1173.6 392.9Q1173.3 392.9 1173.4 392.6Q1173.8 391.5 1174.2 390.9Q1174.6 390.3 1175 390Q1175.4 389.7 1175.7 389.7Q1176.3 389.7 1176.5 390.1Q1176.7 390.5 1176.5 391.4L1175.3 396.5Q1175.2 396.8 1175.3 397Q1175.4 397.2 1175.6 397.2Q1175.9 397.2 1176.2 396.8Q1176.6 396.4 1177 395.2Q1177.1 395 1177.2 395Q1177.5 395 1177.4 395.3Q1177 396.4 1176.6 397Q1176.2 397.6 1175.8 397.9Q1175.4 398.2 1175.1 398.2Z M1178.6 397.8 1180.1 391.4Q1180.2 391.1 1180.1 390.9Q1180 390.7 1179.8 390.7Q1179.5 390.7 1179.2 391.1Q1178.8 391.5 1178.4 392.7Q1178.3 392.9 1178.2 392.9Q1177.9 392.9 1178 392.6Q1178.4 391.5 1178.8 390.9Q1179.2 390.3 1179.6 390Q1180 389.7 1180.3 389.7Q1180.8 389.7 1181.1 390.1Q1181.3 390.5 1181.1 391.4L1180.7 393.2Q1180.7 393.3 1180.7 393.3Q1180.8 393.3 1180.8 393.2Q1181.5 391.9 1182 391.1Q1182.6 390.4 1183.1 390.1Q1183.6 389.7 1184.1 389.7Q1184.7 389.7 1184.9 390.2Q1185.2 390.7 1184.9 391.7L1183.7 396.3Q1183.6 396.8 1183.7 397Q1183.8 397.2 1184 397.2Q1184.4 397.2 1184.7 396.8Q1185 396.4 1185.3 395.2Q1185.4 395 1185.5 395Q1185.7 395 1185.7 395.1Q1185.7 395.2 1185.7 395.3Q1185.4 396.4 1185 397Q1184.7 397.7 1184.3 397.9Q1184 398.1 1183.6 398.1Q1183 398.1 1182.7 397.7Q1182.4 397.2 1182.7 396.2L1183.9 391.5Q1184.1 390.9 1184 390.7Q1183.9 390.4 1183.6 390.4Q1183.3 390.4 1182.8 390.9Q1182.4 391.3 1181.9 392.1Q1181.5 392.8 1181 393.8Q1180.6 394.8 1180.2 395.8Q1179.8 396.8 1179.6 397.8Q1179.6 398 1179.4 398H1178.7Q1178.5 398 1178.6 397.8Z M1187.3 401.5Q1186 401.5 1185.4 401Q1184.7 400.5 1184.7 399.9Q1184.7 399.3 1185.2 398.8Q1185.6 398.3 1186.8 397.6Q1187 397.5 1187 397.4Q1187 397.2 1186.8 397.1Q1186.4 396.8 1186.3 396.4Q1186.2 396.1 1186.5 395.9L1187.7 395.2Q1187.9 395.1 1187.9 395Q1187.9 394.9 1187.7 394.8Q1187.3 394.5 1187.1 394.1Q1186.9 393.6 1186.9 393Q1186.9 392.2 1187.3 391.4Q1187.7 390.7 1188.4 390.2Q1189.1 389.7 1190 389.7Q1190.4 389.7 1190.6 389.8Q1190.8 389.9 1190.9 389.7Q1191.2 389.1 1191.6 388.8Q1192 388.4 1192.5 388.4Q1192.8 388.4 1193 388.6Q1193.2 388.8 1193.2 389.1Q1193.2 389.4 1193 389.6Q1192.9 389.8 1192.6 389.8Q1192.4 389.8 1192.3 389.7Q1192.2 389.6 1192.1 389.5Q1192 389.5 1191.8 389.5Q1191.5 389.5 1191.3 389.9Q1191.2 390 1191.2 390.1Q1191.3 390.2 1191.4 390.4Q1191.8 390.9 1191.8 391.7Q1191.8 392.5 1191.5 393.2Q1191.1 393.9 1190.6 394.3Q1190 394.8 1189.3 395Q1189 395 1188.7 395.1Q1188.5 395.2 1188.2 395.4L1187.5 395.8Q1187.3 396 1187.4 396.2Q1187.5 396.4 1188 396.6L1189.4 397.1Q1190.3 397.4 1190.6 397.9Q1191 398.3 1191 399Q1191 399.7 1190.5 400.3Q1190 400.8 1189.1 401.2Q1188.3 401.5 1187.3 401.5ZM1187.9 393.3Q1187.9 394 1188.2 394.4Q1188.4 394.7 1188.8 394.7Q1189.3 394.7 1189.7 394.2Q1190.2 393.8 1190.4 393Q1190.7 392.3 1190.7 391.5Q1190.7 390.7 1190.5 390.4Q1190.3 390.1 1189.9 390.1Q1189.4 390.1 1188.9 390.6Q1188.5 391 1188.2 391.8Q1187.9 392.5 1187.9 393.3ZM1187.5 401.1Q1188.1 401.1 1188.7 400.8Q1189.2 400.6 1189.5 400.3Q1189.9 399.9 1189.9 399.3Q1189.9 398.8 1189.6 398.5Q1189.4 398.1 1188.6 397.8L1188.3 397.7Q1188 397.6 1187.7 397.6Q1187.4 397.7 1187.2 397.8Q1186.3 398.3 1186 398.7Q1185.7 399.1 1185.7 399.6Q1185.7 400.2 1186.1 400.6Q1186.6 401.1 1187.5 401.1Z M1197.4 398.1Q1196.4 398.1 1195.9 397.3Q1195.3 396.5 1195.3 395.1Q1195.3 394 1195.6 393.1Q1196 392.1 1196.5 391.4Q1197.1 390.6 1197.7 390.2Q1198.4 389.7 1199.1 389.7Q1200.1 389.7 1200.7 390.6Q1201.2 391.4 1201.2 392.8Q1201.2 393.8 1200.9 394.8Q1200.6 395.8 1200 396.5Q1199.5 397.3 1198.8 397.7Q1198.1 398.1 1197.4 398.1ZM1197.4 397.8Q1197.9 397.8 1198.4 397.3Q1198.9 396.8 1199.3 396Q1199.7 395.1 1199.9 394.1Q1200.2 393.1 1200.2 392.1Q1200.2 390.1 1199.1 390.1Q1198.6 390.1 1198.1 390.6Q1197.6 391.1 1197.2 391.9Q1196.8 392.7 1196.6 393.7Q1196.4 394.7 1196.4 395.7Q1196.4 397.8 1197.4 397.8Z M1202.4 397.8 1204 391.4Q1204 391.1 1204 390.9Q1203.9 390.7 1203.7 390.7Q1203.4 390.7 1203 391.1Q1202.7 391.5 1202.3 392.7Q1202.2 392.9 1202 392.9Q1201.8 392.9 1201.9 392.6Q1202.3 391.5 1202.7 390.9Q1203.1 390.3 1203.5 390Q1203.9 389.7 1204.2 389.7Q1204.7 389.7 1204.9 390.1Q1205.2 390.5 1205 391.4L1204.6 393.2Q1204.5 393.3 1204.6 393.3Q1204.7 393.3 1204.7 393.2Q1205.3 391.9 1205.9 391.1Q1206.5 390.4 1207 390.1Q1207.5 389.7 1207.9 389.7Q1208.5 389.7 1208.8 390.2Q1209.1 390.7 1208.8 391.7L1207.6 396.3Q1207.5 396.8 1207.6 397Q1207.7 397.2 1207.9 397.2Q1208.2 397.2 1208.6 396.8Q1208.9 396.4 1209.2 395.2Q1209.2 395 1209.4 395Q1209.5 395 1209.6 395.1Q1209.6 395.2 1209.6 395.3Q1209.2 396.4 1208.9 397Q1208.5 397.7 1208.2 397.9Q1207.8 398.1 1207.5 398.1Q1206.9 398.1 1206.6 397.7Q1206.3 397.2 1206.6 396.2L1207.8 391.5Q1208 390.9 1207.8 390.7Q1207.7 390.4 1207.5 390.4Q1207.2 390.4 1206.7 390.9Q1206.3 391.3 1205.8 392.1Q1205.3 392.8 1204.9 393.8Q1204.4 394.8 1204.1 395.8Q1203.7 396.8 1203.5 397.8Q1203.4 398 1203.3 398H1202.6Q1202.4 398 1202.4 397.8Z M1213.2 398Q1212.9 398 1213 397.8L1214.6 390.9Q1214.8 390.3 1214.2 390.3H1213.9Q1213.6 390.3 1213.6 390.1Q1213.6 389.8 1213.9 389.8Q1214.4 389.8 1214.7 389.7Q1214.9 389.6 1215 389.2Q1215.2 388.3 1215.6 387.6Q1216 386.9 1216.6 386.4Q1217.2 386 1217.9 386Q1218.4 386 1218.8 386.3Q1219.1 386.6 1219.1 387Q1219.1 387.4 1218.9 387.6Q1218.7 387.8 1218.5 387.8Q1218.1 387.8 1218 387.6Q1217.9 387.4 1217.9 387.2Q1217.9 386.9 1217.8 386.7Q1217.7 386.5 1217.4 386.5Q1217.1 386.5 1216.8 386.9Q1216.5 387.2 1216.3 388.2L1216 389.6Q1215.9 389.8 1216.1 389.8H1217.4Q1217.7 389.8 1217.6 390.1Q1217.6 390.3 1217.4 390.3H1216Q1215.8 390.3 1215.8 390.4L1214 397.8Q1214 398 1213.8 398Z M1220 388.3Q1219.7 388.3 1219.5 388.1Q1219.3 387.9 1219.3 387.6Q1219.3 387.2 1219.5 386.9Q1219.8 386.6 1220.1 386.6Q1220.5 386.6 1220.7 386.8Q1220.9 387 1220.9 387.4Q1220.9 387.8 1220.6 388.1Q1220.4 388.3 1220 388.3ZM1218.7 398.2Q1218.1 398.2 1217.9 397.8Q1217.7 397.4 1217.9 396.5L1219.1 391.4Q1219.2 391.1 1219.1 390.9Q1219.1 390.7 1218.8 390.7Q1218.5 390.7 1218.2 391.1Q1217.8 391.5 1217.4 392.7Q1217.3 392.9 1217.2 392.9Q1216.9 392.9 1217.1 392.6Q1217.4 391.5 1217.8 390.9Q1218.2 390.3 1218.6 390Q1219 389.7 1219.3 389.7Q1219.9 389.7 1220.1 390.1Q1220.3 390.5 1220.1 391.4L1218.9 396.5Q1218.9 396.8 1218.9 397Q1219 397.2 1219.2 397.2Q1219.5 397.2 1219.8 396.8Q1220.2 396.4 1220.6 395.2Q1220.7 395 1220.8 395Q1221.1 395 1221 395.3Q1220.6 396.4 1220.2 397Q1219.8 397.6 1219.4 397.9Q1219 398.2 1218.7 398.2Z M1222.4 398Q1222.1 398 1222.2 397.8L1223.7 391.4Q1223.8 391.1 1223.7 390.9Q1223.7 390.7 1223.4 390.7Q1223.1 390.7 1222.8 391.1Q1222.4 391.5 1222 392.7Q1222 392.9 1221.8 392.9Q1221.6 392.9 1221.7 392.6Q1222 391.5 1222.4 390.9Q1222.8 390.3 1223.2 390Q1223.6 389.7 1223.9 389.7Q1224.5 389.7 1224.7 390.1Q1224.9 390.5 1224.7 391.4L1224.5 392.2Q1224.5 392.3 1224.6 392.3Q1224.6 392.3 1224.7 392.2Q1225.3 390.8 1225.8 390.3Q1226.3 389.7 1226.9 389.7Q1227.4 389.7 1227.6 390Q1227.8 390.2 1227.8 390.6Q1227.8 391 1227.6 391.2Q1227.4 391.5 1227.1 391.5Q1226.8 391.5 1226.7 391.4Q1226.6 391.2 1226.6 391.1Q1226.5 390.9 1226.4 390.8Q1226.4 390.6 1226.2 390.6Q1226 390.6 1225.6 391.2Q1225.2 391.9 1224.8 392.9Q1224.4 393.9 1223.9 395.2Q1223.5 396.5 1223.2 397.8Q1223.2 398 1223 398Z M1229 398.1Q1228.1 398.1 1227.6 397.5Q1227.1 396.8 1227.1 395.6Q1227.1 394.5 1227.5 393.5Q1227.9 392.5 1228.5 391.6Q1229.1 390.8 1229.8 390.3Q1230.5 389.7 1231.2 389.7Q1232 389.7 1232.3 390.1Q1232.6 390.5 1232.6 391.1Q1232.6 391.8 1232.1 392.5Q1231.6 393.2 1230.7 393.8Q1229.8 394.3 1228.6 394.6Q1228.3 394.7 1228.2 395Q1228.2 395.1 1228.2 395.2Q1228.2 395.4 1228.2 395.5Q1228.2 396.4 1228.5 396.8Q1228.8 397.3 1229.4 397.3Q1230 397.3 1230.6 396.8Q1231.1 396.2 1231.5 395.2Q1231.6 395 1231.7 395Q1231.8 395 1231.8 395.1Q1231.9 395.2 1231.8 395.3Q1231.3 396.7 1230.6 397.4Q1229.9 398.1 1229 398.1ZM1228.4 394Q1228.4 394.1 1228.4 394.2Q1228.5 394.3 1228.6 394.2Q1229.6 394 1230.3 393.4Q1231 392.8 1231.3 392.2Q1231.6 391.5 1231.6 390.8Q1231.6 390.1 1231.1 390.1Q1230.7 390.1 1230.1 390.7Q1229.6 391.2 1229.1 392.1Q1228.6 393 1228.4 394Z M1233.5 398.1Q1233.2 398.1 1232.9 397.9Q1232.7 397.7 1232.7 397.4Q1232.7 397 1233 396.7Q1233.3 396.5 1233.6 396.5Q1234 396.5 1234.2 396.7Q1234.4 396.9 1234.4 397.2Q1234.4 397.6 1234.1 397.9Q1233.8 398.1 1233.5 398.1Z" fill="#6B7A90"/>
</svg>
