<?xml version="1.0" encoding="UTF-8"?><!-- BSR∴DP∴2.0.0 · seed:EC8AC918 · project:Elusive_trades_data · derived from SHA-256("BenjaminSRussell") --><svg xmlns="http://www.w3.org/2000/svg" viewBox="0 0 640 200" preserveAspectRatio="xMidYMid meet" role="img" aria-label="TRADES DATA"><defs><linearGradient id="gV-p-Elusivetrad-dark" x1="0%" y1="0%" x2="100%" y2="0%"><stop offset="0%" stop-color="#7C3AED" stop-opacity="0"/><stop offset="40%" stop-color="#7C3AED" stop-opacity="0.75"/><stop offset="60%" stop-color="#22D3EE" stop-opacity="0.75"/><stop offset="100%" stop-color="#22D3EE" stop-opacity="0"/><animate attributeName="x1" values="0%;12%;0%" dur="14s" repeatCount="indefinite"/><animate attributeName="x2" values="100%;88%;100%" dur="14s" repeatCount="indefinite"/></linearGradient><radialGradient id="glowC-p-Elusivetrad-dark" cx="50%" cy="50%" r="50%"><stop offset="0%" stop-color="#22D3EE" stop-opacity="0.4"/><stop offset="100%" stop-color="#22D3EE" stop-opacity="0"/></radialGradient><radialGradient id="glowV-p-Elusivetrad-dark" cx="50%" cy="50%" r="50%"><stop offset="0%" stop-color="#7C3AED" stop-opacity="0.35"/><stop offset="100%" stop-color="#7C3AED" stop-opacity="0"/></radialGradient><filter id="soft-p-Elusivetrad-dark" x="-50%" y="-50%" width="200%" height="200%"><feGaussianBlur in="SourceGraphic" stdDeviation="1.1" result="b"/><feMerge><feMergeNode in="b"/><feMergeNode in="SourceGraphic"/></feMerge></filter><filter id="haze-p-Elusivetrad-dark" x="-80%" y="-80%" width="260%" height="260%"><feGaussianBlur stdDeviation="7"/></filter></defs><rect width="640" height="200" fill="#0A0C10" rx="6"/><rect x="1" y="1" width="638" height="198" fill="none" stroke="#1E2430" stroke-width="1" rx="5" opacity="0.8"/><g id="grid"><line x1="0" y1="0" x2="0" y2="200" stroke="#12161E" stroke-width="0.5" opacity="0.15"/><line x1="40" y1="0" x2="40" y2="200" stroke="#12161E" stroke-width="0.5" opacity="0.15"/><line x1="80" y1="0" x2="80" y2="200" stroke="#12161E" stroke-width="0.5" opacity="0.15"/><line x1="120" y1="0" x2="120" y2="200" stroke="#12161E" stroke-width="0.5" opacity="0.15"/><line x1="160" y1="0" x2="160" y2="200" stroke="#12161E" stroke-width="0.5" opacity="0.15"/><line x1="200" y1="0" x2="200" y2="200" stroke="#12161E" stroke-width="0.5" opacity="0.15"/><line x1="240" y1="0" x2="240" y2="200" stroke="#12161E" stroke-width="0.5" opacity="0.15"/><line x1="280" y1="0" x2="280" y2="200" stroke="#12161E" stroke-width="0.5" opacity="0.15"/><line x1="320" y1="0" x2="320" y2="200" stroke="#12161E" stroke-width="0.5" opacity="0.15"/><line x1="360" y1="0" x2="360" y2="200" stroke="#12161E" stroke-width="0.5" opacity="0.15"/><line x1="400" y1="0" x2="400" y2="200" stroke="#12161E" stroke-width="0.5" opacity="0.15"/><line x1="440" y1="0" x2="440" y2="200" stroke="#12161E" stroke-width="0.5" opacity="0.15"/><line x1="480" y1="0" x2="480" y2="200" stroke="#12161E" stroke-width="0.5" opacity="0.15"/><line x1="520" y1="0" x2="520" y2="200" stroke="#12161E" stroke-width="0.5" opacity="0.15"/><line x1="560" y1="0" x2="560" y2="200" stroke="#12161E" stroke-width="0.5" opacity="0.15"/><line x1="600" y1="0" x2="600" y2="200" stroke="#12161E" stroke-width="0.5" opacity="0.15"/><line x1="640" y1="0" x2="640" y2="200" stroke="#12161E" stroke-width="0.5" opacity="0.15"/><line x1="0" y1="0" x2="640" y2="0" stroke="#12161E" stroke-width="0.5" opacity="0.15"/><line x1="0" y1="40" x2="640" y2="40" stroke="#12161E" stroke-width="0.5" opacity="0.15"/><line x1="0" y1="80" x2="640" y2="80" stroke="#12161E" stroke-width="0.5" opacity="0.15"/><line x1="0" y1="120" x2="640" y2="120" stroke="#12161E" stroke-width="0.5" opacity="0.15"/><line x1="0" y1="160" x2="640" y2="160" stroke="#12161E" stroke-width="0.5" opacity="0.15"/><line x1="0" y1="200" x2="640" y2="200" stroke="#12161E" stroke-width="0.5" opacity="0.15"/><circle cx="0" cy="0" r="0.7" fill="#1E2430" opacity="0.5"/><circle cx="0" cy="80" r="0.7" fill="#1E2430" opacity="0.5"/><circle cx="0" cy="160" r="0.7" fill="#1E2430" opacity="0.5"/><circle cx="80" cy="0" r="0.7" fill="#1E2430" opacity="0.5"/><circle cx="80" cy="80" r="0.7" fill="#1E2430" opacity="0.5"/><circle cx="80" cy="160" r="0.7" fill="#1E2430" opacity="0.5"/><circle cx="160" cy="0" r="0.7" fill="#1E2430" opacity="0.5"/><circle cx="160" cy="80" r="0.7" fill="#1E2430" opacity="0.5"/><circle cx="160" cy="160" r="0.7" fill="#1E2430" opacity="0.5"/><circle cx="240" cy="0" r="0.7" fill="#1E2430" opacity="0.5"/><circle cx="240" cy="80" r="0.7" fill="#1E2430" opacity="0.5"/><circle cx="240" cy="160" r="0.7" fill="#1E2430" opacity="0.5"/><circle cx="320" cy="0" r="0.7" fill="#1E2430" opacity="0.5"/><circle cx="320" cy="80" r="0.7" fill="#1E2430" opacity="0.5"/><circle cx="320" cy="160" r="0.7" fill="#1E2430" opacity="0.5"/><circle cx="400" cy="0" r="0.7" fill="#1E2430" opacity="0.5"/><circle cx="400" cy="80" r="0.7" fill="#1E2430" opacity="0.5"/><circle cx="400" cy="160" r="0.7" fill="#1E2430" opacity="0.5"/><circle cx="480" cy="0" r="0.7" fill="#1E2430" opacity="0.5"/><circle cx="480" cy="80" r="0.7" fill="#1E2430" opacity="0.5"/><circle cx="480" cy="160" r="0.7" fill="#1E2430" opacity="0.5"/><circle cx="560" cy="0" r="0.7" fill="#1E2430" opacity="0.5"/><circle cx="560" cy="80" r="0.7" fill="#1E2430" opacity="0.5"/><circle cx="560" cy="160" r="0.7" fill="#1E2430" opacity="0.5"/><circle cx="640" cy="0" r="0.7" fill="#1E2430" opacity="0.5"/><circle cx="640" cy="80" r="0.7" fill="#1E2430" opacity="0.5"/><circle cx="640" cy="160" r="0.7" fill="#1E2430" opacity="0.5"/></g><!-- micro messy→clean --><line x1="200" y1="30" x2="200" y2="150" stroke="#1E2430" stroke-width="0.6" opacity="0.5" stroke-dasharray="2 5"/><g opacity="0.9"><circle cx="134.5" cy="102.4" r="0.8" fill="#A78BFA" opacity="0.28"/><circle cx="44.0" cy="71.2" r="0.8" fill="#A78BFA" opacity="0.15"/><circle cx="155.8" cy="118.2" r="1.1" fill="#A78BFA" opacity="0.17"/><circle cx="67.3" cy="40.0" r="1.2" fill="#A78BFA" opacity="0.35"/><circle cx="144.0" cy="158.7" r="1.7" fill="#A78BFA" opacity="0.27"/><circle cx="26.9" cy="159.7" r="0.8" fill="#A78BFA" opacity="0.16"/><circle cx="102.0" cy="35.9" r="0.7" fill="#A78BFA" opacity="0.17"/><circle cx="138.3" cy="81.7" r="0.9" fill="#A78BFA" opacity="0.25"/><circle cx="90.0" cy="118.7" r="1.6" fill="#A78BFA" opacity="0.20"/><circle cx="98.7" cy="36.8" r="1.1" fill="#A78BFA" opacity="0.21"/><circle cx="110.5" cy="148.8" r="0.7" fill="#A78BFA" opacity="0.26"/><circle cx="100.8" cy="131.4" r="0.7" fill="#A78BFA" opacity="0.32"/><circle cx="65.9" cy="40.4" r="0.6" fill="#A78BFA" opacity="0.24"/><circle cx="119.8" cy="35.9" r="1.7" fill="#A78BFA" opacity="0.39"/><circle cx="38.8" cy="77.0" r="1.5" fill="#A78BFA" opacity="0.22"/><circle cx="123.8" cy="38.9" r="1.6" fill="#A78BFA" opacity="0.30"/></g><g filter="url(#soft-p-Elusivetrad-dark)"><path d="M278.4120597488916,69.30720951004085 Q318.2195453774658,100.65628815628816 343.78620200074926,132.00536680253546" fill="none" stroke="#7C3AED" stroke-width="0.65" opacity="0.35"/><path d="M285.83544199677954,55.227794660794416 Q308.9982008336902,84.748799040842 328.7338265021936,114.26980342088959" fill="none" stroke="#7C3AED" stroke-width="0.65" opacity="0.35"/><path d="M289.42984190165055,92.79898988002478 Q339.0397431874122,77.07179007362068 354.77108059949165,61.34459026721658" fill="none" stroke="#7C3AED" stroke-width="0.65" opacity="0.35"/><path d="M287.19150079438094,99.25317908842439 Q320.99273151115966,107.57721662981609 353.68916324908514,115.9012541712078" fill="none" stroke="#7C3AED" stroke-width="0.65" opacity="0.35"/><path d="M267.9970397351408,89.86032932164248 Q291.76247517838925,112.45704620820561 328.2006068945293,135.05376309476873" fill="none" stroke="#7C3AED" stroke-width="0.65" opacity="0.35"/><path d="M268.6059459212986,59.32177390585982 Q278.5751806840408,99.1252819672395 331.82014088750725,138.92879002861918" fill="none" stroke="#7C3AED" stroke-width="0.65" opacity="0.35"/><path d="M288.5401531183811,136.0766977713524 Q321.42067798499335,136.1013861657015 354.44187876235713,136.12607456005065" fill="none" stroke="#7C3AED" stroke-width="0.65" opacity="0.35"/><path d="M268.0977030454697,107.98924702341837 Q330.5534145565876,100.98072281364935 346.45316013414623,93.97219860388032" fill="none" stroke="#7C3AED" stroke-width="0.65" opacity="0.35"/><path d="M282.1360246620193,86.4476955799875 Q321.1021832288613,82.26080654625932 332.4128608353651,78.07391751253112" fill="none" stroke="#7C3AED" stroke-width="0.65" opacity="0.35"/><line x1="375" y1="64" x2="465" y2="64" stroke="#22D3EE" stroke-width="1.1" opacity="0.5" stroke-dasharray="3 7"><animate attributeName="stroke-dashoffset" values="0;20" dur="5.2s" begin="0.0s" repeatCount="indefinite"/></line><circle r="1.6" fill="#22D3EE"><animateMotion dur="4.5s" begin="0.0s" repeatCount="indefinite" path="M375,64 L465,64"/></circle><line x1="375" y1="88" x2="465" y2="88" stroke="#22D3EE" stroke-width="1.1" opacity="0.5" stroke-dasharray="3 7"><animate attributeName="stroke-dashoffset" values="0;20" dur="5.2s" begin="0.2s" repeatCount="indefinite"/></line><circle r="1.6" fill="#22D3EE"><animateMotion dur="4.8s" begin="0.4s" repeatCount="indefinite" path="M375,88 L465,88"/></circle><line x1="375" y1="112" x2="465" y2="112" stroke="#22D3EE" stroke-width="1.1" opacity="0.5" stroke-dasharray="3 7"><animate attributeName="stroke-dashoffset" values="0;20" dur="5.2s" begin="0.5s" repeatCount="indefinite"/></line><circle r="1.6" fill="#22D3EE"><animateMotion dur="5.1s" begin="0.8s" repeatCount="indefinite" path="M375,112 L465,112"/></circle><line x1="375" y1="136" x2="465" y2="136" stroke="#22D3EE" stroke-width="1.1" opacity="0.5" stroke-dasharray="3 7"><animate attributeName="stroke-dashoffset" values="0;20" dur="5.2s" begin="0.8s" repeatCount="indefinite"/></line><circle r="1.6" fill="#22D3EE"><animateMotion dur="5.4s" begin="1.2s" repeatCount="indefinite" path="M375,136 L465,136"/></circle></g><circle cx="24" cy="24" r="2.2" fill="#A78BFA"><animate attributeName="opacity" values="0.4;1;0.4" dur="4.2s" repeatCount="indefinite"/></circle><circle cx="616" cy="24" r="2.2" fill="#7C3AED" opacity="0.7"/><rect x="32" y="160" width="120" height="1" fill="url(#gV-p-Elusivetrad-dark)" opacity="0.55"/><text x="32" y="178" font-family="ui-sans-serif, system-ui, -apple-system, 'Segoe UI', Helvetica, Arial, sans-serif" font-size="11" font-weight="500" letter-spacing="3.5" fill="#B8B2A8" opacity="0.85">TRADES DATA</text></svg>
