<?xml version="1.0" encoding="UTF-8"?>
<!-- BSR∴profile∴6.0.0 · rust-sitemap · Markdown First · seed:EC8AC918 -->
<svg xmlns="http://www.w3.org/2000/svg" viewBox="0 0 1280 220" preserveAspectRatio="xMidYMid meet" role="img" aria-label="Rust-sitemap — fast sitemap structure"><defs>
<radialGradient id="rsWashV" cx="26%" cy="45%" r="58%">
  <stop offset="0%" stop-color="#7C3AED" stop-opacity=".12"/>
  <stop offset="100%" stop-color="#0B0D10" stop-opacity="0"/>
</radialGradient>
<radialGradient id="rsWashT" cx="78%" cy="55%" r="52%">
  <stop offset="0%" stop-color="#22D3EE" stop-opacity=".09"/>
  <stop offset="100%" stop-color="#0B0D10" stop-opacity="0"/>
</radialGradient>
<radialGradient id="rsWashL" cx="50%" cy="20%" r="40%">
  <stop offset="0%" stop-color="#A78BFA" stop-opacity=".06"/>
  <stop offset="100%" stop-color="#0B0D10" stop-opacity="0"/>
</radialGradient>
<linearGradient id="rsRule" x1="0" y1="0" x2="1" y2="0">
  <stop offset="0%" stop-color="#7C3AED" stop-opacity="0"/>
  <stop offset="40%" stop-color="#7C3AED" stop-opacity=".65"/>
  <stop offset="60%" stop-color="#22D3EE" stop-opacity=".65"/>
  <stop offset="100%" stop-color="#22D3EE" stop-opacity="0"/>
</linearGradient>
<filter id="rsBlur"><feGaussianBlur stdDeviation="22"/></filter>
<radialGradient id="rsVig" cx="50%" cy="50%" r="72%">
  <stop offset="0%" stop-color="#0B0D10" stop-opacity="0"/>
  <stop offset="80%" stop-color="#0B0D10" stop-opacity="0"/>
  <stop offset="100%" stop-color="#050608" stop-opacity="0.5"/>
</radialGradient>
</defs><rect width="1280" height="220" fill="#0B0D10"/><ellipse cx="260" cy="110" rx="280" ry="115" fill="url(#rsWashV)" filter="url(#rsBlur)"/><ellipse cx="940" cy="115" rx="300" ry="115" fill="url(#rsWashT)" filter="url(#rsBlur)"/><text x="72" y="96" text-anchor="start" font-family="ui-sans-serif, system-ui, -apple-system, Segoe UI, Helvetica, Arial, sans-serif" font-size="28" font-weight="600" letter-spacing="3.5" fill="#E8E4DF">RUST-SITEMAP</text><rect x="72" y="112" width="150" height="2" rx="1" fill="url(#rsRule)" opacity=".75"/><text x="72" y="144" text-anchor="start" font-family="ui-sans-serif, system-ui, -apple-system, Segoe UI, Helvetica, Arial, sans-serif" font-size="13" font-weight="400" letter-spacing="2" fill="#94A3B8" opacity=".8">root → tree → ship</text><line x1="640" y1="110" x2="800" y2="55" stroke="#64748B" stroke-width="2.2" opacity=".32"/><line x1="640" y1="110" x2="820" y2="110" stroke="#64748B" stroke-width="2.2" opacity=".32"/><line x1="640" y1="110" x2="800" y2="165" stroke="#64748B" stroke-width="2.2" opacity=".32"/><line x1="800" y1="55" x2="980" y2="40" stroke="#64748B" stroke-width="1.8" opacity=".26"/><line x1="800" y1="55" x2="1000" y2="80" stroke="#64748B" stroke-width="1.8" opacity=".26"/><line x1="820" y1="110" x2="1020" y2="110" stroke="#64748B" stroke-width="1.8" opacity=".26"/><line x1="800" y1="165" x2="1000" y2="140" stroke="#64748B" stroke-width="1.8" opacity=".26"/><line x1="800" y1="165" x2="980" y2="180" stroke="#64748B" stroke-width="1.8" opacity=".26"/><circle cx="640" cy="110" r="14" fill="#0B0D10" stroke="#7C3AED" stroke-width="2.5" opacity=".95"/><circle cx="640" cy="110" r="5" fill="#7C3AED" opacity=".8"/><circle cx="800" cy="55" r="10" fill="#0B0D10" stroke="#22D3EE" stroke-width="2" opacity=".9"/><circle cx="800" cy="55" r="3.5" fill="#22D3EE" opacity=".7"/><circle cx="820" cy="110" r="10" fill="#0B0D10" stroke="#A78BFA" stroke-width="2" opacity=".9"/><circle cx="820" cy="110" r="3.5" fill="#A78BFA" opacity=".7"/><circle cx="800" cy="165" r="10" fill="#0B0D10" stroke="#22D3EE" stroke-width="2" opacity=".9"/><circle cx="800" cy="165" r="3.5" fill="#22D3EE" opacity=".7"/><circle cx="980" cy="40" r="6.5" fill="#0B0D10" stroke="#22D3EE" stroke-width="1.6" opacity=".72"/><circle cx="1000" cy="80" r="6.5" fill="#0B0D10" stroke="#A78BFA" stroke-width="1.6" opacity=".72"/><circle cx="1020" cy="110" r="6.5" fill="#0B0D10" stroke="#22D3EE" stroke-width="1.6" opacity=".72"/><circle cx="1000" cy="140" r="6.5" fill="#0B0D10" stroke="#A78BFA" stroke-width="1.6" opacity=".72"/><circle cx="980" cy="180" r="6.5" fill="#0B0D10" stroke="#22D3EE" stroke-width="1.6" opacity=".72"/><rect width="1280" height="220" fill="url(#rsVig)"/></svg>
